<?xml version="1.0" encoding="utf-8"?>
<!-- Generator: Adobe Illustrator 26.5.0, SVG Export Plug-In . SVG Version: 6.00 Build 0)  -->
<svg version="1.0" id="Layer_1" xmlns="http://www.w3.org/2000/svg" xmlns:xlink="http://www.w3.org/1999/xlink" x="0px" y="0px"
	 viewBox="0 0 500 330" style="enable-background:new 0 0 500 330;" xml:space="preserve">
<style type="text/css">
	.st0{fill:none;stroke:#27AAE1;stroke-width:4;stroke-linecap:round;stroke-miterlimit:10;}
	.st1{fill:none;stroke:#662D91;stroke-width:4;stroke-linecap:round;stroke-miterlimit:10;}
	.st2{fill:none;stroke:#2E3192;stroke-width:4;stroke-linecap:round;stroke-miterlimit:10;}
	.st3{fill:none;stroke:#006838;stroke-width:4;stroke-linecap:round;stroke-miterlimit:10;}
	.st4{fill:none;stroke:#DA1C5C;stroke-width:4;stroke-linecap:round;stroke-miterlimit:10;}
	.st5{fill:none;}
	.st6{fill-rule:evenodd;clip-rule:evenodd;}
	.st7{fill:none;stroke:#ED1C24;stroke-width:4;stroke-linecap:round;stroke-miterlimit:10;}
	.st8{fill:none;stroke:#262262;stroke-width:4;stroke-linecap:round;stroke-miterlimit:10;}
	.st9{fill:none;stroke:#000000;stroke-width:6;stroke-linecap:round;stroke-miterlimit:10;}
</style>
<g>
	<line class="st0" x1="140.06" y1="85.84" x2="140.06" y2="34.62"/>
	<line class="st0" x1="295.6" y1="34.62" x2="295.6" y2="85.84"/>
	<line class="st0" x1="140.06" y1="34.62" x2="295.6" y2="34.62"/>
</g>
<g>
	<line class="st1" x1="106.66" y1="160.04" x2="106.66" y2="85.84"/>
	<line class="st1" x1="179.04" y1="85.84" x2="179.04" y2="183.02"/>
	<line class="st1" x1="106.66" y1="85.84" x2="179.04" y2="85.84"/>
</g>
<g>
	<line class="st2" x1="150.96" y1="234.24" x2="150.96" y2="183.02"/>
	<line class="st2" x1="207.13" y1="183.02" x2="207.13" y2="234.24"/>
	<line class="st2" x1="150.96" y1="183.02" x2="207.13" y2="183.02"/>
</g>
<g>
	<line class="st3" x1="328.04" y1="160.04" x2="328.04" y2="85.84"/>
	<line class="st3" x1="255.66" y1="85.84" x2="255.66" y2="134.43"/>
	<line class="st3" x1="328.04" y1="85.84" x2="255.66" y2="85.84"/>
</g>
<g>
	<line class="st4" x1="283.74" y1="234.24" x2="283.74" y2="133.74"/>
	<line class="st4" x1="227.57" y1="133.74" x2="227.57" y2="234.24"/>
	<line class="st4" x1="283.74" y1="133.74" x2="227.57" y2="133.74"/>
</g>
<g>
	<g>
		<g>
			<g>
				<g>
					<g>
						<rect x="18.83" y="93.13" class="st5" width="27.46" height="30"/>
					</g>
					<rect x="39.16" y="107.07" class="st6" width="5.1" height="3"/>
					<rect x="30.02" y="107.07" class="st6" width="5.1" height="3"/>
					<rect x="20.91" y="107.07" class="st6" width="5.1" height="3"/>
				</g>
			</g>
			<g>
				<g>
					<g>
						<rect x="46.29" y="93.13" class="st5" width="27.46" height="30"/>
					</g>
					<rect x="66.63" y="107.07" class="st6" width="5.1" height="3"/>
					<rect x="57.48" y="107.07" class="st6" width="5.1" height="3"/>
					<rect x="48.37" y="107.07" class="st6" width="5.1" height="3"/>
				</g>
			</g>
			<g>
				<g>
					<g>
						<rect x="73.75" y="93.13" class="st5" width="27.46" height="30"/>
					</g>
					<rect x="94.09" y="107.07" class="st6" width="5.1" height="3"/>
					<rect x="84.94" y="107.07" class="st6" width="5.1" height="3"/>
					<rect x="75.83" y="107.07" class="st6" width="5.1" height="3"/>
				</g>
			</g>
			<g>
				<g>
					<g>
						<rect x="101.21" y="93.13" class="st5" width="27.46" height="30"/>
					</g>
					<rect x="121.55" y="107.07" class="st6" width="5.1" height="3"/>
					<rect x="112.41" y="107.07" class="st6" width="5.1" height="3"/>
					<rect x="103.29" y="107.07" class="st6" width="5.1" height="3"/>
				</g>
			</g>
			<g>
				<g>
					<g>
						<rect x="128.67" y="93.13" class="st5" width="27.46" height="30"/>
					</g>
					<rect x="149.01" y="107.07" class="st6" width="5.1" height="3"/>
					<rect x="139.87" y="107.07" class="st6" width="5.1" height="3"/>
					<rect x="130.75" y="107.07" class="st6" width="5.1" height="3"/>
				</g>
			</g>
			<g>
				<g>
					<g>
						<rect x="156.13" y="93.13" class="st5" width="27.46" height="30"/>
					</g>
					<rect x="176.47" y="107.07" class="st6" width="5.1" height="3"/>
					<rect x="167.33" y="107.07" class="st6" width="5.1" height="3"/>
					<rect x="158.22" y="107.07" class="st6" width="5.1" height="3"/>
				</g>
			</g>
			<g>
				<g>
					<g>
						<rect x="183.6" y="93.13" class="st5" width="27.46" height="30"/>
					</g>
					<rect x="203.93" y="107.07" class="st6" width="5.1" height="3"/>
					<rect x="194.79" y="107.07" class="st6" width="5.1" height="3"/>
					<rect x="185.68" y="107.07" class="st6" width="5.1" height="3"/>
				</g>
			</g>
			<g>
				<g>
					<g>
						<rect x="211.06" y="93.13" class="st5" width="27.46" height="30"/>
					</g>
					<rect x="231.39" y="107.07" class="st6" width="5.1" height="3"/>
					<rect x="222.25" y="107.07" class="st6" width="5.1" height="3"/>
					<rect x="213.14" y="107.07" class="st6" width="5.1" height="3"/>
				</g>
			</g>
			<g>
				<g>
					<g>
						<rect x="238.52" y="93.13" class="st5" width="27.46" height="30"/>
					</g>
					<rect x="258.85" y="107.07" class="st6" width="5.1" height="3"/>
					<rect x="249.71" y="107.07" class="st6" width="5.1" height="3"/>
					<rect x="240.6" y="107.07" class="st6" width="5.1" height="3"/>
				</g>
			</g>
			<g>
				<g>
					<g>
						<rect x="265.98" y="93.13" class="st5" width="27.46" height="30"/>
					</g>
					<rect x="286.31" y="107.07" class="st6" width="5.1" height="3"/>
					<rect x="277.17" y="107.07" class="st6" width="5.1" height="3"/>
					<rect x="268.06" y="107.07" class="st6" width="5.1" height="3"/>
				</g>
			</g>
			<g>
				<g>
					<g>
						<rect x="293.44" y="93.13" class="st5" width="27.46" height="30"/>
					</g>
					<rect x="313.77" y="107.07" class="st6" width="5.1" height="3"/>
					<rect x="304.63" y="107.07" class="st6" width="5.1" height="3"/>
					<rect x="295.52" y="107.07" class="st6" width="5.1" height="3"/>
				</g>
			</g>
			<g>
				<g>
					<g>
						<rect x="320.9" y="93.13" class="st5" width="27.46" height="30"/>
					</g>
					<rect x="341.24" y="107.07" class="st6" width="5.1" height="3"/>
					<rect x="332.09" y="107.07" class="st6" width="5.1" height="3"/>
					<rect x="322.98" y="107.07" class="st6" width="5.1" height="3"/>
				</g>
			</g>
			<g>
				<g>
					<g>
						<rect x="348.36" y="93.13" class="st5" width="27.46" height="30"/>
					</g>
					<rect x="368.7" y="107.07" class="st6" width="5.1" height="3"/>
					<rect x="359.55" y="107.07" class="st6" width="5.1" height="3"/>
					<rect x="350.44" y="107.07" class="st6" width="5.1" height="3"/>
				</g>
			</g>
			<g>
				<g>
					<g>
						<rect x="375.82" y="93.13" class="st5" width="27.46" height="30"/>
					</g>
					<rect x="396.16" y="107.07" class="st6" width="5.1" height="3"/>
					<rect x="387.02" y="107.07" class="st6" width="5.1" height="3"/>
					<rect x="377.9" y="107.07" class="st6" width="5.1" height="3"/>
				</g>
			</g>
			<g>
				<g>
					<g>
						<rect x="403.28" y="93.13" class="st5" width="27.46" height="30"/>
					</g>
					<rect x="423.62" y="107.07" class="st6" width="5.1" height="3"/>
					<rect x="414.48" y="107.07" class="st6" width="5.1" height="3"/>
					<rect x="405.36" y="107.07" class="st6" width="5.1" height="3"/>
				</g>
			</g>
		</g>
	</g>
</g>
<g>
	<g>
		<g>
			<g>
				<g>
					<g>
						<rect x="18.83" y="158.83" class="st5" width="27.46" height="30"/>
					</g>
					<rect x="39.16" y="172.77" class="st6" width="5.1" height="3"/>
					<rect x="30.02" y="172.77" class="st6" width="5.1" height="3"/>
					<rect x="20.91" y="172.77" class="st6" width="5.1" height="3"/>
				</g>
			</g>
			<g>
				<g>
					<g>
						<rect x="46.29" y="158.83" class="st5" width="27.46" height="30"/>
					</g>
					<rect x="66.63" y="172.77" class="st6" width="5.1" height="3"/>
					<rect x="57.48" y="172.77" class="st6" width="5.1" height="3"/>
					<rect x="48.37" y="172.77" class="st6" width="5.1" height="3"/>
				</g>
			</g>
			<g>
				<g>
					<g>
						<rect x="73.75" y="158.83" class="st5" width="27.46" height="30"/>
					</g>
					<rect x="94.09" y="172.77" class="st6" width="5.1" height="3"/>
					<rect x="84.94" y="172.77" class="st6" width="5.1" height="3"/>
					<rect x="75.83" y="172.77" class="st6" width="5.1" height="3"/>
				</g>
			</g>
			<g>
				<g>
					<g>
						<rect x="101.21" y="158.83" class="st5" width="27.46" height="30"/>
					</g>
					<rect x="121.55" y="172.77" class="st6" width="5.1" height="3"/>
					<rect x="112.41" y="172.77" class="st6" width="5.1" height="3"/>
					<rect x="103.29" y="172.77" class="st6" width="5.1" height="3"/>
				</g>
			</g>
			<g>
				<g>
					<g>
						<rect x="128.67" y="158.83" class="st5" width="27.46" height="30"/>
					</g>
					<rect x="149.01" y="172.77" class="st6" width="5.1" height="3"/>
					<rect x="139.87" y="172.77" class="st6" width="5.1" height="3"/>
					<rect x="130.75" y="172.77" class="st6" width="5.1" height="3"/>
				</g>
			</g>
			<g>
				<g>
					<g>
						<rect x="156.13" y="158.83" class="st5" width="27.46" height="30"/>
					</g>
					<rect x="176.47" y="172.77" class="st6" width="5.1" height="3"/>
					<rect x="167.33" y="172.77" class="st6" width="5.1" height="3"/>
					<rect x="158.22" y="172.77" class="st6" width="5.1" height="3"/>
				</g>
			</g>
			<g>
				<g>
					<g>
						<rect x="183.6" y="158.83" class="st5" width="27.46" height="30"/>
					</g>
					<rect x="203.93" y="172.77" class="st6" width="5.1" height="3"/>
					<rect x="194.79" y="172.77" class="st6" width="5.1" height="3"/>
					<rect x="185.68" y="172.77" class="st6" width="5.1" height="3"/>
				</g>
			</g>
			<g>
				<g>
					<g>
						<rect x="211.06" y="158.83" class="st5" width="27.46" height="30"/>
					</g>
					<rect x="231.39" y="172.77" class="st6" width="5.1" height="3"/>
					<rect x="222.25" y="172.77" class="st6" width="5.1" height="3"/>
					<rect x="213.14" y="172.77" class="st6" width="5.1" height="3"/>
				</g>
			</g>
			<g>
				<g>
					<g>
						<rect x="238.52" y="158.83" class="st5" width="27.46" height="30"/>
					</g>
					<rect x="258.85" y="172.77" class="st6" width="5.1" height="3"/>
					<rect x="249.71" y="172.77" class="st6" width="5.1" height="3"/>
					<rect x="240.6" y="172.77" class="st6" width="5.1" height="3"/>
				</g>
			</g>
			<g>
				<g>
					<g>
						<rect x="265.98" y="158.83" class="st5" width="27.46" height="30"/>
					</g>
					<rect x="286.31" y="172.77" class="st6" width="5.1" height="3"/>
					<rect x="277.17" y="172.77" class="st6" width="5.1" height="3"/>
					<rect x="268.06" y="172.77" class="st6" width="5.1" height="3"/>
				</g>
			</g>
			<g>
				<g>
					<g>
						<rect x="293.44" y="158.83" class="st5" width="27.46" height="30"/>
					</g>
					<rect x="313.77" y="172.77" class="st6" width="5.1" height="3"/>
					<rect x="304.63" y="172.77" class="st6" width="5.1" height="3"/>
					<rect x="295.52" y="172.77" class="st6" width="5.1" height="3"/>
				</g>
			</g>
			<g>
				<g>
					<g>
						<rect x="320.9" y="158.83" class="st5" width="27.46" height="30"/>
					</g>
					<rect x="341.24" y="172.77" class="st6" width="5.1" height="3"/>
					<rect x="332.09" y="172.77" class="st6" width="5.1" height="3"/>
					<rect x="322.98" y="172.77" class="st6" width="5.1" height="3"/>
				</g>
			</g>
			<g>
				<g>
					<g>
						<rect x="348.36" y="158.83" class="st5" width="27.46" height="30"/>
					</g>
					<rect x="368.7" y="172.77" class="st6" width="5.1" height="3"/>
					<rect x="359.55" y="172.77" class="st6" width="5.1" height="3"/>
					<rect x="350.44" y="172.77" class="st6" width="5.1" height="3"/>
				</g>
			</g>
			<g>
				<g>
					<g>
						<rect x="375.82" y="158.83" class="st5" width="27.46" height="30"/>
					</g>
					<rect x="396.16" y="172.77" class="st6" width="5.1" height="3"/>
					<rect x="387.02" y="172.77" class="st6" width="5.1" height="3"/>
					<rect x="377.9" y="172.77" class="st6" width="5.1" height="3"/>
				</g>
			</g>
			<g>
				<g>
					<g>
						<rect x="403.28" y="158.83" class="st5" width="27.46" height="30"/>
					</g>
					<rect x="423.62" y="172.77" class="st6" width="5.1" height="3"/>
					<rect x="414.48" y="172.77" class="st6" width="5.1" height="3"/>
					<rect x="405.36" y="172.77" class="st6" width="5.1" height="3"/>
				</g>
			</g>
		</g>
	</g>
</g>
<g>
	<line class="st7" x1="78.57" y1="234.24" x2="78.57" y2="160.04"/>
	<line class="st7" x1="134.74" y1="160.04" x2="134.74" y2="234.24"/>
	<line class="st7" x1="78.57" y1="160.04" x2="134.74" y2="160.04"/>
</g>
<g>
	<line class="st8" x1="356.13" y1="234.24" x2="356.13" y2="160.04"/>
	<line class="st8" x1="299.96" y1="160.04" x2="299.96" y2="234.24"/>
	<line class="st8" x1="356.13" y1="160.04" x2="299.96" y2="160.04"/>
</g>
<line class="st9" x1="35.09" y1="27.94" x2="35.09" y2="239.55"/>
<line class="st9" x1="418.21" y1="234.24" x2="30.79" y2="234.24"/>
</svg>
