<?xml version="1.0" encoding="utf-8"?>
<!-- Generator: Adobe Illustrator 26.5.0, SVG Export Plug-In . SVG Version: 6.00 Build 0)  -->
<svg version="1.0" id="Layer_1" xmlns="http://www.w3.org/2000/svg" xmlns:xlink="http://www.w3.org/1999/xlink" x="0px" y="0px"
	 viewBox="0 0 500 330" style="enable-background:new 0 0 500 330;" xml:space="preserve">
<style type="text/css">
	.st0{fill:none;stroke:#000000;stroke-width:2;stroke-linecap:round;stroke-miterlimit:10;}
	.st1{fill:none;stroke:#ED1C24;stroke-linecap:round;stroke-miterlimit:10;}
	.st2{fill:none;stroke:#662D91;stroke-linecap:round;stroke-miterlimit:10;}
	.st3{fill:none;stroke:#2E3192;stroke-linecap:round;stroke-miterlimit:10;}
	.st4{fill:none;stroke:#27AAE1;stroke-linecap:round;stroke-miterlimit:10;}
	.st5{fill:none;stroke:#262262;stroke-linecap:round;stroke-miterlimit:10;}
	.st6{fill:none;stroke:#006838;stroke-linecap:round;stroke-miterlimit:10;}
	.st7{fill:none;stroke:#DA1C5C;stroke-linecap:round;stroke-miterlimit:10;}
	.st8{fill:none;}
	.st9{fill-rule:evenodd;clip-rule:evenodd;}
</style>
<line class="st0" x1="35.09" y1="27.94" x2="35.09" y2="239.55"/>
<line class="st0" x1="418.21" y1="234.24" x2="30.79" y2="234.24"/>
<g>
	<line class="st1" x1="78.57" y1="234.24" x2="78.57" y2="160.04"/>
	<line class="st1" x1="134.74" y1="160.04" x2="134.74" y2="234.24"/>
	<line class="st1" x1="78.57" y1="160.04" x2="134.74" y2="160.04"/>
</g>
<g>
	<line class="st2" x1="106.66" y1="160.04" x2="106.66" y2="85.84"/>
	<line class="st2" x1="179.04" y1="85.84" x2="179.04" y2="183.02"/>
	<line class="st2" x1="106.66" y1="85.84" x2="179.04" y2="85.84"/>
</g>
<g>
	<line class="st3" x1="150.96" y1="234.24" x2="150.96" y2="183.02"/>
	<line class="st3" x1="207.13" y1="183.02" x2="207.13" y2="234.24"/>
	<line class="st3" x1="150.96" y1="183.02" x2="207.13" y2="183.02"/>
</g>
<g>
	<line class="st4" x1="140.06" y1="85.84" x2="140.06" y2="34.62"/>
	<line class="st4" x1="295.6" y1="34.62" x2="295.6" y2="85.84"/>
	<line class="st4" x1="140.06" y1="34.62" x2="295.6" y2="34.62"/>
</g>
<g>
	<line class="st5" x1="356.13" y1="234.24" x2="356.13" y2="160.04"/>
	<line class="st5" x1="299.96" y1="160.04" x2="299.96" y2="234.24"/>
	<line class="st5" x1="356.13" y1="160.04" x2="299.96" y2="160.04"/>
</g>
<g>
	<line class="st6" x1="328.04" y1="160.04" x2="328.04" y2="85.84"/>
	<line class="st6" x1="255.66" y1="85.84" x2="255.66" y2="134.43"/>
	<line class="st6" x1="328.04" y1="85.84" x2="255.66" y2="85.84"/>
</g>
<g>
	<line class="st7" x1="283.74" y1="234.24" x2="283.74" y2="133.74"/>
	<line class="st7" x1="227.57" y1="133.74" x2="227.57" y2="234.24"/>
	<line class="st7" x1="283.74" y1="133.74" x2="227.57" y2="133.74"/>
</g>
<g>
	<g>
		<g>
			<g>
				<g>
					<g>
						<rect x="18.83" y="100.63" class="st8" width="13.29" height="15"/>
					</g>
					<rect x="28.67" y="107.6" class="st9" width="2.47" height="1.5"/>
					<rect x="24.25" y="107.6" class="st9" width="2.47" height="1.5"/>
					<rect x="19.84" y="107.6" class="st9" width="2.47" height="1.5"/>
				</g>
			</g>
			<g>
				<g>
					<g>
						<rect x="32.12" y="100.63" class="st8" width="13.29" height="15"/>
					</g>
					<rect x="41.96" y="107.6" class="st9" width="2.47" height="1.5"/>
					<rect x="37.53" y="107.6" class="st9" width="2.47" height="1.5"/>
					<rect x="33.12" y="107.6" class="st9" width="2.47" height="1.5"/>
				</g>
			</g>
			<g>
				<g>
					<g>
						<rect x="45.4" y="100.63" class="st8" width="13.29" height="15"/>
					</g>
					<rect x="55.24" y="107.6" class="st9" width="2.47" height="1.5"/>
					<rect x="50.82" y="107.6" class="st9" width="2.47" height="1.5"/>
					<rect x="46.41" y="107.6" class="st9" width="2.47" height="1.5"/>
				</g>
			</g>
			<g>
				<g>
					<g>
						<rect x="58.69" y="100.63" class="st8" width="13.29" height="15"/>
					</g>
					<rect x="68.53" y="107.6" class="st9" width="2.47" height="1.5"/>
					<rect x="64.11" y="107.6" class="st9" width="2.47" height="1.5"/>
					<rect x="59.7" y="107.6" class="st9" width="2.47" height="1.5"/>
				</g>
			</g>
			<g>
				<g>
					<g>
						<rect x="71.98" y="100.63" class="st8" width="13.29" height="15"/>
					</g>
					<rect x="81.82" y="107.6" class="st9" width="2.47" height="1.5"/>
					<rect x="77.4" y="107.6" class="st9" width="2.47" height="1.5"/>
					<rect x="72.99" y="107.6" class="st9" width="2.47" height="1.5"/>
				</g>
			</g>
			<g>
				<g>
					<g>
						<rect x="85.27" y="100.63" class="st8" width="13.29" height="15"/>
					</g>
					<rect x="95.11" y="107.6" class="st9" width="2.47" height="1.5"/>
					<rect x="90.68" y="107.6" class="st9" width="2.47" height="1.5"/>
					<rect x="86.27" y="107.6" class="st9" width="2.47" height="1.5"/>
				</g>
			</g>
			<g>
				<g>
					<g>
						<rect x="98.56" y="100.63" class="st8" width="13.29" height="15"/>
					</g>
					<rect x="108.39" y="107.6" class="st9" width="2.47" height="1.5"/>
					<rect x="103.97" y="107.6" class="st9" width="2.47" height="1.5"/>
					<rect x="99.56" y="107.6" class="st9" width="2.47" height="1.5"/>
				</g>
			</g>
			<g>
				<g>
					<g>
						<rect x="111.84" y="100.63" class="st8" width="13.29" height="15"/>
					</g>
					<rect x="121.68" y="107.6" class="st9" width="2.47" height="1.5"/>
					<rect x="117.26" y="107.6" class="st9" width="2.47" height="1.5"/>
					<rect x="112.85" y="107.6" class="st9" width="2.47" height="1.5"/>
				</g>
			</g>
			<g>
				<g>
					<g>
						<rect x="125.13" y="100.63" class="st8" width="13.29" height="15"/>
					</g>
					<rect x="134.97" y="107.6" class="st9" width="2.47" height="1.5"/>
					<rect x="130.55" y="107.6" class="st9" width="2.47" height="1.5"/>
					<rect x="126.14" y="107.6" class="st9" width="2.47" height="1.5"/>
				</g>
			</g>
			<g>
				<g>
					<g>
						<rect x="138.42" y="100.63" class="st8" width="13.29" height="15"/>
					</g>
					<rect x="148.26" y="107.6" class="st9" width="2.47" height="1.5"/>
					<rect x="143.83" y="107.6" class="st9" width="2.47" height="1.5"/>
					<rect x="139.42" y="107.6" class="st9" width="2.47" height="1.5"/>
				</g>
			</g>
			<g>
				<g>
					<g>
						<rect x="151.71" y="100.63" class="st8" width="13.29" height="15"/>
					</g>
					<rect x="161.55" y="107.6" class="st9" width="2.47" height="1.5"/>
					<rect x="157.12" y="107.6" class="st9" width="2.47" height="1.5"/>
					<rect x="152.71" y="107.6" class="st9" width="2.47" height="1.5"/>
				</g>
			</g>
			<g>
				<g>
					<g>
						<rect x="164.99" y="100.63" class="st8" width="13.29" height="15"/>
					</g>
					<rect x="174.83" y="107.6" class="st9" width="2.47" height="1.5"/>
					<rect x="170.41" y="107.6" class="st9" width="2.47" height="1.5"/>
					<rect x="166" y="107.6" class="st9" width="2.47" height="1.5"/>
				</g>
			</g>
			<g>
				<g>
					<g>
						<rect x="178.28" y="100.63" class="st8" width="13.29" height="15"/>
					</g>
					<rect x="188.12" y="107.6" class="st9" width="2.47" height="1.5"/>
					<rect x="183.7" y="107.6" class="st9" width="2.47" height="1.5"/>
					<rect x="179.29" y="107.6" class="st9" width="2.47" height="1.5"/>
				</g>
			</g>
			<g>
				<g>
					<g>
						<rect x="191.57" y="100.63" class="st8" width="13.29" height="15"/>
					</g>
					<rect x="201.41" y="107.6" class="st9" width="2.47" height="1.5"/>
					<rect x="196.98" y="107.6" class="st9" width="2.47" height="1.5"/>
					<rect x="192.58" y="107.6" class="st9" width="2.47" height="1.5"/>
				</g>
			</g>
			<g>
				<g>
					<g>
						<rect x="204.86" y="100.63" class="st8" width="13.29" height="15"/>
					</g>
					<rect x="214.7" y="107.6" class="st9" width="2.47" height="1.5"/>
					<rect x="210.27" y="107.6" class="st9" width="2.47" height="1.5"/>
					<rect x="205.86" y="107.6" class="st9" width="2.47" height="1.5"/>
				</g>
			</g>
			<g>
				<g>
					<g>
						<rect x="218.14" y="100.63" class="st8" width="13.29" height="15"/>
					</g>
					<rect x="227.98" y="107.6" class="st9" width="2.47" height="1.5"/>
					<rect x="223.56" y="107.6" class="st9" width="2.47" height="1.5"/>
					<rect x="219.15" y="107.6" class="st9" width="2.47" height="1.5"/>
				</g>
			</g>
			<g>
				<g>
					<g>
						<rect x="231.43" y="100.63" class="st8" width="13.29" height="15"/>
					</g>
					<rect x="241.27" y="107.6" class="st9" width="2.47" height="1.5"/>
					<rect x="236.85" y="107.6" class="st9" width="2.47" height="1.5"/>
					<rect x="232.44" y="107.6" class="st9" width="2.47" height="1.5"/>
				</g>
			</g>
			<g>
				<g>
					<g>
						<rect x="244.72" y="100.63" class="st8" width="13.29" height="15"/>
					</g>
					<rect x="254.56" y="107.6" class="st9" width="2.47" height="1.5"/>
					<rect x="250.13" y="107.6" class="st9" width="2.47" height="1.5"/>
					<rect x="245.73" y="107.6" class="st9" width="2.47" height="1.5"/>
				</g>
			</g>
			<g>
				<g>
					<g>
						<rect x="258.01" y="100.63" class="st8" width="13.29" height="15"/>
					</g>
					<rect x="267.85" y="107.6" class="st9" width="2.47" height="1.5"/>
					<rect x="263.42" y="107.6" class="st9" width="2.47" height="1.5"/>
					<rect x="259.01" y="107.6" class="st9" width="2.47" height="1.5"/>
				</g>
			</g>
			<g>
				<g>
					<g>
						<rect x="271.29" y="100.63" class="st8" width="13.29" height="15"/>
					</g>
					<rect x="281.13" y="107.6" class="st9" width="2.47" height="1.5"/>
					<rect x="276.71" y="107.6" class="st9" width="2.47" height="1.5"/>
					<rect x="272.3" y="107.6" class="st9" width="2.47" height="1.5"/>
				</g>
			</g>
			<g>
				<g>
					<g>
						<rect x="284.58" y="100.63" class="st8" width="13.29" height="15"/>
					</g>
					<rect x="294.42" y="107.6" class="st9" width="2.47" height="1.5"/>
					<rect x="290" y="107.6" class="st9" width="2.47" height="1.5"/>
					<rect x="285.59" y="107.6" class="st9" width="2.47" height="1.5"/>
				</g>
			</g>
			<g>
				<g>
					<g>
						<rect x="297.87" y="100.63" class="st8" width="13.29" height="15"/>
					</g>
					<rect x="307.71" y="107.6" class="st9" width="2.47" height="1.5"/>
					<rect x="303.28" y="107.6" class="st9" width="2.47" height="1.5"/>
					<rect x="298.88" y="107.6" class="st9" width="2.47" height="1.5"/>
				</g>
			</g>
			<g>
				<g>
					<g>
						<rect x="311.16" y="100.63" class="st8" width="13.29" height="15"/>
					</g>
					<rect x="321" y="107.6" class="st9" width="2.47" height="1.5"/>
					<rect x="316.57" y="107.6" class="st9" width="2.47" height="1.5"/>
					<rect x="312.16" y="107.6" class="st9" width="2.47" height="1.5"/>
				</g>
			</g>
			<g>
				<g>
					<g>
						<rect x="324.44" y="100.63" class="st8" width="13.29" height="15"/>
					</g>
					<rect x="334.28" y="107.6" class="st9" width="2.47" height="1.5"/>
					<rect x="329.86" y="107.6" class="st9" width="2.47" height="1.5"/>
					<rect x="325.45" y="107.6" class="st9" width="2.47" height="1.5"/>
				</g>
			</g>
			<g>
				<g>
					<g>
						<rect x="337.73" y="100.63" class="st8" width="13.29" height="15"/>
					</g>
					<rect x="347.57" y="107.6" class="st9" width="2.47" height="1.5"/>
					<rect x="343.15" y="107.6" class="st9" width="2.47" height="1.5"/>
					<rect x="338.74" y="107.6" class="st9" width="2.47" height="1.5"/>
				</g>
			</g>
			<g>
				<g>
					<g>
						<rect x="351.02" y="100.63" class="st8" width="13.29" height="15"/>
					</g>
					<rect x="360.86" y="107.6" class="st9" width="2.47" height="1.5"/>
					<rect x="356.44" y="107.6" class="st9" width="2.47" height="1.5"/>
					<rect x="352.03" y="107.6" class="st9" width="2.47" height="1.5"/>
				</g>
			</g>
			<g>
				<g>
					<g>
						<rect x="364.31" y="100.63" class="st8" width="13.29" height="15"/>
					</g>
					<rect x="374.15" y="107.6" class="st9" width="2.47" height="1.5"/>
					<rect x="369.72" y="107.6" class="st9" width="2.47" height="1.5"/>
					<rect x="365.31" y="107.6" class="st9" width="2.47" height="1.5"/>
				</g>
			</g>
			<g>
				<g>
					<g>
						<rect x="377.59" y="100.63" class="st8" width="13.29" height="15"/>
					</g>
					<rect x="387.43" y="107.6" class="st9" width="2.47" height="1.5"/>
					<rect x="383.01" y="107.6" class="st9" width="2.47" height="1.5"/>
					<rect x="378.6" y="107.6" class="st9" width="2.47" height="1.5"/>
				</g>
			</g>
			<g>
				<g>
					<g>
						<rect x="390.88" y="100.63" class="st8" width="13.29" height="15"/>
					</g>
					<rect x="400.72" y="107.6" class="st9" width="2.47" height="1.5"/>
					<rect x="396.3" y="107.6" class="st9" width="2.47" height="1.5"/>
					<rect x="391.89" y="107.6" class="st9" width="2.47" height="1.5"/>
				</g>
			</g>
			<g>
				<g>
					<g>
						<rect x="404.17" y="100.63" class="st8" width="13.29" height="15"/>
					</g>
					<rect x="414.01" y="107.6" class="st9" width="2.47" height="1.5"/>
					<rect x="409.59" y="107.6" class="st9" width="2.47" height="1.5"/>
					<rect x="405.18" y="107.6" class="st9" width="2.47" height="1.5"/>
				</g>
			</g>
			<g>
				<g>
					<g>
						<rect x="417.46" y="100.63" class="st8" width="13.29" height="15"/>
					</g>
					<rect x="427.3" y="107.6" class="st9" width="2.47" height="1.5"/>
					<rect x="422.87" y="107.6" class="st9" width="2.47" height="1.5"/>
					<rect x="418.46" y="107.6" class="st9" width="2.47" height="1.5"/>
				</g>
			</g>
		</g>
	</g>
</g>
<g>
	<g>
		<g>
			<g>
				<g>
					<g>
						<rect x="18.83" y="166.33" class="st8" width="13.29" height="15"/>
					</g>
					<rect x="28.67" y="173.3" class="st9" width="2.47" height="1.5"/>
					<rect x="24.25" y="173.3" class="st9" width="2.47" height="1.5"/>
					<rect x="19.84" y="173.3" class="st9" width="2.47" height="1.5"/>
				</g>
			</g>
			<g>
				<g>
					<g>
						<rect x="32.12" y="166.33" class="st8" width="13.29" height="15"/>
					</g>
					<rect x="41.96" y="173.3" class="st9" width="2.47" height="1.5"/>
					<rect x="37.53" y="173.3" class="st9" width="2.47" height="1.5"/>
					<rect x="33.12" y="173.3" class="st9" width="2.47" height="1.5"/>
				</g>
			</g>
			<g>
				<g>
					<g>
						<rect x="45.4" y="166.33" class="st8" width="13.29" height="15"/>
					</g>
					<rect x="55.24" y="173.3" class="st9" width="2.47" height="1.5"/>
					<rect x="50.82" y="173.3" class="st9" width="2.47" height="1.5"/>
					<rect x="46.41" y="173.3" class="st9" width="2.47" height="1.5"/>
				</g>
			</g>
			<g>
				<g>
					<g>
						<rect x="58.69" y="166.33" class="st8" width="13.29" height="15"/>
					</g>
					<rect x="68.53" y="173.3" class="st9" width="2.47" height="1.5"/>
					<rect x="64.11" y="173.3" class="st9" width="2.47" height="1.5"/>
					<rect x="59.7" y="173.3" class="st9" width="2.47" height="1.5"/>
				</g>
			</g>
			<g>
				<g>
					<g>
						<rect x="71.98" y="166.33" class="st8" width="13.29" height="15"/>
					</g>
					<rect x="81.82" y="173.3" class="st9" width="2.47" height="1.5"/>
					<rect x="77.4" y="173.3" class="st9" width="2.47" height="1.5"/>
					<rect x="72.99" y="173.3" class="st9" width="2.47" height="1.5"/>
				</g>
			</g>
			<g>
				<g>
					<g>
						<rect x="85.27" y="166.33" class="st8" width="13.29" height="15"/>
					</g>
					<rect x="95.11" y="173.3" class="st9" width="2.47" height="1.5"/>
					<rect x="90.68" y="173.3" class="st9" width="2.47" height="1.5"/>
					<rect x="86.27" y="173.3" class="st9" width="2.47" height="1.5"/>
				</g>
			</g>
			<g>
				<g>
					<g>
						<rect x="98.56" y="166.33" class="st8" width="13.29" height="15"/>
					</g>
					<rect x="108.39" y="173.3" class="st9" width="2.47" height="1.5"/>
					<rect x="103.97" y="173.3" class="st9" width="2.47" height="1.5"/>
					<rect x="99.56" y="173.3" class="st9" width="2.47" height="1.5"/>
				</g>
			</g>
			<g>
				<g>
					<g>
						<rect x="111.84" y="166.33" class="st8" width="13.29" height="15"/>
					</g>
					<rect x="121.68" y="173.3" class="st9" width="2.47" height="1.5"/>
					<rect x="117.26" y="173.3" class="st9" width="2.47" height="1.5"/>
					<rect x="112.85" y="173.3" class="st9" width="2.47" height="1.5"/>
				</g>
			</g>
			<g>
				<g>
					<g>
						<rect x="125.13" y="166.33" class="st8" width="13.29" height="15"/>
					</g>
					<rect x="134.97" y="173.3" class="st9" width="2.47" height="1.5"/>
					<rect x="130.55" y="173.3" class="st9" width="2.47" height="1.5"/>
					<rect x="126.14" y="173.3" class="st9" width="2.47" height="1.5"/>
				</g>
			</g>
			<g>
				<g>
					<g>
						<rect x="138.42" y="166.33" class="st8" width="13.29" height="15"/>
					</g>
					<rect x="148.26" y="173.3" class="st9" width="2.47" height="1.5"/>
					<rect x="143.83" y="173.3" class="st9" width="2.47" height="1.5"/>
					<rect x="139.42" y="173.3" class="st9" width="2.47" height="1.5"/>
				</g>
			</g>
			<g>
				<g>
					<g>
						<rect x="151.71" y="166.33" class="st8" width="13.29" height="15"/>
					</g>
					<rect x="161.55" y="173.3" class="st9" width="2.47" height="1.5"/>
					<rect x="157.12" y="173.3" class="st9" width="2.47" height="1.5"/>
					<rect x="152.71" y="173.3" class="st9" width="2.47" height="1.5"/>
				</g>
			</g>
			<g>
				<g>
					<g>
						<rect x="164.99" y="166.33" class="st8" width="13.29" height="15"/>
					</g>
					<rect x="174.83" y="173.3" class="st9" width="2.47" height="1.5"/>
					<rect x="170.41" y="173.3" class="st9" width="2.47" height="1.5"/>
					<rect x="166" y="173.3" class="st9" width="2.47" height="1.5"/>
				</g>
			</g>
			<g>
				<g>
					<g>
						<rect x="178.28" y="166.33" class="st8" width="13.29" height="15"/>
					</g>
					<rect x="188.12" y="173.3" class="st9" width="2.47" height="1.5"/>
					<rect x="183.7" y="173.3" class="st9" width="2.47" height="1.5"/>
					<rect x="179.29" y="173.3" class="st9" width="2.47" height="1.5"/>
				</g>
			</g>
			<g>
				<g>
					<g>
						<rect x="191.57" y="166.33" class="st8" width="13.29" height="15"/>
					</g>
					<rect x="201.41" y="173.3" class="st9" width="2.47" height="1.5"/>
					<rect x="196.98" y="173.3" class="st9" width="2.47" height="1.5"/>
					<rect x="192.58" y="173.3" class="st9" width="2.47" height="1.5"/>
				</g>
			</g>
			<g>
				<g>
					<g>
						<rect x="204.86" y="166.33" class="st8" width="13.29" height="15"/>
					</g>
					<rect x="214.7" y="173.3" class="st9" width="2.47" height="1.5"/>
					<rect x="210.27" y="173.3" class="st9" width="2.47" height="1.5"/>
					<rect x="205.86" y="173.3" class="st9" width="2.47" height="1.5"/>
				</g>
			</g>
			<g>
				<g>
					<g>
						<rect x="218.14" y="166.33" class="st8" width="13.29" height="15"/>
					</g>
					<rect x="227.98" y="173.3" class="st9" width="2.47" height="1.5"/>
					<rect x="223.56" y="173.3" class="st9" width="2.47" height="1.5"/>
					<rect x="219.15" y="173.3" class="st9" width="2.47" height="1.5"/>
				</g>
			</g>
			<g>
				<g>
					<g>
						<rect x="231.43" y="166.33" class="st8" width="13.29" height="15"/>
					</g>
					<rect x="241.27" y="173.3" class="st9" width="2.47" height="1.5"/>
					<rect x="236.85" y="173.3" class="st9" width="2.47" height="1.5"/>
					<rect x="232.44" y="173.3" class="st9" width="2.47" height="1.5"/>
				</g>
			</g>
			<g>
				<g>
					<g>
						<rect x="244.72" y="166.33" class="st8" width="13.29" height="15"/>
					</g>
					<rect x="254.56" y="173.3" class="st9" width="2.47" height="1.5"/>
					<rect x="250.13" y="173.3" class="st9" width="2.47" height="1.5"/>
					<rect x="245.73" y="173.3" class="st9" width="2.47" height="1.5"/>
				</g>
			</g>
			<g>
				<g>
					<g>
						<rect x="258.01" y="166.33" class="st8" width="13.29" height="15"/>
					</g>
					<rect x="267.85" y="173.3" class="st9" width="2.47" height="1.5"/>
					<rect x="263.42" y="173.3" class="st9" width="2.47" height="1.5"/>
					<rect x="259.01" y="173.3" class="st9" width="2.47" height="1.5"/>
				</g>
			</g>
			<g>
				<g>
					<g>
						<rect x="271.29" y="166.33" class="st8" width="13.29" height="15"/>
					</g>
					<rect x="281.13" y="173.3" class="st9" width="2.47" height="1.5"/>
					<rect x="276.71" y="173.3" class="st9" width="2.47" height="1.5"/>
					<rect x="272.3" y="173.3" class="st9" width="2.47" height="1.5"/>
				</g>
			</g>
			<g>
				<g>
					<g>
						<rect x="284.58" y="166.33" class="st8" width="13.29" height="15"/>
					</g>
					<rect x="294.42" y="173.3" class="st9" width="2.47" height="1.5"/>
					<rect x="290" y="173.3" class="st9" width="2.47" height="1.5"/>
					<rect x="285.59" y="173.3" class="st9" width="2.47" height="1.5"/>
				</g>
			</g>
			<g>
				<g>
					<g>
						<rect x="297.87" y="166.33" class="st8" width="13.29" height="15"/>
					</g>
					<rect x="307.71" y="173.3" class="st9" width="2.47" height="1.5"/>
					<rect x="303.28" y="173.3" class="st9" width="2.47" height="1.5"/>
					<rect x="298.88" y="173.3" class="st9" width="2.47" height="1.5"/>
				</g>
			</g>
			<g>
				<g>
					<g>
						<rect x="311.16" y="166.33" class="st8" width="13.29" height="15"/>
					</g>
					<rect x="321" y="173.3" class="st9" width="2.47" height="1.5"/>
					<rect x="316.57" y="173.3" class="st9" width="2.47" height="1.5"/>
					<rect x="312.16" y="173.3" class="st9" width="2.47" height="1.5"/>
				</g>
			</g>
			<g>
				<g>
					<g>
						<rect x="324.44" y="166.33" class="st8" width="13.29" height="15"/>
					</g>
					<rect x="334.28" y="173.3" class="st9" width="2.47" height="1.5"/>
					<rect x="329.86" y="173.3" class="st9" width="2.47" height="1.5"/>
					<rect x="325.45" y="173.3" class="st9" width="2.47" height="1.5"/>
				</g>
			</g>
			<g>
				<g>
					<g>
						<rect x="337.73" y="166.33" class="st8" width="13.29" height="15"/>
					</g>
					<rect x="347.57" y="173.3" class="st9" width="2.47" height="1.5"/>
					<rect x="343.15" y="173.3" class="st9" width="2.47" height="1.5"/>
					<rect x="338.74" y="173.3" class="st9" width="2.47" height="1.5"/>
				</g>
			</g>
			<g>
				<g>
					<g>
						<rect x="351.02" y="166.33" class="st8" width="13.29" height="15"/>
					</g>
					<rect x="360.86" y="173.3" class="st9" width="2.47" height="1.5"/>
					<rect x="356.44" y="173.3" class="st9" width="2.47" height="1.5"/>
					<rect x="352.03" y="173.3" class="st9" width="2.47" height="1.5"/>
				</g>
			</g>
			<g>
				<g>
					<g>
						<rect x="364.31" y="166.33" class="st8" width="13.29" height="15"/>
					</g>
					<rect x="374.15" y="173.3" class="st9" width="2.47" height="1.5"/>
					<rect x="369.72" y="173.3" class="st9" width="2.47" height="1.5"/>
					<rect x="365.31" y="173.3" class="st9" width="2.47" height="1.5"/>
				</g>
			</g>
			<g>
				<g>
					<g>
						<rect x="377.59" y="166.33" class="st8" width="13.29" height="15"/>
					</g>
					<rect x="387.43" y="173.3" class="st9" width="2.47" height="1.5"/>
					<rect x="383.01" y="173.3" class="st9" width="2.47" height="1.5"/>
					<rect x="378.6" y="173.3" class="st9" width="2.47" height="1.5"/>
				</g>
			</g>
			<g>
				<g>
					<g>
						<rect x="390.88" y="166.33" class="st8" width="13.29" height="15"/>
					</g>
					<rect x="400.72" y="173.3" class="st9" width="2.47" height="1.5"/>
					<rect x="396.3" y="173.3" class="st9" width="2.47" height="1.5"/>
					<rect x="391.89" y="173.3" class="st9" width="2.47" height="1.5"/>
				</g>
			</g>
			<g>
				<g>
					<g>
						<rect x="404.17" y="166.33" class="st8" width="13.29" height="15"/>
					</g>
					<rect x="414.01" y="173.3" class="st9" width="2.47" height="1.5"/>
					<rect x="409.59" y="173.3" class="st9" width="2.47" height="1.5"/>
					<rect x="405.18" y="173.3" class="st9" width="2.47" height="1.5"/>
				</g>
			</g>
			<g>
				<g>
					<g>
						<rect x="417.46" y="166.33" class="st8" width="13.29" height="15"/>
					</g>
					<rect x="427.3" y="173.3" class="st9" width="2.47" height="1.5"/>
					<rect x="422.87" y="173.3" class="st9" width="2.47" height="1.5"/>
					<rect x="418.46" y="173.3" class="st9" width="2.47" height="1.5"/>
				</g>
			</g>
		</g>
	</g>
</g>
</svg>
