<?xml version="1.0" standalone="no"?>
<svg viewBox="0 0 200 200" xmlns="http://www.w3.org/2000/svg">
  <path fill="#B1A5FF" d="M35.3,-56.4C48.9,-53.2,65.3,-50.2,74.3,-40.8C83.4,-31.4,85.1,-15.7,85,-0.1C84.8,15.5,82.7,31.1,74.1,41.1C65.4,51.2,50.2,55.9,36.7,62.3C23.3,68.8,11.6,77.1,0.6,76C-10.4,75,-20.9,64.6,-33.4,57.6C-45.9,50.6,-60.4,46.9,-69.7,37.9C-78.9,28.8,-82.9,14.4,-80.7,1.3C-78.5,-11.9,-70.1,-23.7,-62.6,-35.8C-55.1,-48,-48.5,-60.3,-38.3,-65.4C-28,-70.5,-14,-68.2,-1.6,-65.5C10.8,-62.7,21.7,-59.5,35.3,-56.4Z" transform="translate(100 100)" />
</svg>
