<?xml version="1.0" standalone="no"?>
<svg viewBox="0 0 200 200" xmlns="http://www.w3.org/2000/svg">
  <path fill="#B1A5FF" d="M37,-63.6C48.6,-57.4,59,-48.7,67.7,-37.7C76.3,-26.7,83.3,-13.3,81.9,-0.8C80.6,11.7,70.8,23.5,61.7,33.9C52.6,44.2,44.3,53.3,34.1,60.5C24,67.7,12,73.2,-0.1,73.3C-12.1,73.4,-24.2,68.2,-33.3,60.3C-42.4,52.4,-48.4,41.9,-58.4,31.5C-68.3,21,-82.2,10.5,-85.7,-2C-89.2,-14.5,-82.4,-29.1,-73.5,-41.4C-64.6,-53.7,-53.6,-63.8,-41,-69.4C-28.5,-74.9,-14.2,-75.8,-0.8,-74.5C12.7,-73.2,25.5,-69.7,37,-63.6Z" transform="translate(100 100)" />
</svg>
