<?xml version="1.0" encoding="utf-8"?>
<!-- Generator: Adobe Illustrator 26.5.0, SVG Export Plug-In . SVG Version: 6.00 Build 0)  -->
<svg version="1.0" id="Layer_1" xmlns="http://www.w3.org/2000/svg" xmlns:xlink="http://www.w3.org/1999/xlink" x="0px" y="0px"
	 viewBox="0 0 500 330" style="enable-background:new 0 0 500 330;" xml:space="preserve">
<style type="text/css">
	.st0{fill:#AEAEAE;}
	.st1{fill:#DDA5CB;}
	.st2{fill:#FBD29F;}
	.st3{fill:#FED5A2;}
	.st4{fill:#FED6A2;}
	.st5{fill:#AFAFAF;}
	.st6{fill:#DCA4CA;}
	.st7{fill:#B1B0B0;}
	.st8{fill:#B05AA3;}
	.st9{fill:#BAB9B9;}
	.st10{fill:#F7CD9B;}
	.st11{fill:#ACABAB;}
	.st12{fill:#B3B2B2;}
	.st13{fill:#FBD3A1;}
	.st14{fill:#D9AC81;}
	.st15{fill:#BC75B1;}
	.st16{fill:#BD79B3;}
	.st17{fill:#E3A873;}
	.st18{fill:#DFA672;}
	.st19{fill:#DFA36E;}
	.st20{fill:#C78ABC;}
	.st21{fill:#B056A1;}
	.st22{fill:#F99E25;}
	.st23{fill:#F99E23;}
	.st24{fill:#BB72AF;}
	.st25{fill:#E4AB77;}
	.st26{fill:#AF55A1;}
	.st27{fill:#F89C22;}
</style>
<g>
	<path class="st0" d="M99.59,27.43c-9.02-14.13-18.05-28.26-27.07-42.4c0.9-0.58,1.81-1.16,2.71-1.73
		c9.07,14.08,18.14,28.16,27.21,42.24l-0.09,0.43c-0.8,0.52-1.6,1.03-2.39,1.55L99.59,27.43z"/>
	<path class="st1" d="M243.93,179.62c2.21-7.95,9.9-13.35,18.02-12.65c9.83,0.85,16.87,7.35,18.06,16.66
		c1.3,10.14-6.06,19.67-16.15,20.93c-10.66,1.33-20.05-5.8-21.35-16.2c-0.2-1.59-0.41-3.18-0.62-4.76c0.2-0.16,0.42-0.31,0.65-0.43
		c2.55,1.09,5.1,2.21,7.98,1.29c1.14,1.32,0.79,3.04,1.22,4.55c1.12,3.95,5.43,6.89,9.77,6.71c4.97-0.21,8.55-3.1,9.57-7.72
		c1.03-4.65-0.97-8.71-5.42-11.03c-3.87-2.01-9.01-1.17-11.67,1.93c-1.02,1.19-1.43,2.9-3.01,3.63
		C249.16,180.26,246.01,181.25,243.93,179.62z"/>
	<path class="st2" d="M262.11,48.38c5.15-8.72,9.96-11.35,17.44-9.54c6.51,1.58,11.27,8.26,10.81,15.18
		c-0.42,6.4-6.49,12.08-13.54,12.67c-6.61,0.55-12.86-4.14-14.46-10.86c-0.33-1.37-0.63-2.75-0.94-4.12
		C262.05,50.68,262.32,49.58,262.11,48.38z M282.4,48.62c-2.05-3.37-7-4.58-10.34-2.54c-3.43,2.1-4.5,6.75-2.38,10.32
		c2.15,3.64,6.53,4.66,10.21,2.4C283.6,56.52,284.64,52.3,282.4,48.62z"/>
	<path class="st3" d="M89.17,216.54c3.71,3.13,8.42,5.21,9.59,10.78c1.44,6.91-1.9,14.41-7.96,16.9
		c-6.89,2.83-13.73,0.74-17.71-5.39c-4.08-6.3-3.15-13.86,2.54-18.74c2.6-2.23,5.67-3.62,9.29-2.62c-0.11,1.88-0.21,3.75-0.32,5.63
		c-1.24,0.67-2.55,1.25-3.72,2.04c-3.47,2.37-4.4,6.85-2.21,10.25c2.16,3.36,6.62,4.07,10.31,1.63c5.08-3.36,4.53-8.3-1.48-13.33
		c0.9-2.07,1.84-4.14,0.96-6.48C88.67,216.95,88.91,216.74,89.17,216.54z"/>
	<path class="st1" d="M236.85,235.03c10.49-4.56,22.53,4.6,19.5,16.73c-1.41,5.67-5.01,9.38-10.74,10.47
		c-5.85,1.11-11.1-0.6-14.59-5.54c-3.4-4.81-4.06-10.14-0.87-15.51c0.92-1.54,1.92-2.99,3.33-4.11l0.38,0.09
		c1.07,1.82,2.14,3.63,3.21,5.45c-0.52,0.92-1.17,1.8-1.54,2.78c-1.64,4.4,0.54,8.72,4.98,10.03c3.84,1.14,7.89-1.12,9.16-5.1
		c1.16-3.63-1.64-8.48-5.63-9.44c-1.33-0.32-2.8-0.07-4.21-0.08c-1.19-1.74-2.38-3.49-3.57-5.23
		C236.45,235.37,236.64,235.19,236.85,235.03z"/>
	<path class="st1" d="M222.14,123.3c9.99-4.48,21.16,3.28,20.3,13.55c-0.52,6.21-4.72,11.8-11.05,13.54
		c-4.77,1.31-11.6-1.27-14.67-5.55c-3.73-5.2-3.73-11.87,0.04-16.84c0.75-0.99,1.62-1.89,2.43-2.83l0.38,0.09
		c1.09,1.83,2.18,3.66,3.27,5.49c-0.58,1.1-1.34,2.15-1.71,3.32c-1.38,4.33,0.52,8.04,4.67,9.33c4.02,1.25,8.33-0.86,9.56-4.67
		c1.21-3.76-1.48-8.72-5.45-9.7c-1.34-0.33-2.82-0.06-4.24-0.06c-1.2-1.76-2.4-3.52-3.59-5.28
		C222.06,123.69,222.14,123.3,222.14,123.3z"/>
	<path class="st4" d="M213.4,249.18c2.96,1.9,6.14,3.37,8.08,6.69c3.43,5.89,3.07,11.81-1.53,17.16c-4.04,4.7-10.36,5.89-16.45,3.11
		c-5.59-2.56-8.95-8.31-8.22-14.1c0.84-6.73,5.38-11.73,11.66-12.79c0.87-0.15,1.77-0.17,2.65-0.25c0.13,0.22,0.27,0.43,0.43,0.64
		c-1.04,1.87-1.38,3.91-1.46,6.01c-0.66,0.26-1.33,0.5-1.97,0.8c-3.51,1.65-5.08,4.58-4.44,8.25c0.6,3.48,3.05,5.7,6.62,6.03
		c3.59,0.33,6.22-1.57,7.61-4.77c1.43-3.32,0.53-6.26-2.33-8.56c-0.83-0.66-1.57-1.44-2.35-2.16c1.14-1.74,1.66-3.57,0.87-5.61
		C212.81,249.43,213.09,249.28,213.4,249.18z"/>
	<path class="st1" d="M104.26,138.2c1.39-1.82,2.54-3.92,4.22-5.42c6.19-5.5,15.95-4.48,21.33,2.03c4.48,5.41,3.04,15.36-2.93,20.18
		c-3.76,3.04-11.73,3.36-16.23,0.66c-4.62-2.77-6.94-7.69-6.1-12.91c1.82,0.11,3.64,0.22,5.45,0.32c0.47,1.33,0.81,2.72,1.44,3.97
		c1.66,3.31,6.75,4.63,10.15,2.73c4.03-2.25,5.14-5.99,2.92-9.81c-3.13-5.39-8.5-5.33-13.97,0.15c-1.86-0.9-3.79-1.46-5.89-1.18
		C104.51,138.69,104.37,138.45,104.26,138.2z"/>
	<path class="st1" d="M59.57,170.16c10.56,6.26,12.64,16.15,5.08,24.16c-3.85,4.08-11.78,4.88-17.43,1.76
		c-4.94-2.73-7.84-9.95-6.34-15.8c1.57-6.13,7.09-10.54,13.14-10.47c0.29,0,0.57,0.39,0.85,0.6c0.65,1.9-0.65,3.68-0.33,5.57
		c-0.66,0.23-1.32,0.51-2,0.68c-3.97,1-5.21,3.96-5.29,7.58c-0.08,3.53,2.09,5.45,5.21,6.52c3.52,1.21,6.31,0,8.37-2.83
		c2.17-2.98,1.67-6.03-0.48-8.82c-0.74-0.96-1.77-1.7-2.67-2.54c0.78-1.93,1.33-3.9,1.18-6.01
		C59.09,170.43,59.33,170.3,59.57,170.16z"/>
	<path class="st1" d="M104.02,187.49c6.63-3.09,14.22-1.14,17.92,4.62c3.49,5.43,2.24,14.38-2.6,18.68
		c-5.35,4.75-12.94,4.91-18.66,0.41c-5.28-4.16-6.67-12.33-3.02-18.39c0.72-1.2,1.81-2.18,2.73-3.25c0.24-0.1,0.48-0.22,0.7-0.36
		c1.03,1.57,2.06,3.14,3.09,4.71c-0.56,1.84-1.36,3.65-1.64,5.53c-0.64,4.42,1.92,7.62,6.28,8.2c4.14,0.55,7.06-1.57,8.07-5.87
		c0.94-4.02-1.4-7.98-5.4-8.9c-1.53-0.35-3.13-0.35-4.7-0.51C105.86,190.74,104.94,189.12,104.02,187.49z"/>
	<path class="st3" d="M275.99,136.21c7.73-3.2,15.21,0.51,18.53,6.95c2.95,5.73,0.59,15.14-4.93,18.52
		c-5.87,3.6-14.33,2.17-18.37-3.11c-5.3-6.92-4.92-13.61,1.14-20.1l0.37,0.13c1.1,1.8,2.19,3.6,3.29,5.4
		c-0.46,1.14-1,2.26-1.36,3.43c-0.92,3.04-0.11,5.77,2.37,7.58c2.52,1.85,5.46,2.44,8.46,0.73c2.81-1.6,3.75-4.13,3.56-7.15
		c-0.28-4.51-3.15-6.49-9.58-6.73c-1.17-1.75-2.35-3.5-3.52-5.25L275.99,136.21z"/>
	<path class="st1" d="M298.24,96.65c3.23-4.75,6.49-9.2,13.13-9.53c6.56-0.32,12.79,3.83,14.91,10.61
		c1.88,6.01-1.58,13.3-7.79,16.46c-5.86,2.98-13.3,1.28-17.11-4.15c-1.78-2.53-4.19-5.08-2.58-8.7c1.99-1.22,3.93,0.43,5.9,0.11
		c0.26,1.02,0.35,2.13,0.82,3.04c2.09,3.98,7.38,5.54,10.91,3.32c3.35-2.1,4.38-7.49,2.07-10.76c-2.71-3.83-7.21-4.34-11.09-1.2
		c-1.08,0.88-2.03,1.91-3.05,2.87c-1.61-1.71-3.5-2.11-5.66-1.19C298.5,97.27,298.35,96.97,298.24,96.65z"/>
	<path class="st4" d="M141.49,206.82c8.59,4.92,11.68,12.65,7.89,19.72c-3.41,6.38-9.97,9.3-16.58,7.4
		c-6.53-1.88-10.68-7.63-10.39-14.4c0.29-6.82,5.23-12.17,12.33-13.35c0.88-0.15,1.77-0.18,2.65-0.27c0.14,0.23,0.29,0.46,0.45,0.68
		c-0.82,1.61-1.3,3.27-0.87,5.1c-1.42,0.74-2.91,1.38-4.26,2.24c-3.47,2.22-4.63,6.97-2.6,10.32c2.01,3.32,7.06,4.5,10.38,2.42
		c3.84-2.4,4.7-6.71,2.04-10.67c-0.89-1.32-2.05-2.47-3.08-3.7c1.19-1.49,1.49-3.21,1.36-5.05
		C141.04,207.11,141.27,206.97,141.49,206.82z"/>
	<path class="st1" d="M163.23,186.58c5.9-3.59,14.42-1.08,18.51,7.11c3.02,6.06,0.55,14.13-5.81,17.95
		c-6.19,3.72-14.05,1.86-18.46-3.85c-4.59-5.95-3.79-15.56,2.22-18.73c1.03,1.49,2.05,2.98,3.08,4.48
		c-0.45,1.34-1.01,2.65-1.34,4.02c-1.04,4.23,1.69,8.27,6.08,9.12c4.1,0.79,7.47-1.38,8.44-5.45c1.04-4.35-1.52-8.51-5.8-9.29
		c-1.39-0.25-2.83-0.24-4.24-0.35C165.01,189.92,164.12,188.25,163.23,186.58z"/>
	<path class="st4" d="M160.11,78.27c5.14-8.02,9.71-10.3,17.05-8.51c6.66,1.62,11.58,8.76,10.84,15.69
		c-0.61,5.69-7.27,11.85-13.17,12.17c-7.28,0.4-13.68-4.59-14.97-11.68c-0.22-1.22-0.38-2.46-0.57-3.68
		c0.2-0.14,0.41-0.28,0.62-0.41c1.84,1.11,3.86,1.43,5.96,1.38c0.38,1.18,0.6,2.44,1.16,3.53c1.93,3.75,7.03,5.14,10.56,2.96
		c3.85-2.37,4.77-6.93,2.17-10.65c-2.6-3.71-7.21-4.4-10.74-1.54c-0.95,0.77-1.71,1.79-2.56,2.69c-1.87-0.91-3.83-1.39-5.93-1.26
		C160.39,78.73,160.25,78.5,160.11,78.27z"/>
	<path class="st1" d="M192.66,36.13c1.78-11.2,11.07-17.93,22.16-16.07c9.62,1.62,16.02,10.38,14.62,19.98
		c-2.56,1.37-4.98-0.95-7.51-0.28c-0.58-1.66-0.98-3.41-1.78-4.95c-3.79-7.35-12.35-8-17.29-1.35c-0.94,1.27-1.78,2.61-2.67,3.92
		c-2.34-1.01-4.87-0.23-7.26-0.77C192.81,36.47,192.73,36.31,192.66,36.13z"/>
	<path class="st5" d="M213.4,249.18c-0.31,0.1-0.59,0.25-0.85,0.44c-0.85-0.42-1.7-0.4-2.55,0.02c-0.16-0.2-0.3-0.41-0.43-0.64
		c2.56-11.3,5.08-22.62,7.72-33.9c0.5-2.13-0.09-3.77-1.22-5.49c-5.17-7.92-10.26-15.88-15.38-23.83l0.08-0.44
		c0.82-0.49,1.63-0.99,2.45-1.48c0.25-0.06,0.5-0.15,0.73-0.26c10.96,17.15,21.93,34.29,32.89,51.44c-0.21,0.15-0.4,0.33-0.57,0.53
		c-0.8,0.53-1.6,1.06-2.41,1.58l-0.38-0.09c-3.52-5.55-7.01-11.12-10.58-16.64c-0.52-0.8-0.74-2.33-2.01-2.04
		c-1.17,0.27-0.97,1.74-1.2,2.72C217.58,230.46,215.49,239.82,213.4,249.18z"/>
	<path class="st6" d="M150.78,100.2c9.79-3.71,17.92-1.42,23.29,5.81c5.48,7.37,5.08,19.11-3.31,26.44l-0.42-0.09
		c-1.48-2.39-2.95-4.78-4.43-7.17c2.64-4.46,4.52-9.29,1.02-13.84c-2.86-3.72-7.14-5.18-11.96-3.47c-1.59-2.37-3.18-4.75-4.77-7.12
		C150.38,100.56,150.58,100.37,150.78,100.2z"/>
	<path class="st4" d="M249.96,103.4c-10.24,3.82-19.98,0.99-24.81-7.2c-4.67-7.93-2.81-18.27,4.45-24.62l0.37,0.12
		c1.48,2.41,2.96,4.81,4.43,7.22c-2.75,4.04-3.96,8.15-1.05,12.72c2.92,4.6,7.23,5,11.99,4.29c1.55,2.36,3.1,4.71,4.65,7.07
		L249.96,103.4z"/>
	<path class="st3" d="M141.8,186.3c-5.76-3.45-10.72-7.46-11.9-14.71c-1.64-10.09,4.19-19.37,14.03-21.81
		c2.06-0.51,4.16-0.84,6.25-1.25c0.24,0.37,0.49,0.73,0.73,1.1c-2.06,2.29-1.77,5.37-2.7,8.05c-11.27,4.17-12.81,11.49-4.11,19.52
		c0.25,0.23,0.42,0.56,0.63,0.84c-2.11,2.2-2.1,5.03-2.28,7.8C142.24,186.01,142.03,186.17,141.8,186.3z"/>
	<path class="st7" d="M101.09,189.2c-0.22,0.14-0.46,0.26-0.7,0.36c-0.38-0.6-0.69-1.25-1.15-1.78c-0.75-0.86-0.9-2.73-2.36-2.37
		c-1.33,0.33-1.06,2.07-1.33,3.22c-2.16,9.29-4.25,18.6-6.37,27.91c-0.26,0.19-0.5,0.41-0.72,0.65c-0.72-0.27-1.45-0.54-2.17-0.82
		c0.59-9.14,3.07-17.94,5.43-26.68c1.98-7.33,1.19-13.16-3.39-19.35c-6.04-8.17-11.09-17.06-16.57-25.65
		c0.24-0.18,0.47-0.38,0.69-0.59c0.8-0.55,1.6-1.09,2.4-1.64c0,0,0.42,0.08,0.42,0.08c9.33,14.81,18.67,29.63,28,44.44
		C102.39,187.58,101.3,187.96,101.09,189.2z"/>
	<path class="st5" d="M150.78,100.2c-0.2,0.17-0.4,0.36-0.58,0.56c-0.83,0.54-1.66,1.08-2.5,1.62l-0.35-0.14
		c-10.66-16.84-21.32-33.67-31.98-50.51c0.76-0.54,1.52-1.08,2.28-1.62c0.26-0.04,0.52-0.1,0.78-0.16
		c3.6,7.12,8.35,13.53,12.47,20.33c0.89,1.47,2.09,2.28,3.76,2.63c8.49,1.76,16.97,3.58,25.45,5.37c0.14,0.23,0.28,0.46,0.43,0.69
		c-0.62,0.87-0.86,1.83-0.63,2.89c-0.21,0.13-0.41,0.27-0.62,0.41c-6.79-1.56-13.57-3.12-20.36-4.66c-0.84-0.19-1.92-0.75-2.51-0.03
		c-0.91,1.11,0.42,1.91,0.92,2.7C141.64,87.02,145.73,93.94,150.78,100.2z"/>
	<path class="st5" d="M70.49,117.53c9.8-22.3,19.69-44.56,30.13-66.58c0.32-0.12,0.63-0.26,0.94-0.42c0.54,0.59,1.1,1.13,1.99,1.1
		c0.16,0.24,0.32,0.49,0.47,0.73c-9.71,21.45-19.42,42.91-29.15,64.35c-0.44,0.96-1.04,1.84-1.56,2.76c-0.8-0.37-1.6-0.75-2.4-1.12
		C70.76,118.08,70.63,117.8,70.49,117.53z"/>
	<path class="st1" d="M152.88,134.8c-7.49-1.54-10.89-7.12-12.47-13.72c-1.81-7.55,0.79-13.98,6.95-18.85c0,0,0.35,0.14,0.35,0.14
		c1.47,2.46,2.94,4.91,4.42,7.37c-5.06,6.74-4.39,11.58,2.26,16.49c0.54,0.4,0.92,1.03,1.37,1.55
		C153.47,129.57,154.48,132.72,152.88,134.8z"/>
	<path class="st5" d="M192.66,36.13c0.06,0.18,0.15,0.34,0.26,0.49c-0.5,0.9-0.64,1.86-0.47,2.87c-0.28,0.21-0.52,0.46-0.73,0.74
		c-22.11,0.49-44.22-0.16-66.33-0.49c-0.67-0.01-1.34-0.4-2.01-0.62c-0.25-0.67-0.5-1.33-0.74-2c0.26-0.22,0.48-0.48,0.68-0.76
		c20.65,0.12,41.3,0.26,61.96,0.35C187.75,36.72,190.27,37.21,192.66,36.13z"/>
	<path class="st3" d="M154.04,150.58c7.32,1.42,11.43,6.26,12.84,13.17c1.47,7.24-0.07,13.82-6.48,18.5
		c-1.54-2.38-3.07-4.75-4.61-7.13c4.47-7.4,3.7-10.47-4.39-17.53C153.26,155.62,152.59,152.7,154.04,150.58z"/>
	<path class="st3" d="M233.24,69.29c11.39-5.93,28,2.42,27.09,17.55c-0.03,0.49,0.32,1,0.49,1.5c-0.21,0.26-0.46,0.46-0.75,0.62
		c-2.32-2.07-5.21-2.14-8.07-2.31c-2.77-8.85-5.5-10.77-14.1-9.93c-1.57-2.35-3.14-4.71-4.7-7.06L233.24,69.29z"/>
	<path class="st5" d="M208.47,58.07c-1.1,9.6-3.77,18.89-5.85,28.29c-0.8,3.62-0.29,6.42,1.77,9.48
		c6.07,9.05,11.85,18.29,17.75,27.46c0,0-0.08,0.39-0.08,0.39c-0.83,0.53-1.66,1.05-2.49,1.58c0,0-0.38-0.09-0.38-0.09
		c-6.39-10.05-12.78-20.11-19.16-30.16c-1.03-1.63-2.33-3.12-1.78-5.35c2.62-10.69,4.26-21.61,7.47-32.16
		C206.63,57.68,207.55,57.88,208.47,58.07z"/>
	<path class="st8" d="M122.64,37.13c0.25,0.67,0.5,1.33,0.74,2c-0.48,0.42-0.95,0.84-1.43,1.26c-5.21-1.63-5.21-1.63-7.49,4.37
		c-0.87,0.54-1.74,1.08-2.61,1.61c-5.11-1.94-6.61,1.82-8.32,5.26c-0.89,0.04-1.45-0.51-1.99-1.1c-0.41-2.69,3.06-4.95,1.31-7.55
		c-2.43-3.61-0.88-6.74,0.32-10.05c0.89-0.59,1.79-1.18,2.68-1.77c2.74-0.38,5.6-0.37,7.51,1.78
		C115.91,35.81,119.12,36.69,122.64,37.13z"/>
	<path class="st4" d="M70.49,117.53c0.14,0.28,0.28,0.55,0.41,0.83c-1.3,1.89-2.59,3.78-3.89,5.67c-3.73,0.26-6.89,1.35-8.07,5.41
		c-1.21,4.17,0.64,7.08,3.86,9.44c-0.69,1.73-1.38,3.47-2.07,5.2c-5.21-0.75-7.38-4.57-8.42-9c-1.19-5.07-0.4-9.87,3.82-13.56
		C60.29,117.89,65.16,116.9,70.49,117.53z"/>
	<path class="st3" d="M200.7,185.78c-4.39,1.64-8.76,1.49-12.91-0.64c-9.12-4.69-10.23-15.58-2.44-23.15c0,0,0.45,0.06,0.45,0.06
		c1.06,1.81,2.12,3.62,3.18,5.44c-4.17,7.8-1.19,12.34,8.3,12.64c1.16,1.74,2.33,3.48,3.49,5.22
		C200.78,185.34,200.7,185.78,200.7,185.78z"/>
	<path class="st9" d="M253.53,101.07c7.49,11.71,14.97,23.43,22.46,35.14l-0.04,0.39c-1.27,0.35-2.32,1.04-3.21,2l-0.37-0.13
		c-7.47-11.69-14.93-23.38-22.4-35.07l0.03-0.4c1.25-0.38,2.32-1.06,3.16-2.06L253.53,101.07z"/>
	<path class="st10" d="M188.41,159.91c10.84-3.71,17.72,0.52,20.61,12.66c-0.44,1.26-0.87,2.53-1.31,3.79
		c-1.75-0.64-3.5-1.27-5.25-1.91c-1.25-7.49-3.41-9.31-10.6-8.9c-1.17-1.71-2.35-3.42-3.52-5.13L188.41,159.91z"/>
	<path class="st1" d="M191.73,40.23c0.21-0.28,0.45-0.53,0.73-0.74c2.67,1.53,5.61,0.74,8.43,0.96c1.69,3.24,3.74,6.2,6.67,8.48
		c-1.6,2.07-0.52,5.27-2.95,6.98c-6.03-0.82-9.04-5.02-11.17-10.11C192.69,44.02,192.29,42.09,191.73,40.23z"/>
	<path class="st11" d="M260.07,88.97c0.29-0.16,0.54-0.37,0.75-0.62c12.47,2.77,24.95,5.54,37.42,8.31c0.11,0.32,0.26,0.62,0.46,0.9
		c-0.27,0.69-0.53,1.38-0.8,2.07c-12.75-1.85-25.2-5.13-37.73-8.04c-0.17-0.26-0.35-0.52-0.52-0.77
		C259.79,90.2,259.93,89.58,260.07,88.97z"/>
	<path class="st6" d="M103.17,32.93c-1.2,3.31-2.75,6.44-0.32,10.05c1.76,2.6-1.71,4.86-1.31,7.55c-0.3,0.16-0.62,0.3-0.94,0.42
		c-5.26-4.56-7.13-10.09-5.17-16.93c0.77-2.68,2.55-4.53,4.15-6.59c0,0,0.37,0.09,0.37,0.09C101.03,29.32,102.1,31.12,103.17,32.93z
		"/>
	<path class="st6" d="M122.64,37.13c-3.52-0.44-6.73-1.32-9.28-4.19c-1.91-2.16-4.77-2.16-7.51-1.78c-1.17-1.73-2.33-3.46-3.5-5.18
		l0.09-0.43c10.34-3.08,16.82,0.28,20.88,10.83C123.13,36.65,122.9,36.9,122.64,37.13z"/>
	<path class="st12" d="M207.71,176.36c0.44-1.26,0.87-2.53,1.31-3.79c11.34,2.54,22.69,5.07,34.03,7.61
		c-0.41,0.96-0.77,1.92-0.5,2.99c-0.23,0.12-0.45,0.27-0.65,0.43c-10.09-2.28-20.18-4.57-30.26-6.86c-1.23-0.28-2.45-0.48-3.68,0
		L207.71,176.36z"/>
	<path class="st12" d="M262.11,48.38c0.2,1.2-0.06,2.3-0.69,3.32c-10.48-2.34-20.95-4.67-31.43-7.01c-0.15-0.29-0.32-0.57-0.51-0.83
		c0.31-0.74,0.62-1.48,0.93-2.22C241.13,43.17,251.58,45.97,262.11,48.38z"/>
	<path class="st0" d="M185.35,161.98c-5.84-9.24-11.67-18.48-17.51-27.71l0.07-0.37c0.81-0.51,1.62-1.03,2.43-1.54l0.42,0.09
		c5.88,9.15,11.76,18.31,17.64,27.46l-0.07,0.51c-0.84,0.54-1.69,1.08-2.53,1.63L185.35,161.98z"/>
	<path class="st11" d="M104.26,138.2c0.12,0.25,0.25,0.49,0.4,0.73c-0.37,0.77-0.74,1.53-1.11,2.3c-8.06-0.36-15.7-2.84-23.46-4.72
		c-0.17-0.26-0.36-0.51-0.55-0.75c0.04-0.82,0.08-1.65,0.12-2.47c0.23-0.15,0.46-0.3,0.69-0.45
		C88.22,135.05,96.23,136.67,104.26,138.2z"/>
	<path class="st0" d="M59.57,170.16c-0.23,0.14-0.47,0.28-0.71,0.41c-0.81-0.38-1.63-0.76-2.44-1.15
		c0.73-8.15,2.43-16.08,5.24-23.77c0.78,0.19,1.56,0.39,2.34,0.58C63.7,154.43,60.48,162.08,59.57,170.16z"/>
	<path class="st12" d="M141.8,186.3c0.23-0.14,0.45-0.29,0.65-0.46c1.17,0.11,2.33,0.22,3.5,0.34c0.16,0.2,0.3,0.41,0.44,0.62
		c-2.91,6.36-3.58,13.27-4.89,20.02c-0.22,0.15-0.45,0.3-0.69,0.42c-0.9-0.6-1.89-0.8-2.96-0.65c-0.16-0.22-0.31-0.45-0.45-0.68
		C139.32,199.48,140.58,192.89,141.8,186.3z"/>
	<path class="st9" d="M222.82,54.35c4.46,4.29,6.74,10.11,10.42,14.94l-0.05,0.38c-1.07,0.67-2.15,1.35-3.22,2.02
		c0,0-0.37-0.12-0.37-0.12c-3.18-5.15-6.36-10.3-9.55-15.45C220.98,55.53,221.9,54.94,222.82,54.35z"/>
	<path class="st13" d="M80.34,132.84c-0.23,0.15-0.46,0.3-0.69,0.45c-1.91-1.15-4.48-0.77-6.09-2.61c-1.03-1.86-2.06-3.71-3.09-5.57
		c1.77-1.06,1.32-3.64,3.19-4.64C79.73,122.52,79.71,127.86,80.34,132.84z"/>
	<path class="st13" d="M259.64,90.82c0.18,0.26,0.35,0.51,0.52,0.77c-2.1,3.24-3.35,7.08-6.64,9.48l-0.37-0.14
		c-1.42-2.38-2.83-4.76-4.25-7.14c0.78-1.4,1.57-2.81,2.35-4.21C254.06,90,256.85,90.41,259.64,90.82z"/>
	<path class="st1" d="M229.48,43.87c0.19,0.26,0.36,0.54,0.51,0.83c-2.68,2.74-3.46,7.11-7.44,8.75c-0.15,0.12-0.33,0.2-0.52,0.23
		c-1.43-2.39-2.86-4.78-4.29-7.17c1.19-1.31,2.39-2.62,3.58-3.93C223.94,43.67,226.54,44.87,229.48,43.87z"/>
	<path class="st6" d="M167.85,134.27c-3.43,1.08-6.74,3.06-10.53,1.37c-0.5-2.54,1.69-4.97,0.3-7.54c1.75-0.91,3.59-1.43,5.59-1.21
		c1.57,2.34,3.14,4.67,4.71,7.01L167.85,134.27z"/>
	<path class="st4" d="M146.38,186.79c-0.14-0.21-0.28-0.42-0.44-0.62c0.05-2.59,1.79-5.04,0.64-7.73c1.87-0.32,3.74-0.64,5.61-0.96
		c1.5,2.41,3,4.81,4.49,7.22C153.52,186.69,150.07,187.31,146.38,186.79z"/>
	<path class="st1" d="M219.19,55.57c-2.82,1.49-5.6,3.24-8.97,1.54c-1.5-2.58,0.88-5.05,0.22-7.6c1.41-0.42,2.83-0.84,4.24-1.26
		c1.62,2.31,3.24,4.62,4.86,6.93C219.53,55.19,219.19,55.57,219.19,55.57z"/>
	<path class="st6" d="M114.47,44.75c2.28-6,2.28-6,7.49-4.37c1.58,4.2-2.29,6.39-3.53,9.56c-0.26,0.07-0.52,0.12-0.78,0.16
		C116.59,48.32,115.53,46.53,114.47,44.75z"/>
	<path class="st14" d="M156.69,184.7c-1.5-2.41-3-4.81-4.49-7.22c1.2-0.79,2.4-1.58,3.59-2.36c1.54,2.38,3.07,4.75,4.61,7.13
		c0.53,1.25,1.05,2.5,1.58,3.76c-0.68,0.5-1.35,1-2.03,1.49C158.23,187.3,157.93,185.45,156.69,184.7z"/>
	<path class="st1" d="M103.54,51.63c1.71-3.44,3.21-7.2,8.32-5.26c0.92,1.62,1.85,3.24,2.77,4.87c-3.32,2.45-6.99,1.6-10.61,1.13
		C103.86,52.11,103.7,51.87,103.54,51.63z"/>
	<path class="st11" d="M150.9,149.63c-0.24-0.37-0.49-0.73-0.73-1.1c1.07-4.29,2.14-8.58,3.21-12.88c1,0.2,1.99,0.39,2.99,0.59
		c-0.47,4.59-1.52,9.05-2.93,13.44C152.6,149.66,151.75,149.65,150.9,149.63z"/>
	<path class="st2" d="M207.71,176.36l0.24,0.39c-0.39,2.83-2.05,4.92-3.99,6.85c-0.23,0.12-0.48,0.2-0.73,0.26
		c-1.09-1.79-2.18-3.58-3.27-5.37c0.44-1.59,1.1-3.05,2.5-4.04C204.21,175.09,205.96,175.72,207.71,176.36z"/>
	<path class="st15" d="M210.44,49.51c0.66,2.55-1.72,5.02-0.22,7.6c-0.58,0.32-1.16,0.64-1.75,0.95c-0.92-0.19-1.84-0.39-2.76-0.58
		c-0.37-0.53-0.73-1.05-1.1-1.58c2.43-1.71,1.35-4.92,2.95-6.98C208.6,48.72,209.56,48.92,210.44,49.51z"/>
	<path class="st13" d="M79.53,135.76c0.19,0.24,0.38,0.49,0.55,0.75c-1.9,1.78-2.59,4.53-4.82,6.04l-0.42-0.08
		c-1.08-1.8-2.15-3.61-3.23-5.41c0.69-0.88,1.38-1.77,2.08-2.65C75.49,135.48,77.45,135.89,79.53,135.76z"/>
	<path class="st2" d="M72.44,144.11c-0.22,0.21-0.44,0.41-0.69,0.59c-2.1,0.48-4.11,2.04-6.39,0.55c0.11-1.89,0.21-3.78,0.32-5.66
		c0.98-0.69,2.12-0.66,3.24-0.69C70.1,140.64,71.27,142.38,72.44,144.11z"/>
	<path class="st15" d="M229.48,43.87c-2.95,1-5.55-0.2-8.16-1.29c-0.19-1.02,0.01-1.96,0.61-2.81c2.53-0.68,4.96,1.65,7.51,0.28
		c0.32,0.54,0.65,1.07,0.97,1.61C230.1,42.39,229.79,43.13,229.48,43.87z"/>
	<path class="st16" d="M242.54,183.17c-0.26-1.07,0.1-2.04,0.5-2.99l0.45-0.27l0.44-0.29c2.07,1.63,5.23,0.63,7.04,2.91
		c0.19,0.72,0.04,1.36-0.45,1.93C247.65,185.38,245.1,184.26,242.54,183.17z"/>
	<path class="st15" d="M156.37,136.24c-1-0.2-1.99-0.39-2.99-0.59c-0.17-0.28-0.34-0.57-0.51-0.85c1.6-2.08,0.59-5.23,2.88-7.03
		c0.62,0.11,1.24,0.22,1.86,0.32c1.39,2.57-0.8,5-0.3,7.54C157,135.84,156.69,136.04,156.37,136.24z"/>
	<path class="st17" d="M150.9,149.63c0.85,0.02,1.7,0.03,2.54,0.05c0.2,0.3,0.4,0.61,0.6,0.91c-1.45,2.12-0.78,5.04-2.64,7
		c-1.06,0.03-2.13,0.06-3.19,0.09C149.14,155.01,148.84,151.92,150.9,149.63z"/>
	<path class="st16" d="M159.95,187.5c0.68-0.5,1.35-1,2.03-1.49c0.42,0.19,0.83,0.39,1.25,0.58c0.89,1.67,1.78,3.34,2.67,5.01
		c-1.04,0.65-2.09,1.3-3.13,1.95c-1.03-1.49-2.05-2.98-3.08-4.48C159.77,188.54,159.86,188.02,159.95,187.5z"/>
	<path class="st18" d="M86.28,216.38c0.72,0.27,1.45,0.54,2.17,0.82c0.87,2.34-0.06,4.4-0.96,6.48c-1.03,0.14-2-0.05-2.9-0.59
		c0.11-1.88,0.21-3.75,0.32-5.63C85.37,217.1,85.83,216.74,86.28,216.38z"/>
	<path class="st18" d="M65.69,139.6c-0.11,1.89-0.21,3.78-0.32,5.66c-0.46,0.32-0.92,0.65-1.38,0.97c-0.78-0.19-1.56-0.39-2.34-0.58
		c-0.3-0.52-0.61-1.04-0.91-1.56c0.69-1.73,1.38-3.47,2.07-5.2C63.85,138.79,64.81,139.01,65.69,139.6z"/>
	<path class="st15" d="M56.41,169.42c0.81,0.38,1.63,0.76,2.44,1.15c0.16,2.11-0.39,4.09-1.18,6.01c-1.14,0.28-2.19,0.07-3.15-0.6
		c-0.32-1.88,0.98-3.66,0.33-5.57C55.38,170.08,55.9,169.75,56.41,169.42z"/>
	<path class="st15" d="M103.54,141.23c0.37-0.77,0.74-1.53,1.11-2.3c2.1-0.28,4.03,0.28,5.89,1.18c0.24,1.06,0.06,2.05-0.54,2.95
		c-1.82-0.11-3.64-0.22-5.45-0.32C104.21,142.23,103.88,141.73,103.54,141.23z"/>
	<path class="st19" d="M73.66,120.47c-1.87,0.99-1.42,3.58-3.19,4.64c-1.15-0.36-2.31-0.72-3.46-1.08c1.3-1.89,2.59-3.78,3.89-5.67
		c0.8,0.37,1.6,0.75,2.4,1.12C73.41,119.81,73.53,120.14,73.66,120.47z"/>
	<path class="st15" d="M297.9,99.62c0.27-0.69,0.53-1.38,0.8-2.07c2.16-0.92,4.05-0.52,5.66,1.19c0.11,0.91,0.22,1.81,0.33,2.72
		c-1.97,0.31-3.91-1.33-5.9-0.11C298.49,100.77,298.19,100.2,297.9,99.62z"/>
	<path class="st15" d="M114.63,51.23c-0.92-1.62-1.85-3.24-2.77-4.87c0.87-0.54,1.74-1.08,2.61-1.61c1.06,1.78,2.12,3.57,3.18,5.35
		c-0.76,0.54-1.52,1.08-2.28,1.62C115.11,51.58,114.86,51.41,114.63,51.23z"/>
	<path class="st16" d="M101.09,189.2c0.21-1.24,1.3-1.62,2.18-2.2c0.27,0.15,0.52,0.31,0.76,0.5c0.92,1.63,1.84,3.25,2.77,4.88
		c-0.87,0.51-1.74,1.03-2.61,1.54C103.15,192.34,102.12,190.77,101.09,189.2z"/>
	<path class="st20" d="M222.82,54.35c-0.92,0.59-1.84,1.18-2.76,1.77c-0.3-0.17-0.59-0.35-0.87-0.55l0.35-0.39
		c0.83-0.51,1.67-1.01,2.5-1.52c0.19-0.03,0.37-0.11,0.52-0.23C222.59,53.76,222.68,54.06,222.82,54.35z"/>
	<path class="st15" d="M102.35,25.97c1.17,1.73,2.33,3.46,3.5,5.18c-0.89,0.59-1.79,1.18-2.68,1.77c-1.07-1.8-2.14-3.61-3.21-5.41
		C100.76,27,101.56,26.49,102.35,25.97z"/>
	<path class="st21" d="M250.52,184.46c0.48-0.56,0.64-1.21,0.45-1.93c1.58-0.73,1.99-2.44,3.01-3.63c2.67-3.11,7.8-3.95,11.67-1.93
		c4.46,2.32,6.46,6.39,5.42,11.03c-1.03,4.62-4.6,7.51-9.57,7.72c-4.33,0.19-8.64-2.76-9.77-6.71
		C251.31,187.5,251.66,185.78,250.52,184.46z"/>
	<path class="st22" d="M282.4,48.62c2.24,3.68,1.2,7.9-2.51,10.18c-3.68,2.26-8.06,1.24-10.21-2.4c-2.12-3.57-1.05-8.23,2.38-10.32
		C275.4,44.03,280.35,45.25,282.4,48.62z"/>
	<path class="st23" d="M84.59,223.09c0.9,0.54,1.86,0.72,2.9,0.59c6.01,5.03,6.56,9.97,1.48,13.33c-3.69,2.44-8.14,1.73-10.31-1.63
		c-2.19-3.4-1.26-7.87,2.21-10.25C82.04,224.33,83.35,223.76,84.59,223.09z"/>
	<path class="st21" d="M239.85,240.8c1.41,0.01,2.87-0.24,4.21,0.08c3.99,0.95,6.79,5.8,5.63,9.44c-1.27,3.98-5.33,6.23-9.16,5.1
		c-4.44-1.31-6.61-5.63-4.98-10.03c0.36-0.98,1.02-1.86,1.54-2.78C238.01,242,238.93,241.4,239.85,240.8z"/>
	<path class="st24" d="M239.85,240.8c-0.92,0.6-1.84,1.2-2.76,1.8c-1.07-1.82-2.14-3.63-3.21-5.45c0.8-0.53,1.6-1.06,2.41-1.58
		C237.47,237.31,238.66,239.06,239.85,240.8z"/>
	<path class="st21" d="M225.65,128.97c1.42,0,2.9-0.27,4.24,0.06c3.97,0.98,6.66,5.94,5.45,9.7c-1.23,3.81-5.53,5.92-9.56,4.67
		c-4.15-1.28-6.05-4.99-4.67-9.33c0.37-1.17,1.13-2.22,1.71-3.32C223.77,130.15,224.71,129.56,225.65,128.97z"/>
	<path class="st24" d="M225.65,128.97c-0.94,0.59-1.88,1.19-2.82,1.78c-1.09-1.83-2.18-3.66-3.27-5.49
		c0.83-0.53,1.66-1.05,2.49-1.58C223.25,125.45,224.45,127.21,225.65,128.97z"/>
	<path class="st22" d="M211.68,255.23c0.78,0.72,1.52,1.5,2.35,2.16c2.86,2.3,3.77,5.24,2.33,8.56c-1.38,3.2-4.01,5.1-7.61,4.77
		c-3.57-0.33-6.02-2.55-6.62-6.03c-0.63-3.67,0.93-6.6,4.44-8.25c0.64-0.3,1.31-0.53,1.97-0.8
		C209.68,256.21,210.68,255.75,211.68,255.23z"/>
	<path class="st18" d="M211.68,255.23c-0.99,0.52-1.99,0.98-3.13,0.42c0.08-2.1,0.42-4.14,1.46-6.01c0.85-0.43,1.69-0.44,2.55-0.02
		C213.34,251.66,212.81,253.49,211.68,255.23z"/>
	<path class="st21" d="M110,143.06c0.6-0.91,0.78-1.89,0.54-2.95c5.47-5.49,10.84-5.54,13.97-0.15c2.22,3.82,1.1,7.56-2.92,9.81
		c-3.4,1.9-8.48,0.58-10.15-2.73C110.82,145.78,110.47,144.39,110,143.06z"/>
	<path class="st21" d="M54.53,175.98c0.96,0.66,2.01,0.87,3.15,0.6c0.9,0.84,1.93,1.58,2.67,2.54c2.15,2.8,2.64,5.85,0.48,8.82
		c-2.06,2.83-4.85,4.04-8.37,2.83c-3.12-1.07-5.29-2.98-5.21-6.52c0.08-3.62,1.32-6.59,5.29-7.58
		C53.21,176.49,53.86,176.21,54.53,175.98z"/>
	<path class="st21" d="M104.18,193.91c0.87-0.51,1.74-1.03,2.61-1.54c1.57,0.16,3.17,0.16,4.7,0.51c4.01,0.92,6.35,4.87,5.4,8.9
		c-1.01,4.3-3.93,6.42-8.07,5.87c-4.36-0.58-6.92-3.78-6.28-8.2C102.81,197.55,103.61,195.75,104.18,193.91z"/>
	<path class="st23" d="M279.47,141.85c6.43,0.24,9.3,2.21,9.58,6.73c0.19,3.03-0.75,5.56-3.56,7.15c-3,1.71-5.94,1.12-8.46-0.73
		c-2.47-1.81-3.29-4.54-2.37-7.58c0.36-1.17,0.9-2.29,1.36-3.43C277.17,143.28,278.32,142.57,279.47,141.85z"/>
	<path class="st25" d="M279.47,141.85c-1.15,0.71-2.3,1.43-3.45,2.14c-1.1-1.8-2.19-3.6-3.29-5.4c0.89-0.95,1.95-1.64,3.21-2
		C277.13,138.35,278.3,140.1,279.47,141.85z"/>
	<path class="st21" d="M304.69,101.46c-0.11-0.91-0.22-1.81-0.33-2.72c1.01-0.96,1.97-1.99,3.05-2.87c3.88-3.14,8.38-2.63,11.09,1.2
		c2.31,3.27,1.28,8.66-2.07,10.76c-3.53,2.22-8.82,0.65-10.91-3.32C305.04,103.59,304.96,102.48,304.69,101.46z"/>
	<path class="st22" d="M139.44,212.29c1.03,1.23,2.19,2.37,3.08,3.7c2.66,3.96,1.79,8.27-2.04,10.67c-3.32,2.08-8.36,0.9-10.38-2.42
		c-2.03-3.35-0.87-8.1,2.6-10.32c1.35-0.86,2.84-1.5,4.26-2.24C137.65,212.49,138.47,212.72,139.44,212.29z"/>
	<path class="st18" d="M139.44,212.29c-0.98,0.42-1.8,0.19-2.48-0.61c-0.43-1.82,0.06-3.49,0.87-5.1c1.07-0.15,2.06,0.05,2.96,0.65
		C140.94,209.08,140.63,210.81,139.44,212.29z"/>
	<path class="st21" d="M162.76,193.54c1.04-0.65,2.09-1.3,3.13-1.95c1.42,0.11,2.85,0.1,4.24,0.35c4.28,0.78,6.84,4.94,5.8,9.29
		c-0.97,4.07-4.34,6.24-8.44,5.45c-4.39-0.85-7.12-4.89-6.08-9.12C161.76,196.19,162.31,194.88,162.76,193.54z"/>
	<path class="st22" d="M166.47,80.22c0.85-0.9,1.61-1.92,2.56-2.69c3.53-2.87,8.14-2.17,10.74,1.54c2.61,3.72,1.68,8.27-2.17,10.65
		c-3.53,2.18-8.63,0.79-10.56-2.96c-0.56-1.09-0.79-2.35-1.16-3.53C166.43,82.29,166.63,81.29,166.47,80.22z"/>
	<path class="st18" d="M166.47,80.22c0.16,1.07-0.04,2.07-0.6,3c-2.11,0.06-4.13-0.27-5.96-1.38c-0.23-1.06,0.02-2.01,0.63-2.89
		C162.64,78.83,164.6,79.31,166.47,80.22z"/>
	<path class="st26" d="M221.93,39.77c-0.6,0.85-0.8,1.79-0.61,2.81c-1.19,1.31-2.39,2.62-3.58,3.93c-1.02,0.58-2.05,1.17-3.07,1.75
		c-1.41,0.42-2.83,0.84-4.24,1.26c-0.88-0.6-1.83-0.79-2.88-0.58c-2.92-2.27-4.98-5.23-6.67-8.48c0.63-1.22-0.14-2.12-0.7-3.07
		c0.89-1.31,1.73-2.66,2.67-3.92c4.94-6.65,13.51-6,17.29,1.35C220.95,36.36,221.35,38.11,221.93,39.77z"/>
	<path class="st24" d="M200.19,37.39c0.56,0.95,1.33,1.85,0.7,3.07c-2.82-0.22-5.76,0.57-8.43-0.96c-0.17-1.01-0.03-1.97,0.47-2.87
		C195.32,37.16,197.85,36.37,200.19,37.39z"/>
	<path class="st18" d="M199.96,178.49c1.09,1.79,2.18,3.58,3.27,5.37c-0.82,0.49-1.63,0.99-2.45,1.48
		c-1.16-1.74-2.33-3.48-3.49-5.22C198.18,179.58,199.07,179.03,199.96,178.49z"/>
	<path class="st26" d="M157.62,128.1c-0.62-0.11-1.24-0.22-1.86-0.32c-0.45-0.52-0.83-1.15-1.37-1.55
		c-6.65-4.91-7.32-9.75-2.26-16.49c0.95-0.62,1.9-1.24,2.85-1.86c4.82-1.71,9.1-0.25,11.96,3.47c3.5,4.55,1.63,9.38-1.02,13.84
		c-0.9,0.57-1.81,1.13-2.71,1.7C161.2,126.66,159.37,127.18,157.62,128.1z"/>
	<path class="st15" d="M163.2,126.88c0.9-0.57,1.81-1.13,2.71-1.7c1.48,2.39,2.95,4.78,4.43,7.17c-0.81,0.51-1.62,1.03-2.43,1.54
		C166.35,131.56,164.77,129.22,163.2,126.88z"/>
	<path class="st24" d="M154.97,107.88c-0.95,0.62-1.9,1.24-2.85,1.86c-1.47-2.46-2.94-4.91-4.42-7.37c0.83-0.54,1.66-1.08,2.5-1.62
		C151.79,103.13,153.38,105.51,154.97,107.88z"/>
	<path class="st27" d="M251.26,89.59c-0.78,1.4-1.57,2.81-2.35,4.21c-1.19,0.71-2.38,1.42-3.57,2.13
		c-4.76,0.71-9.06,0.31-11.99-4.29c-2.9-4.57-1.7-8.68,1.05-12.72c1.16-0.73,2.33-1.45,3.49-2.18c8.59-0.85,11.32,1.08,14.1,9.93
		C251.39,87.55,251.21,88.54,251.26,89.59z"/>
	<path class="st25" d="M245.34,95.93c1.19-0.71,2.38-1.42,3.57-2.13c1.42,2.38,2.83,4.76,4.25,7.14c-0.85,1.01-1.91,1.68-3.16,2.06
		C248.44,100.64,246.89,98.29,245.34,95.93z"/>
	<path class="st25" d="M237.9,76.73c-1.16,0.73-2.33,1.45-3.49,2.18c-1.48-2.41-2.96-4.81-4.43-7.22c1.07-0.67,2.15-1.35,3.22-2.02
		C234.76,72.03,236.33,74.38,237.9,76.73z"/>
	<path class="st27" d="M148.21,157.68c1.06-0.03,2.13-0.06,3.19-0.09c8.09,7.07,8.86,10.13,4.39,17.53c-1.2,0.79-2.4,1.58-3.59,2.36
		c-1.87,0.32-3.74,0.64-5.61,0.96c-0.62-0.14-1.24-0.27-1.86-0.41c-0.21-0.28-0.38-0.61-0.63-0.84
		C135.4,169.16,136.94,161.84,148.21,157.68z"/>
	<path class="st17" d="M144.73,178.04c0.62,0.14,1.24,0.27,1.86,0.41c1.16,2.69-0.59,5.14-0.64,7.73c-1.17-0.11-2.33-0.22-3.5-0.34
		C142.62,183.07,142.61,180.24,144.73,178.04z"/>
	<path class="st19" d="M72.44,144.11c-1.17-1.74-2.34-3.47-3.51-5.21c0.9-0.61,1.79-1.22,2.69-1.84c1.08,1.8,2.15,3.61,3.23,5.41
		C74.04,143.02,73.24,143.57,72.44,144.11z"/>
	<path class="st19" d="M251.26,89.59c-0.05-1.05,0.13-2.04,0.73-2.93c2.86,0.17,5.75,0.24,8.07,2.31c-0.14,0.62-0.28,1.23-0.42,1.85
		C256.85,90.41,254.06,90,251.26,89.59z"/>
	<path class="st27" d="M71.61,137.07c-0.9,0.61-1.79,1.22-2.69,1.84c-1.12,0.03-2.26,0-3.24,0.69c-0.88-0.59-1.84-0.81-2.89-0.72
		c-3.22-2.35-5.07-5.27-3.86-9.44c1.18-4.06,4.35-5.15,8.07-5.41c1.15,0.36,2.31,0.72,3.46,1.08c1.03,1.86,2.06,3.71,3.09,5.57
		c0.04,1.25,0.08,2.49,0.12,3.74C73,135.3,72.31,136.18,71.61,137.07z"/>
	<path class="st27" d="M199.96,178.49c-0.89,0.54-1.78,1.08-2.67,1.63c-9.49-0.3-12.47-4.84-8.3-12.64
		c0.96-0.64,1.91-1.29,2.87-1.93c7.19-0.4,9.35,1.41,10.6,8.9C201.06,175.45,200.4,176.9,199.96,178.49z"/>
	<path class="st19" d="M191.86,165.55c-0.96,0.64-1.91,1.29-2.87,1.93c-1.06-1.81-2.12-3.62-3.18-5.44
		c0.84-0.54,1.69-1.08,2.53-1.63C189.51,162.13,190.68,163.84,191.86,165.55z"/>
	<path class="st19" d="M73.69,134.41c-0.04-1.25-0.08-2.49-0.12-3.74c1.61,1.84,4.18,1.46,6.09,2.61c-0.04,0.82-0.08,1.65-0.12,2.47
		C77.45,135.89,75.49,135.48,73.69,134.41z"/>
	<path class="st24" d="M214.67,48.26c1.02-0.58,2.05-1.17,3.07-1.75c1.43,2.39,2.86,4.78,4.29,7.17c-0.83,0.51-1.67,1.01-2.5,1.52
		C217.91,52.88,216.29,50.57,214.67,48.26z"/>
</g>
</svg>
