<?xml version="1.0" encoding="utf-8"?>
<!-- Generator: Adobe Illustrator 26.5.0, SVG Export Plug-In . SVG Version: 6.00 Build 0)  -->
<svg version="1.0" id="Layer_1" xmlns="http://www.w3.org/2000/svg" xmlns:xlink="http://www.w3.org/1999/xlink" x="0px" y="0px"
	 viewBox="0 0 500 330" style="enable-background:new 0 0 500 330;" xml:space="preserve">
<style type="text/css">
	.st0{fill:#9E1F63;}
	.st1{fill:#00AEEF;}
	.st2{fill:#EF4136;}
	.st3{fill:#FFFFFF;}
	.st4{fill:#F15A29;}
	.st5{fill:none;}
	.st6{fill-rule:evenodd;clip-rule:evenodd;}
</style>
<circle class="st0" cx="109.89" cy="102.34" r="7.66"/>
<circle class="st1" cx="189.22" cy="230.17" r="7.66"/>
<circle class="st0" cx="109.89" cy="60.42" r="7.66"/>
<circle class="st2" cx="338.19" cy="129.63" r="7.66"/>
<g>
	<circle class="st0" cx="231.79" cy="76.74" r="9.66"/>
	<path class="st3" d="M231.79,69.08c4.23,0,7.66,3.43,7.66,7.66c0,4.23-3.43,7.66-7.66,7.66s-7.66-3.43-7.66-7.66
		C224.13,72.51,227.56,69.08,231.79,69.08 M231.79,65.08c-6.43,0-11.66,5.23-11.66,11.66c0,6.43,5.23,11.66,11.66,11.66
		s11.66-5.23,11.66-11.66C243.45,70.31,238.22,65.08,231.79,65.08L231.79,65.08z"/>
</g>
<circle class="st1" cx="158.59" cy="180.32" r="7.66"/>
<g>
	<path class="st0" d="M147.87,128.53c-5.33,0-9.66-4.33-9.66-9.66s4.33-9.66,9.66-9.66s9.66,4.33,9.66,9.66
		S153.2,128.53,147.87,128.53z"/>
	<path class="st3" d="M147.87,111.21c4.23,0,7.66,3.43,7.66,7.66c0,4.23-3.43,7.66-7.66,7.66c-4.23,0-7.66-3.43-7.66-7.66
		C140.21,114.64,143.64,111.21,147.87,111.21 M147.87,107.21c-6.43,0-11.66,5.23-11.66,11.66c0,6.43,5.23,11.66,11.66,11.66
		s11.66-5.23,11.66-11.66C159.53,112.44,154.3,107.21,147.87,107.21L147.87,107.21z"/>
</g>
<g>
	<path class="st0" d="M58.66,78.74c-5.33,0-9.66-4.33-9.66-9.66s4.33-9.66,9.66-9.66s9.66,4.33,9.66,9.66S63.99,78.74,58.66,78.74z"
		/>
	<path class="st3" d="M58.66,61.42c4.23,0,7.66,3.43,7.66,7.66c0,4.23-3.43,7.66-7.66,7.66c-4.23,0-7.66-3.43-7.66-7.66
		C51,64.85,54.43,61.42,58.66,61.42 M58.66,57.42C52.23,57.42,47,62.65,47,69.08s5.23,11.66,11.66,11.66s11.66-5.23,11.66-11.66
		S65.09,57.42,58.66,57.42L58.66,57.42z"/>
</g>
<g>
	<path class="st1" d="M219.87,169.7c-5.33,0-9.66-4.33-9.66-9.66s4.33-9.66,9.66-9.66s9.66,4.33,9.66,9.66S225.2,169.7,219.87,169.7
		z"/>
	<path class="st3" d="M219.87,152.38c4.23,0,7.66,3.43,7.66,7.66c0,4.23-3.43,7.66-7.66,7.66c-4.23,0-7.66-3.43-7.66-7.66
		C212.21,155.81,215.64,152.38,219.87,152.38 M219.87,148.38c-6.43,0-11.66,5.23-11.66,11.66s5.23,11.66,11.66,11.66
		s11.66-5.23,11.66-11.66S226.3,148.38,219.87,148.38L219.87,148.38z"/>
</g>
<g>
	<path class="st2" d="M345.85,187.4c-5.33,0-9.66-4.33-9.66-9.66s4.33-9.66,9.66-9.66s9.66,4.33,9.66,9.66
		S351.18,187.4,345.85,187.4z"/>
	<path class="st3" d="M345.85,170.09c4.23,0,7.66,3.43,7.66,7.66c0,4.23-3.43,7.66-7.66,7.66c-4.23,0-7.66-3.43-7.66-7.66
		C338.19,173.51,341.62,170.09,345.85,170.09 M345.85,166.09c-6.43,0-11.66,5.23-11.66,11.66c0,6.43,5.23,11.66,11.66,11.66
		s11.66-5.23,11.66-11.66C357.51,171.32,352.28,166.09,345.85,166.09L345.85,166.09z"/>
</g>
<g>
	<path class="st0" d="M155.53,94.06c-5.33,0-9.66-4.33-9.66-9.66s4.33-9.66,9.66-9.66s9.66,4.33,9.66,9.66
		S160.86,94.06,155.53,94.06z"/>
	<path class="st3" d="M155.53,76.74c4.23,0,7.66,3.43,7.66,7.66c0,4.23-3.43,7.66-7.66,7.66c-4.23,0-7.66-3.43-7.66-7.66
		C147.87,80.17,151.3,76.74,155.53,76.74 M155.53,72.74c-6.43,0-11.66,5.23-11.66,11.66c0,6.43,5.23,11.66,11.66,11.66
		c6.43,0,11.66-5.23,11.66-11.66C167.19,77.97,161.96,72.74,155.53,72.74L155.53,72.74z"/>
</g>
<circle class="st0" cx="173.9" cy="52.76" r="7.66"/>
<circle class="st2" cx="319.96" cy="94.68" r="7.66"/>
<circle class="st1" cx="219.87" cy="212.13" r="7.66"/>
<circle class="st4" cx="29.55" cy="273.21" r="7.66"/>
<circle class="st4" cx="43.34" cy="250.74" r="7.66"/>
<circle class="st2" cx="369.83" cy="184" r="7.66"/>
<circle class="st2" cx="312.3" cy="170.09" r="7.66"/>
<circle class="st1" cx="242.34" cy="191.66" r="7.66"/>
<circle class="st2" cx="369.83" cy="137.29" r="7.66"/>
<circle class="st2" cx="402.02" cy="157.34" r="7.66"/>
<circle class="st2" cx="377.49" cy="87.02" r="7.66"/>
<circle class="st2" cx="402.02" cy="117.66" r="7.66"/>
<g>
	<g>
		<g>
			<g>
				<g>
					<g>
						<path class="st5" d="M234.84,85.49c-0.01,3.82-0.56,7.63-1.63,11.33l14.42,4.14c1.44-5,2.2-10.23,2.21-15.47H234.84z"/>
					</g>
					<path class="st6" d="M241.79,95.58l-1.47-0.31c-0.13,0.82-0.38,1.6-0.58,2.4l1.45,0.38C241.4,97.23,241.66,96.42,241.79,95.58z
						"/>
					<path class="st6" d="M242.52,91.07l-1.49-0.17c-0.1,0.82-0.16,1.64-0.34,2.45l1.48,0.25
						C242.35,92.76,242.41,91.91,242.52,91.07z"/>
					<polygon class="st6" points="242.83,86.53 241.33,86.5 241.24,88.96 242.74,89.08 					"/>
				</g>
			</g>
			<g>
				<g>
					<g>
						<path class="st5" d="M233.21,96.82c-1.07,3.7-2.65,7.29-4.65,10.69l12.93,7.59c2.58-4.4,4.69-9.15,6.13-14.15L233.21,96.82z"
							/>
					</g>
					<path class="st6" d="M237.2,108.46l-1.34-0.68c-0.38,0.73-0.72,1.49-1.16,2.19l1.31,0.74
						C236.45,109.99,236.81,109.21,237.2,108.46z"/>
					<polygon class="st6" points="239.1,104.31 237.71,103.75 236.74,106.03 238.1,106.66 					"/>
					<polygon class="st6" points="240.65,100.03 239.22,99.59 238.41,101.93 239.82,102.44 					"/>
				</g>
			</g>
			<g>
				<g>
					<g>
						<path class="st5" d="M228.56,107.51c-2,3.41-4.42,6.63-7.14,9.64l11.08,10.1c3.35-3.7,6.4-7.75,8.99-12.15L228.56,107.51z"/>
					</g>
					<polygon class="st6" points="229.68,119.87 228.52,118.92 226.9,120.81 228.03,121.8 					"/>
					<polygon class="st6" points="232.47,116.27 231.25,115.4 229.74,117.37 230.93,118.29 					"/>
					<path class="st6" d="M234.96,112.47l-1.28-0.78c-0.4,0.72-0.89,1.4-1.34,2.08l1.25,0.83
						C234.05,113.9,234.55,113.22,234.96,112.47z"/>
				</g>
			</g>
			<g>
				<g>
					<g>
						<path class="st5" d="M221.43,117.15c-2.73,3-5.8,5.76-9.06,8.32l9.23,11.82c3.86-3.03,7.55-6.34,10.91-10.03L221.43,117.15z"
							/>
					</g>
					<path class="st6" d="M220.06,129.56l-0.97-1.14c-0.64,0.53-1.25,1.1-1.92,1.59l0.94,1.17
						C218.78,130.68,219.41,130.1,220.06,129.56z"/>
					<path class="st6" d="M223.44,126.52l-1.03-1.09c-0.61,0.56-1.2,1.15-1.82,1.7l1,1.12C222.22,127.69,222.82,127.1,223.44,126.52
						z"/>
					<polygon class="st6" points="226.64,123.31 225.55,122.28 223.83,124.08 224.89,125.14 					"/>
				</g>
			</g>
			<g>
				<g>
					<g>
						<path class="st5" d="M212.36,125.47c-1.61,1.3-3.34,2.47-5.04,3.67c-1.77,1.13-3.51,2.28-5.35,3.3l7.49,12.99
							c2.11-1.18,4.15-2.51,6.2-3.83c2-1.4,4.02-2.78,5.93-4.32L212.36,125.47z"/>
					</g>
					<path class="st6" d="M209.02,137.58l-0.79-1.27c-0.69,0.46-1.42,0.87-2.14,1.29l0.76,1.29
						C207.58,138.47,208.32,138.05,209.02,137.58z"/>
					<path class="st6" d="M212.82,135.09l-0.85-1.24c-0.67,0.49-1.37,0.95-2.07,1.39l0.82,1.26
						C211.43,136.05,212.14,135.59,212.82,135.09z"/>
					<path class="st6" d="M216.49,132.43l-0.91-1.19c-0.65,0.51-1.31,1.02-2,1.49l0.88,1.22
						C215.15,133.47,215.82,132.95,216.49,132.43z"/>
				</g>
			</g>
			<g>
				<g>
					<g>
						<path class="st5" d="M201.97,132.44c-3.64,2.1-7.43,4-11.34,5.64l5.89,13.8c4.43-1.86,8.75-4.03,12.95-6.45L201.97,132.44z"/>
					</g>
					<path class="st6" d="M197.01,144.04l-0.63-1.36c-0.75,0.37-1.52,0.68-2.28,1.02l0.6,1.37
						C195.47,144.74,196.26,144.42,197.01,144.04z"/>
					<path class="st6" d="M201.1,142.06l-0.68-1.34c-0.73,0.4-1.49,0.74-2.24,1.1l0.65,1.35
						C199.58,142.81,200.36,142.46,201.1,142.06z"/>
					<path class="st6" d="M205.08,139.92l-0.74-1.31c-0.71,0.43-1.46,0.8-2.19,1.19l0.71,1.32
						C203.61,140.73,204.36,140.35,205.08,139.92z"/>
				</g>
			</g>
			<g>
				<g>
					<g>
						<path class="st5" d="M190.62,138.08c-1.93,0.87-3.95,1.58-5.93,2.36c-2.02,0.68-4.02,1.43-6.08,2.01l4.39,14.34
							c2.3-0.66,4.55-1.49,6.81-2.26c2.23-0.87,4.49-1.67,6.69-2.66L190.62,138.08z"/>
					</g>
					<path class="st6" d="M184.34,149.05l-0.48-1.42c-0.79,0.28-1.58,0.54-2.38,0.77l0.45,1.43
						C182.74,149.6,183.54,149.33,184.34,149.05z"/>
					<path class="st6" d="M188.62,147.54l-0.53-1.4c-0.77,0.31-1.56,0.59-2.35,0.85l0.5,1.41
						C187.04,148.13,187.83,147.85,188.62,147.54z"/>
					<path class="st6" d="M192.82,145.88l-0.58-1.38c-0.76,0.34-1.54,0.63-2.32,0.93l0.55,1.4
						C191.26,146.52,192.05,146.22,192.82,145.88z"/>
				</g>
			</g>
			<g>
				<g>
					<g>
						<path class="st5" d="M178.62,142.45c-4.08,1.28-8.25,2.28-12.45,3.15l2.97,14.7c4.66-0.97,9.3-2.08,13.86-3.51L178.62,142.45z
							"/>
					</g>
					<polygon class="st6" points="171.21,152.72 170.88,151.26 168.44,151.82 168.75,153.28 					"/>
					<path class="st6" d="M175.62,151.65l-0.38-1.45c-0.81,0.21-1.61,0.44-2.42,0.63l0.35,1.46
						C173.99,152.09,174.81,151.86,175.62,151.65z"/>
					<path class="st6" d="M179.98,150.43l-0.43-1.44c-0.8,0.24-1.59,0.5-2.4,0.7l0.4,1.45
						C178.37,150.93,179.17,150.67,179.98,150.43z"/>
				</g>
			</g>
			<g>
				<g>
					<g>
						<path class="st5" d="M166.17,145.61c-2.11,0.4-4.21,0.82-6.34,1.12c-2.12,0.36-4.26,0.59-6.4,0.85l1.62,14.91
							c2.36-0.28,4.72-0.54,7.06-0.94c2.35-0.33,4.69-0.79,7.03-1.24L166.17,145.61z"/>
					</g>
					<polygon class="st6" points="157.81,155.14 157.61,153.65 155.12,153.95 155.3,155.44 					"/>
					<polygon class="st6" points="162.29,154.47 162.05,152.99 159.58,153.37 159.79,154.86 					"/>
					<polygon class="st6" points="166.74,153.67 166.46,152.2 164,152.67 164.26,154.14 					"/>
				</g>
			</g>
			<g>
				<g>
					<g>
						<path class="st5" d="M153.43,147.58c-2.14,0.24-4.29,0.4-6.43,0.56c-2.15,0.09-4.3,0.26-6.46,0.26l0.32,15
							c2.37,0,4.74-0.19,7.11-0.29c2.37-0.18,4.73-0.36,7.09-0.62L153.43,147.58z"/>
					</g>
					<path class="st6" d="M144.24,156.32l-0.07-1.5c-0.83,0.04-1.67,0.09-2.5,0.09l0.04,1.5
						C142.55,156.41,143.4,156.36,144.24,156.32z"/>
					<path class="st6" d="M148.77,156.06l-0.11-1.5c-0.83,0.08-1.67,0.1-2.5,0.15l0.08,1.5
						C147.08,156.17,147.93,156.15,148.77,156.06z"/>
					<polygon class="st6" points="153.27,155.68 153.12,154.19 150.62,154.4 150.75,155.89 					"/>
				</g>
			</g>
			<g>
				<g>
					<g>
						<path class="st5" d="M140.53,148.4l-3.23,0.06l-3.23-0.06c-2.16,0-4.31-0.17-6.46-0.26l-0.97,14.97
							c2.37,0.11,4.74,0.29,7.11,0.29l3.55,0.06l3.55-0.06L140.53,148.4z"/>
					</g>
					<polygon class="st6" points="130.62,156.33 130.68,154.83 128.18,154.71 128.09,156.2 					"/>
					<polygon class="st6" points="135.15,156.45 135.17,154.95 132.67,154.91 132.62,156.41 					"/>
					<polygon class="st6" points="139.67,156.45 139.65,154.95 137.14,154.99 137.14,156.49 					"/>
				</g>
			</g>
			<g>
				<g>
					<g>
						<path class="st5" d="M127.6,148.14c-4.3-0.31-8.59-0.72-12.83-1.41l-2.29,14.82c4.69,0.76,9.42,1.22,14.16,1.56L127.6,148.14z
							"/>
					</g>
					<path class="st6" d="M117.05,155.17l0.19-1.49c-0.83-0.09-1.65-0.22-2.48-0.35l-0.22,1.48
						C115.37,154.95,116.21,155.08,117.05,155.17z"/>
					<path class="st6" d="M121.55,155.7l0.15-1.49c-0.83-0.08-1.66-0.19-2.49-0.29l-0.17,1.49
						C119.88,155.5,120.71,155.62,121.55,155.7z"/>
					<polygon class="st6" points="126.06,156.08 126.16,154.59 123.67,154.37 123.54,155.87 					"/>
				</g>
			</g>
			<g>
				<g>
					<g>
						<path class="st5" d="M114.77,146.73c-4.26-0.62-8.46-1.52-12.62-2.54l-3.67,14.54c4.63,1.14,9.29,2.13,14,2.82L114.77,146.73z
							"/>
					</g>
					<polygon class="st6" points="103.63,152.78 103.96,151.32 101.52,150.77 101.17,152.22 					"/>
					<path class="st6" d="M108.07,153.71l0.28-1.47c-0.82-0.16-1.64-0.3-2.46-0.48l-0.31,1.47
						C106.41,153.41,107.25,153.55,108.07,153.71z"/>
					<path class="st6" d="M112.53,154.5l0.24-1.48c-0.82-0.13-1.65-0.25-2.47-0.41l-0.26,1.48
						C110.86,154.26,111.69,154.38,112.53,154.5z"/>
				</g>
			</g>
			<g>
				<g>
					<g>
						<path class="st5" d="M102.16,144.18c-4.16-1.04-8.24-2.32-12.26-3.74l-5.12,14.1c4.52,1.6,9.08,3.03,13.71,4.19L102.16,144.18
							z"/>
					</g>
					<polygon class="st6" points="90.5,149.14 90.98,147.72 88.61,146.9 88.11,148.32 					"/>
					<polygon class="st6" points="94.83,150.5 95.26,149.06 92.87,148.33 92.41,149.76 					"/>
					<polygon class="st6" points="99.19,151.7 99.57,150.25 97.15,149.61 96.75,151.06 					"/>
				</g>
			</g>
			<g>
				<g>
					<g>
						<path class="st5" d="M89.9,140.44c-3.99-1.49-7.92-3.12-11.7-5l-6.67,13.43c4.32,2.15,8.76,3.99,13.25,5.67L89.9,140.44z"/>
					</g>
					<polygon class="st6" points="77.82,144.15 78.44,142.79 76.19,141.71 75.53,143.06 					"/>
					<polygon class="st6" points="81.98,145.97 82.55,144.58 80.26,143.59 79.65,144.97 					"/>
					<polygon class="st6" points="86.19,147.62 86.72,146.22 84.38,145.32 83.83,146.71 					"/>
				</g>
			</g>
			<g>
				<g>
					<g>
						<path class="st5" d="M78.2,135.44c-3.77-1.9-7.43-3.99-10.92-6.3l-8.34,12.46c4.06,2.7,8.28,5.1,12.59,7.27L78.2,135.44z"/>
					</g>
					<polygon class="st6" points="65.79,137.72 66.58,136.45 64.48,135.1 63.66,136.36 					"/>
					<polygon class="st6" points="69.71,140.03 70.44,138.72 68.28,137.47 67.52,138.76 					"/>
					<polygon class="st6" points="73.7,142.16 74.38,140.83 72.17,139.66 71.46,140.98 					"/>
				</g>
			</g>
			<g>
				<g>
					<g>
						<path class="st5" d="M67.28,129.14c-3.46-2.34-6.74-4.89-9.77-7.66l-10.15,11.04c3.65,3.34,7.54,6.35,11.58,9.08L67.28,129.14
							z"/>
					</g>
					<polygon class="st6" points="54.74,129.73 55.7,128.58 53.81,126.96 52.81,128.08 					"/>
					<polygon class="st6" points="58.29,132.57 59.19,131.37 57.22,129.85 56.28,131.02 					"/>
					<polygon class="st6" points="61.96,135.22 62.81,133.98 60.77,132.55 59.89,133.76 					"/>
				</g>
			</g>
			<g>
				<g>
					<g>
						<path class="st5" d="M57.51,121.48c-3.04-2.76-5.79-5.78-8.18-9l-12.03,8.96c3.01,4.05,6.39,7.75,10.05,11.08L57.51,121.48z"
							/>
					</g>
					<path class="st6" d="M45.08,120.07l1.15-0.96c-0.56-0.62-1.04-1.29-1.54-1.94l-1.19,0.91
						C44.02,118.75,44.52,119.44,45.08,120.07z"/>
					<path class="st6" d="M48.11,123.47l1.09-1.03c-0.58-0.6-1.15-1.19-1.68-1.83l-1.13,0.99
						C46.93,122.26,47.52,122.86,48.11,123.47z"/>
					<path class="st6" d="M51.32,126.68l1.03-1.09c-0.6-0.58-1.23-1.12-1.79-1.73l-1.06,1.06
						C50.07,125.54,50.71,126.09,51.32,126.68z"/>
				</g>
			</g>
			<g>
				<g>
					<g>
						<path class="st5" d="M49.33,112.48c-2.39-3.21-4.42-6.63-5.97-10.2l-13.75,5.98c2.06,4.73,4.69,9.14,7.7,13.18L49.33,112.48z"
							/>
					</g>
					<path class="st6" d="M37.52,108.69l1.33-0.68c-0.36-0.74-0.76-1.47-1.1-2.22l-1.36,0.62
						C36.74,107.19,37.14,107.93,37.52,108.69z"/>
					<polygon class="st6" points="39.75,112.67 41.03,111.88 39.77,109.75 38.46,110.48 					"/>
					<polygon class="st6" points="42.26,116.45 43.48,115.58 42.09,113.52 40.84,114.35 					"/>
				</g>
			</g>
			<g>
				<g>
					<g>
						<path class="st5" d="M43.36,102.28c-1.56-3.57-2.64-7.29-3.18-11.07l-14.85,2.11c0.74,5.18,2.22,10.22,4.28,14.95
							L43.36,102.28z"/>
					</g>
					<polygon class="st6" points="32.85,95.84 34.32,95.52 33.86,93.09 32.38,93.33 					"/>
					<path class="st6" d="M34.02,100.25l1.43-0.45c-0.27-0.78-0.44-1.59-0.66-2.38l-1.45,0.38C33.57,98.61,33.74,99.45,34.02,100.25
						z"/>
					<polygon class="st6" points="35.59,104.52 36.97,103.95 36.49,102.81 36.09,101.64 34.67,102.15 35.09,103.35 					"/>
				</g>
			</g>
			<g>
				<g>
					<g>
						<path class="st5" d="M40.17,91.2c-0.55-3.78-0.55-7.64,0-11.43l-14.85-2.11c-0.75,5.18-0.75,10.47,0,15.64L40.17,91.2z"/>
					</g>
					<path class="st6" d="M31.85,82.19l1.5,0.1c0.04-0.82,0.17-1.64,0.25-2.46l-1.49-0.18C32.02,80.5,31.89,81.34,31.85,82.19z"/>
					<polygon class="st6" points="31.77,86.76 33.27,86.72 33.22,85.48 33.27,84.25 31.77,84.21 31.72,85.48 					"/>
					<path class="st6" d="M32.11,91.3l1.49-0.18c-0.08-0.82-0.21-1.63-0.25-2.46l-1.5,0.1C31.89,89.61,32.02,90.45,32.11,91.3z"/>
				</g>
			</g>
			<g>
				<g>
					<g>
						<path class="st5" d="M40.17,79.78c0.54-3.78,1.63-7.51,3.18-11.07L29.6,62.72c-2.06,4.72-3.54,9.77-4.28,14.95L40.17,79.78z"
							/>
					</g>
					<polygon class="st6" points="34.68,68.81 36.09,69.31 36.5,68.14 36.98,67 35.6,66.43 35.1,67.6 					"/>
					<path class="st6" d="M33.34,73.17l1.45,0.38c0.23-0.79,0.39-1.6,0.66-2.38l-1.43-0.45C33.75,71.52,33.57,72.35,33.34,73.17z"/>
					<polygon class="st6" points="32.38,77.62 33.86,77.86 34.32,75.44 32.86,75.12 					"/>
				</g>
			</g>
			<g>
				<g>
					<g>
						<path class="st5" d="M43.36,68.7c1.56-3.57,3.58-6.99,5.97-10.2L37.3,49.54c-3.01,4.05-5.64,8.46-7.7,13.18L43.36,68.7z"/>
					</g>
					<path class="st6" d="M40.85,56.61l1.25,0.83l1.39-2.05l-1.22-0.88C41.79,55.2,41.33,55.91,40.85,56.61z"/>
					<polygon class="st6" points="38.47,60.49 39.77,61.22 41.03,59.09 39.75,58.3 					"/>
					<path class="st6" d="M36.4,64.54l1.36,0.62c0.34-0.75,0.74-1.48,1.1-2.22l-1.33-0.69C37.15,63.02,36.75,63.77,36.4,64.54z"/>
				</g>
			</g>
			<g>
				<g>
					<g>
						<path class="st5" d="M49.33,58.5c2.39-3.22,5.13-6.24,8.18-9L47.36,38.46c-3.66,3.32-7.04,7.03-10.05,11.08L49.33,58.5z"/>
					</g>
					<path class="st6" d="M49.51,46.04l1.06,1.06c0.57-0.6,1.2-1.15,1.79-1.72l-1.03-1.09C50.73,44.87,50.09,45.43,49.51,46.04z"/>
					<path class="st6" d="M46.4,49.37l1.13,0.99c0.53-0.64,1.1-1.24,1.68-1.83l-1.09-1.03C47.53,48.11,46.94,48.71,46.4,49.37z"/>
					<path class="st6" d="M43.52,52.88l1.19,0.91c0.5-0.66,0.99-1.33,1.55-1.94l-1.15-0.96C44.53,51.52,44.04,52.2,43.52,52.88z"/>
				</g>
			</g>
			<g>
				<g>
					<g>
						<path class="st5" d="M57.51,49.5c3.03-2.77,6.32-5.32,9.77-7.66l-8.34-12.46c-4.04,2.73-7.93,5.75-11.58,9.08L57.51,49.5z"/>
					</g>
					<polygon class="st6" points="59.91,37.2 60.79,38.42 62.83,36.98 61.98,35.74 					"/>
					<polygon class="st6" points="56.29,39.96 57.23,41.12 59.2,39.6 58.3,38.4 					"/>
					<polygon class="st6" points="52.83,42.88 53.83,44 55.72,42.38 54.76,41.23 					"/>
				</g>
			</g>
			<g>
				<g>
					<g>
						<path class="st5" d="M67.28,41.84c3.49-2.31,7.15-4.4,10.92-6.3l-6.67-13.43c-4.31,2.17-8.53,4.57-12.59,7.27L67.28,41.84z"/>
					</g>
					<polygon class="st6" points="71.48,29.98 72.19,31.31 74.4,30.14 73.72,28.8 					"/>
					<polygon class="st6" points="67.53,32.22 68.29,33.51 70.45,32.25 69.72,30.94 					"/>
					<polygon class="st6" points="63.68,34.61 64.5,35.86 66.61,34.52 65.82,33.24 					"/>
				</g>
			</g>
			<g>
				<g>
					<g>
						<path class="st5" d="M78.2,35.54c3.79-1.88,7.72-3.51,11.7-5l-5.12-14.1c-4.49,1.68-8.93,3.52-13.25,5.67L78.2,35.54z"/>
					</g>
					<polygon class="st6" points="83.85,24.26 84.41,25.65 86.74,24.75 86.22,23.35 					"/>
					<polygon class="st6" points="79.66,26.01 80.27,27.38 82.56,26.39 81.99,25.01 					"/>
					<polygon class="st6" points="75.56,27.9 76.21,29.25 78.47,28.18 77.84,26.81 					"/>
				</g>
			</g>
			<g>
				<g>
					<g>
						<path class="st5" d="M89.9,30.54c4.02-1.42,8.1-2.7,12.26-3.74l-3.67-14.54c-4.63,1.16-9.19,2.59-13.71,4.19L89.9,30.54z"/>
					</g>
					<polygon class="st6" points="96.77,19.91 97.18,21.36 99.6,20.72 99.22,19.27 					"/>
					<polygon class="st6" points="92.42,21.21 92.88,22.64 95.27,21.92 94.84,20.48 					"/>
					<polygon class="st6" points="88.13,22.65 88.64,24.07 91,23.25 90.53,21.83 					"/>
				</g>
			</g>
			<g>
				<g>
					<g>
						<path class="st5" d="M102.16,26.8c4.16-1.02,8.36-1.92,12.62-2.54l-2.29-14.82c-4.7,0.69-9.37,1.68-14,2.82L102.16,26.8z"/>
					</g>
					<path class="st6" d="M110.06,16.89l0.26,1.48c0.82-0.17,1.64-0.29,2.47-0.41l-0.24-1.48C111.72,16.6,110.88,16.72,110.06,16.89
						z"/>
					<path class="st6" d="M105.6,17.75l0.31,1.47c0.81-0.18,1.64-0.32,2.46-0.48l-0.28-1.47C107.26,17.43,106.43,17.57,105.6,17.75z
						"/>
					<polygon class="st6" points="101.19,18.75 101.55,20.21 103.99,19.65 103.66,18.19 					"/>
				</g>
			</g>
			<g>
				<g>
					<g>
						<path class="st5" d="M114.77,24.25c4.24-0.69,8.53-1.1,12.83-1.41l-0.97-14.97c-4.73,0.34-9.46,0.8-14.16,1.56L114.77,24.25z"
							/>
					</g>
					<polygon class="st6" points="123.56,15.11 123.69,16.6 126.19,16.39 126.08,14.89 					"/>
					<path class="st6" d="M119.05,15.57l0.17,1.49c0.83-0.09,1.66-0.21,2.49-0.29l-0.15-1.49
						C120.72,15.36,119.89,15.47,119.05,15.57z"/>
					<path class="st6" d="M114.57,16.16l0.22,1.48c0.82-0.13,1.65-0.26,2.48-0.35l-0.19-1.49C116.23,15.89,115.4,16.03,114.57,16.16
						z"/>
				</g>
			</g>
			<g>
				<g>
					<g>
						<path class="st5" d="M127.6,22.84c2.15-0.09,4.3-0.26,6.46-0.26l3.23-0.06l3.23,0.06l0.32-15l-3.55-0.06l-3.55,0.06
							c-2.37,0-4.74,0.19-7.11,0.29L127.6,22.84z"/>
					</g>
					<polygon class="st6" points="137.17,14.49 137.17,15.99 139.67,16.03 139.7,14.53 					"/>
					<polygon class="st6" points="132.63,14.57 132.68,16.07 135.18,16.03 135.16,14.53 					"/>
					<polygon class="st6" points="128.12,14.77 128.2,16.27 130.71,16.14 130.64,14.65 					"/>
				</g>
			</g>
			<g>
				<g>
					<g>
						<path class="st5" d="M140.53,22.58c2.16,0,4.31,0.17,6.46,0.26c2.15,0.16,4.3,0.33,6.43,0.56l1.62-14.91
							c-2.36-0.26-4.73-0.44-7.09-0.62c-2.37-0.11-4.74-0.29-7.11-0.29L140.53,22.58z"/>
					</g>
					<polygon class="st6" points="150.78,15.09 150.65,16.58 153.14,16.79 153.3,15.3 					"/>
					<path class="st6" d="M146.25,14.76l-0.08,1.5c0.83,0.05,1.67,0.07,2.5,0.15l0.11-1.5C147.94,14.83,147.09,14.81,146.25,14.76z"
						/>
					<path class="st6" d="M141.74,14.57l-0.04,1.5c0.84,0,1.67,0.05,2.5,0.09l0.07-1.5C143.42,14.62,142.58,14.57,141.74,14.57z"/>
				</g>
			</g>
			<g>
				<g>
					<g>
						<path class="st5" d="M153.43,23.4c2.14,0.26,4.28,0.49,6.4,0.85c2.13,0.3,4.24,0.72,6.34,1.12l2.97-14.7
							c-2.34-0.45-4.67-0.91-7.03-1.24c-2.35-0.4-4.71-0.66-7.06-0.94L153.43,23.4z"/>
					</g>
					<polygon class="st6" points="164.29,16.84 164.02,18.32 166.48,18.79 166.77,17.31 					"/>
					<polygon class="st6" points="159.81,16.12 159.59,17.61 162.06,17.99 162.31,16.51 					"/>
					<polygon class="st6" points="155.32,15.54 155.15,17.03 157.64,17.33 157.83,15.84 					"/>
				</g>
			</g>
			<g>
				<g>
					<g>
						<path class="st5" d="M166.17,25.37c4.2,0.88,8.37,1.87,12.45,3.15l4.39-14.34c-4.56-1.43-9.2-2.54-13.86-3.51L166.17,25.37z"
							/>
					</g>
					<path class="st6" d="M177.57,19.85l-0.4,1.45c0.81,0.2,1.6,0.46,2.4,0.7l0.43-1.44C179.19,20.32,178.39,20.05,177.57,19.85z"/>
					<path class="st6" d="M173.18,18.7l-0.35,1.46c0.81,0.19,1.61,0.42,2.42,0.63l0.38-1.45C174.82,19.12,174,18.89,173.18,18.7z"/>
					<polygon class="st6" points="168.77,17.7 168.46,19.17 170.91,19.72 171.24,18.26 					"/>
				</g>
			</g>
			<g>
				<g>
					<g>
						<path class="st5" d="M178.62,28.53c2.06,0.58,4.05,1.33,6.08,2.01c1.98,0.78,3.99,1.48,5.93,2.36l5.89-13.8
							c-2.2-0.99-4.46-1.79-6.69-2.66c-2.27-0.77-4.52-1.6-6.81-2.26L178.62,28.53z"/>
					</g>
					<path class="st6" d="M190.5,24.17l-0.55,1.4c0.78,0.3,1.56,0.59,2.32,0.93l0.58-1.38C192.08,24.77,191.29,24.47,190.5,24.17z"
						/>
					<path class="st6" d="M186.25,22.58l-0.5,1.41c0.79,0.26,1.58,0.54,2.35,0.85l0.53-1.4C187.84,23.13,187.05,22.85,186.25,22.58z
						"/>
					<path class="st6" d="M181.96,21.15l-0.45,1.43c0.8,0.23,1.59,0.5,2.38,0.78l0.48-1.42C183.56,21.65,182.77,21.38,181.96,21.15z
						"/>
				</g>
			</g>
			<g>
				<g>
					<g>
						<path class="st5" d="M190.62,32.89c3.92,1.64,7.7,3.54,11.34,5.64l7.49-12.99c-4.2-2.42-8.52-4.59-12.95-6.45L190.62,32.89z"
							/>
					</g>
					<path class="st6" d="M202.88,29.86l-0.71,1.32c0.73,0.39,1.48,0.76,2.19,1.2l0.74-1.31C204.38,30.64,203.63,30.26,202.88,29.86
						z"/>
					<path class="st6" d="M198.83,27.81l-0.65,1.35c0.75,0.36,1.51,0.7,2.24,1.1l0.68-1.34C200.37,28.52,199.59,28.17,198.83,27.81z
						"/>
					<path class="st6" d="M194.72,25.92l-0.6,1.37c0.76,0.33,1.54,0.65,2.28,1.02l0.63-1.36C196.28,26.57,195.5,26.25,194.72,25.92z
						"/>
				</g>
			</g>
			<g>
				<g>
					<g>
						<path class="st5" d="M201.97,38.54c1.84,1.02,3.59,2.18,5.35,3.3c1.7,1.2,3.43,2.37,5.04,3.67l9.23-11.82
							c-1.92-1.54-3.93-2.92-5.93-4.32c-2.05-1.31-4.09-2.65-6.2-3.83L201.97,38.54z"/>
					</g>
					<path class="st6" d="M214.47,37.05l-0.88,1.22c0.69,0.47,1.35,0.97,2,1.49l0.91-1.19C215.84,38.04,215.17,37.53,214.47,37.05z"
						/>
					<path class="st6" d="M210.72,34.49l-0.82,1.26c0.71,0.44,1.4,0.9,2.07,1.39l0.85-1.24C212.15,35.4,211.44,34.93,210.72,34.49z"
						/>
					<path class="st6" d="M206.87,32.1l-0.76,1.29c0.72,0.42,1.44,0.83,2.14,1.29l0.79-1.27C208.34,32.94,207.6,32.52,206.87,32.1z"
						/>
				</g>
			</g>
			<g>
				<g>
					<g>
						<path class="st5" d="M212.36,45.51c3.26,2.56,6.33,5.31,9.06,8.32l11.08-10.1c-3.36-3.69-7.05-7.01-10.91-10.03L212.36,45.51z
							"/>
					</g>
					<polygon class="st6" points="224.91,45.85 223.85,46.91 225.57,48.71 226.66,47.69 					"/>
					<path class="st6" d="M221.59,42.73l-1,1.12c0.62,0.55,1.21,1.13,1.82,1.7l1.03-1.09C222.83,43.89,222.23,43.29,221.59,42.73z"
						/>
					<path class="st6" d="M218.12,39.82l-0.94,1.17c0.67,0.49,1.28,1.06,1.92,1.59l0.97-1.14C219.43,40.9,218.8,40.32,218.12,39.82z
						"/>
				</g>
			</g>
			<g>
				<g>
					<g>
						<path class="st5" d="M221.43,53.83c2.72,3.01,5.14,6.23,7.14,9.64l12.93-7.59c-2.58-4.4-5.64-8.45-8.99-12.15L221.43,53.83z"
							/>
					</g>
					<path class="st6" d="M233.6,56.39l-1.25,0.83c0.46,0.69,0.94,1.36,1.34,2.08l1.28-0.78C234.57,57.79,234.07,57.1,233.6,56.39z"
						/>
					<polygon class="st6" points="230.94,52.7 229.75,53.61 231.25,55.59 232.47,54.72 					"/>
					<polygon class="st6" points="228.04,49.2 226.92,50.19 228.54,52.08 229.7,51.13 					"/>
				</g>
			</g>
			<g>
				<g>
					<g>
						<path class="st5" d="M228.56,63.47c2,3.4,3.58,6.99,4.65,10.69l14.42-4.14c-1.44-5-3.55-9.75-6.13-14.15L228.56,63.47z"/>
					</g>
					<polygon class="st6" points="239.83,68.56 238.42,69.07 239.22,71.41 240.66,70.97 					"/>
					<polygon class="st6" points="238.11,64.33 236.75,64.96 237.71,67.24 239.1,66.68 					"/>
					<path class="st6" d="M236.02,60.3l-1.31,0.74c0.44,0.7,0.78,1.45,1.16,2.19l1.34-0.68C236.82,61.79,236.47,61.02,236.02,60.3z"
						/>
				</g>
			</g>
			<g>
				<g>
					<g>
						<path class="st5" d="M233.21,74.16c1.07,3.7,1.62,7.51,1.63,11.33h15c-0.01-5.23-0.77-10.47-2.21-15.47L233.21,74.16z"/>
					</g>
					<polygon class="st6" points="242.74,81.93 241.24,82.04 241.33,84.51 242.83,84.48 					"/>
					<path class="st6" d="M242.17,77.4l-1.48,0.25c0.18,0.8,0.24,1.63,0.34,2.45l1.49-0.17C242.41,79.08,242.36,78.23,242.17,77.4z"
						/>
					<path class="st6" d="M241.2,72.95l-1.45,0.38c0.2,0.8,0.46,1.59,0.58,2.4l1.47-0.31C241.67,74.58,241.41,73.77,241.2,72.95z"/>
				</g>
			</g>
		</g>
	</g>
</g>
<g>
	<g>
		<g>
			<g>
				<g>
					<g>
						<path class="st5" d="M255.42,204.47c-0.01,3.95-0.39,7.89-1.15,11.75l14.71,2.91c0.96-4.83,1.43-9.75,1.44-14.66H255.42z"/>
					</g>
					<path class="st6" d="M262.72,214.35l-1.48-0.22c-0.09,0.81-0.27,1.6-0.4,2.4l1.48,0.27
						C262.45,215.98,262.63,215.17,262.72,214.35z"/>
					<path class="st6" d="M263.21,209.92l-1.5-0.12c-0.06,0.81-0.11,1.62-0.23,2.42l1.49,0.17
						C263.09,211.57,263.15,210.74,263.21,209.92z"/>
					<polygon class="st6" points="263.42,205.48 261.92,205.46 261.86,207.89 263.36,207.97 					"/>
				</g>
			</g>
			<g>
				<g>
					<g>
						<path class="st5" d="M254.26,216.21c-0.76,3.86-1.91,7.64-3.42,11.28l13.85,5.75c1.89-4.55,3.32-9.28,4.28-14.11
							L254.26,216.21z"/>
					</g>
					<path class="st6" d="M259.51,227.32l-1.41-0.5c-0.24,0.77-0.58,1.51-0.86,2.27l1.39,0.55
						C258.92,228.87,259.26,228.11,259.51,227.32z"/>
					<path class="st6" d="M260.85,223.07l-1.44-0.41c-0.23,0.78-0.42,1.57-0.7,2.33l1.43,0.46
						C260.42,224.68,260.62,223.87,260.85,223.07z"/>
					<polygon class="st6" points="261.93,218.77 260.47,218.45 259.92,220.82 261.37,221.19 					"/>
				</g>
			</g>
			<g>
				<g>
					<g>
						<path class="st5" d="M250.84,227.49c-1.51,3.63-3.37,7.12-5.56,10.39l12.46,8.34c2.74-4.09,5.07-8.45,6.95-12.99
							L250.84,227.49z"/>
					</g>
					<path class="st6" d="M253.81,239.42l-1.29-0.77c-0.4,0.71-0.86,1.37-1.29,2.06l1.26,0.82
						C252.93,240.82,253.4,240.14,253.81,239.42z"/>
					<path class="st6" d="M255.96,235.51l-1.33-0.68c-0.37,0.72-0.72,1.45-1.14,2.14l1.31,0.73
						C255.22,237,255.58,236.25,255.96,235.51z"/>
					<polygon class="st6" points="257.87,231.5 256.49,230.9 255.49,233.12 256.84,233.76 					"/>
				</g>
			</g>
			<g>
				<g>
					<g>
						<path class="st5" d="M245.28,237.89c-2.19,3.27-4.7,6.33-7.49,9.12l10.61,10.61c3.48-3.48,6.61-7.3,9.34-11.38L245.28,237.89z
							"/>
					</g>
					<path class="st6" d="M245.86,250.16l-1.11-1.01c-0.55,0.6-1.11,1.18-1.67,1.77l1.08,1.05
						C244.72,251.37,245.31,250.78,245.86,250.16z"/>
					<path class="st6" d="M248.73,246.75l-1.18-0.93c-0.5,0.64-1,1.28-1.54,1.88l1.14,0.97
						C247.71,248.06,248.22,247.41,248.73,246.75z"/>
					<polygon class="st6" points="251.38,243.19 250.14,242.33 248.74,244.32 249.94,245.21 					"/>
				</g>
			</g>
			<g>
				<g>
					<g>
						<path class="st5" d="M237.8,247.01c-2.79,2.79-5.85,5.3-9.12,7.49l8.34,12.46c4.09-2.73,7.91-5.87,11.38-9.34L237.8,247.01z"
							/>
					</g>
					<polygon class="st6" points="235.98,259.17 235.08,257.96 233.1,259.37 233.95,260.61 					"/>
					<path class="st6" d="M239.45,256.37l-0.97-1.14c-0.6,0.54-1.24,1.05-1.88,1.54l0.93,1.18
						C238.19,257.44,238.84,256.93,239.45,256.37z"/>
					<path class="st6" d="M242.74,253.39l-1.04-1.08c-0.59,0.56-1.17,1.13-1.77,1.67l1.01,1.11
						C241.55,254.54,242.14,253.95,242.74,253.39z"/>
				</g>
			</g>
			<g>
				<g>
					<g>
						<path class="st5" d="M228.67,254.49c-3.27,2.19-6.76,4.06-10.39,5.56l5.75,13.85c4.55-1.88,8.91-4.22,12.99-6.95
							L228.67,254.49z"/>
					</g>
					<polygon class="st6" points="224.53,266.06 223.88,264.71 221.67,265.71 222.26,267.09 					"/>
					<path class="st6" d="M228.48,264.01l-0.73-1.31c-0.69,0.42-1.43,0.77-2.14,1.14l0.68,1.34
						C227.03,264.8,227.77,264.44,228.48,264.01z"/>
					<path class="st6" d="M232.29,261.71l-0.82-1.26c-0.69,0.43-1.35,0.9-2.06,1.29l0.77,1.29
						C230.9,262.63,231.58,262.15,232.29,261.71z"/>
				</g>
			</g>
			<g>
				<g>
					<g>
						<path class="st5" d="M218.28,260.06c-3.63,1.51-7.42,2.65-11.28,3.42l2.91,14.71c4.83-0.96,9.56-2.39,14.11-4.28
							L218.28,260.06z"/>
					</g>
					<polygon class="st6" points="211.95,270.59 211.58,269.14 209.22,269.68 209.53,271.15 					"/>
					<path class="st6" d="M216.23,269.36l-0.46-1.43c-0.76,0.28-1.55,0.47-2.33,0.7l0.41,1.44
						C214.65,269.84,215.45,269.64,216.23,269.36z"/>
					<path class="st6" d="M220.41,267.85l-0.55-1.39c-0.76,0.29-1.5,0.62-2.27,0.86l0.5,1.41
						C218.88,268.48,219.63,268.14,220.41,267.85z"/>
				</g>
			</g>
			<g>
				<g>
					<g>
						<path class="st5" d="M207,263.47c-3.86,0.77-7.8,1.15-11.75,1.15v15c4.91-0.01,9.83-0.48,14.66-1.44L207,263.47z"/>
					</g>
					<polygon class="st6" points="198.73,272.57 198.65,271.07 196.22,271.13 196.24,272.63 					"/>
					<path class="st6" d="M203.17,272.19L203,270.7c-0.8,0.12-1.61,0.17-2.42,0.23l0.12,1.5
						C201.52,272.36,202.35,272.31,203.17,272.19z"/>
					<path class="st6" d="M207.56,271.53l-0.27-1.48c-0.8,0.13-1.59,0.31-2.4,0.4l0.21,1.48
						C205.93,271.85,206.74,271.66,207.56,271.53z"/>
				</g>
			</g>
			<g>
				<g>
					<g>
						<path class="st5" d="M195.26,264.63c-3.95-0.01-7.89-0.39-11.75-1.15l-2.91,14.71c4.83,0.96,9.75,1.43,14.66,1.44V264.63z"/>
					</g>
					<path class="st6" d="M185.38,271.94l0.22-1.48c-0.81-0.09-1.6-0.27-2.4-0.4l-0.27,1.48
						C183.74,271.66,184.55,271.84,185.38,271.94z"/>
					<path class="st6" d="M189.81,272.42l0.12-1.5c-0.81-0.06-1.62-0.11-2.42-0.23l-0.17,1.49
						C188.15,272.31,188.98,272.36,189.81,272.42z"/>
					<polygon class="st6" points="194.24,272.63 194.26,271.13 191.83,271.07 191.76,272.57 					"/>
				</g>
			</g>
			<g>
				<g>
					<g>
						<path class="st5" d="M183.51,263.47c-3.86-0.76-7.64-1.91-11.28-3.42l-5.75,13.85c4.55,1.89,9.28,3.32,14.11,4.28
							L183.51,263.47z"/>
					</g>
					<path class="st6" d="M172.4,268.72l0.5-1.41c-0.77-0.24-1.51-0.58-2.27-0.86l-0.55,1.39
						C170.85,268.13,171.61,268.47,172.4,268.72z"/>
					<path class="st6" d="M176.65,270.07l0.41-1.44c-0.78-0.23-1.57-0.42-2.33-0.7l-0.46,1.43
						C175.05,269.64,175.85,269.83,176.65,270.07z"/>
					<polygon class="st6" points="180.96,271.14 181.27,269.68 178.9,269.13 178.54,270.59 					"/>
				</g>
			</g>
			<g>
				<g>
					<g>
						<path class="st5" d="M172.23,260.06c-3.63-1.51-7.12-3.37-10.39-5.56l-8.34,12.46c4.09,2.74,8.45,5.07,12.99,6.95
							L172.23,260.06z"/>
					</g>
					<path class="st6" d="M160.31,263.02l0.77-1.29c-0.71-0.4-1.37-0.86-2.06-1.29l-0.82,1.26
						C158.91,262.14,159.59,262.61,160.31,263.02z"/>
					<path class="st6" d="M164.21,265.18l0.68-1.33c-0.72-0.37-1.45-0.72-2.14-1.14l-0.73,1.31
						C162.73,264.43,163.47,264.79,164.21,265.18z"/>
					<polygon class="st6" points="168.22,267.08 168.82,265.7 166.6,264.7 165.96,266.05 					"/>
				</g>
			</g>
			<g>
				<g>
					<g>
						<path class="st5" d="M161.84,254.49c-3.27-2.19-6.33-4.7-9.12-7.49l-10.61,10.61c3.48,3.48,7.3,6.61,11.38,9.34L161.84,254.49
							z"/>
					</g>
					<path class="st6" d="M149.56,255.08l1.01-1.11c-0.6-0.55-1.18-1.11-1.77-1.67l-1.05,1.08
						C148.36,253.94,148.95,254.52,149.56,255.08z"/>
					<path class="st6" d="M152.97,257.94l0.93-1.18c-0.64-0.5-1.28-1-1.88-1.54l-0.97,1.14
						C151.67,256.92,152.31,257.44,152.97,257.94z"/>
					<polygon class="st6" points="156.54,260.59 157.39,259.36 155.41,257.95 154.51,259.15 					"/>
				</g>
			</g>
			<g>
				<g>
					<g>
						<path class="st5" d="M152.72,247.01c-2.79-2.79-5.3-5.85-7.49-9.12l-12.46,8.34c2.73,4.09,5.87,7.91,9.34,11.38L152.72,247.01
							z"/>
					</g>
					<polygon class="st6" points="140.56,245.19 141.76,244.29 140.35,242.31 139.12,243.17 					"/>
					<path class="st6" d="M143.35,248.67l1.14-0.97c-0.54-0.6-1.05-1.24-1.54-1.88l-1.18,0.93
						C142.28,247.4,142.8,248.05,143.35,248.67z"/>
					<path class="st6" d="M146.34,251.95l1.08-1.04c-0.56-0.59-1.13-1.17-1.67-1.77l-1.11,1.01
						C145.19,250.76,145.77,251.35,146.34,251.95z"/>
				</g>
			</g>
			<g>
				<g>
					<g>
						<path class="st5" d="M145.23,237.89c-2.19-3.27-4.06-6.76-5.56-10.39l-13.85,5.75c1.88,4.55,4.22,8.91,6.95,12.99
							L145.23,237.89z"/>
					</g>
					<polygon class="st6" points="133.66,233.74 135.01,233.1 134.01,230.88 132.63,231.48 					"/>
					<path class="st6" d="M135.71,237.7l1.31-0.73c-0.42-0.69-0.77-1.43-1.14-2.14l-1.34,0.68
						C134.92,236.24,135.28,236.99,135.71,237.7z"/>
					<path class="st6" d="M138.01,241.5l1.26-0.82c-0.43-0.69-0.9-1.35-1.29-2.06l-1.29,0.77
						C137.09,240.12,137.57,240.8,138.01,241.5z"/>
				</g>
			</g>
			<g>
				<g>
					<g>
						<path class="st5" d="M139.67,227.49c-1.51-3.63-2.65-7.42-3.42-11.28l-14.71,2.91c0.96,4.83,2.39,9.56,4.28,14.11
							L139.67,227.49z"/>
					</g>
					<polygon class="st6" points="129.13,221.16 130.59,220.8 130.04,218.43 128.57,218.74 					"/>
					<path class="st6" d="M130.37,225.44l1.43-0.46c-0.28-0.76-0.47-1.55-0.7-2.33l-1.44,0.41
						C129.89,223.86,130.08,224.67,130.37,225.44z"/>
					<path class="st6" d="M131.88,229.62l1.39-0.55c-0.29-0.76-0.62-1.5-0.86-2.27l-1.41,0.5
						C131.24,228.09,131.58,228.85,131.88,229.62z"/>
				</g>
			</g>
			<g>
				<g>
					<g>
						<path class="st5" d="M136.25,216.21c-0.77-3.86-1.15-7.8-1.15-11.75h-15c0.01,4.91,0.48,9.83,1.44,14.66L136.25,216.21z"/>
					</g>
					<polygon class="st6" points="127.15,207.94 128.65,207.87 128.59,205.44 127.09,205.46 					"/>
					<path class="st6" d="M127.54,212.38l1.49-0.17c-0.12-0.8-0.17-1.61-0.23-2.42l-1.5,0.12
						C127.36,210.73,127.42,211.56,127.54,212.38z"/>
					<path class="st6" d="M128.19,216.77l1.48-0.27c-0.13-0.8-0.31-1.59-0.4-2.4l-1.48,0.21
						C127.88,215.15,128.06,215.96,128.19,216.77z"/>
				</g>
			</g>
			<g>
				<g>
					<g>
						<path class="st5" d="M135.1,204.47c0.01-3.95,0.39-7.89,1.15-11.75l-14.71-2.91c-0.96,4.83-1.43,9.75-1.44,14.66H135.1z"/>
					</g>
					<path class="st6" d="M127.79,194.59l1.48,0.22c0.09-0.81,0.27-1.6,0.4-2.4l-1.48-0.27
						C128.06,192.95,127.88,193.76,127.79,194.59z"/>
					<path class="st6" d="M127.3,199.02l1.5,0.12c0.06-0.81,0.11-1.62,0.23-2.42l-1.49-0.17
						C127.42,197.36,127.36,198.19,127.3,199.02z"/>
					<polygon class="st6" points="127.09,203.45 128.59,203.48 128.65,201.05 127.15,200.97 					"/>
				</g>
			</g>
			<g>
				<g>
					<g>
						<path class="st5" d="M136.25,192.72c0.76-3.86,1.91-7.64,3.42-11.28l-13.85-5.75c-1.89,4.55-3.32,9.28-4.28,14.11
							L136.25,192.72z"/>
					</g>
					<path class="st6" d="M131,181.61l1.41,0.5c0.24-0.77,0.58-1.51,0.86-2.27l-1.39-0.55C131.59,180.07,131.25,180.82,131,181.61z"
						/>
					<path class="st6" d="M129.66,185.86l1.44,0.41c0.23-0.78,0.42-1.57,0.7-2.33l-1.43-0.46
						C130.09,184.26,129.89,185.07,129.66,185.86z"/>
					<polygon class="st6" points="128.58,190.17 130.05,190.48 130.59,188.12 129.14,187.75 					"/>
				</g>
			</g>
			<g>
				<g>
					<g>
						<path class="st5" d="M139.67,181.45c1.51-3.63,3.37-7.12,5.56-10.39l-12.46-8.34c-2.74,4.09-5.07,8.45-6.95,12.99
							L139.67,181.45z"/>
					</g>
					<path class="st6" d="M136.7,169.52l1.29,0.77c0.4-0.71,0.86-1.37,1.29-2.06l-1.26-0.82
						C137.58,168.12,137.11,168.8,136.7,169.52z"/>
					<path class="st6" d="M134.55,173.42l1.33,0.68c0.37-0.72,0.72-1.45,1.14-2.14l-1.31-0.73
						C135.29,171.94,134.93,172.69,134.55,173.42z"/>
					<polygon class="st6" points="132.64,177.44 134.02,178.03 135.02,175.82 133.67,175.17 					"/>
				</g>
			</g>
			<g>
				<g>
					<g>
						<path class="st5" d="M145.23,171.05c2.19-3.27,4.7-6.33,7.49-9.12l-10.61-10.61c-3.48,3.48-6.61,7.3-9.34,11.38L145.23,171.05
							z"/>
					</g>
					<path class="st6" d="M144.65,158.77l1.11,1.01c0.55-0.6,1.11-1.18,1.67-1.77l-1.08-1.05
						C145.79,157.57,145.2,158.16,144.65,158.77z"/>
					<path class="st6" d="M141.78,162.18l1.18,0.93c0.5-0.64,1-1.28,1.54-1.88l-1.14-0.97C142.8,160.88,142.29,161.53,141.78,162.18
						z"/>
					<polygon class="st6" points="139.13,165.75 140.37,166.6 141.78,164.62 140.57,163.72 					"/>
				</g>
			</g>
			<g>
				<g>
					<g>
						<path class="st5" d="M152.72,161.93c2.79-2.79,5.85-5.3,9.12-7.49l-8.34-12.46c-4.09,2.73-7.91,5.87-11.38,9.34L152.72,161.93
							z"/>
					</g>
					<polygon class="st6" points="154.53,149.77 155.43,150.97 157.41,149.57 156.56,148.33 					"/>
					<path class="st6" d="M151.06,152.56l0.97,1.14c0.6-0.54,1.24-1.05,1.88-1.54l-0.93-1.18
						C152.32,151.49,151.67,152.01,151.06,152.56z"/>
					<path class="st6" d="M147.77,155.55l1.04,1.08c0.59-0.56,1.17-1.13,1.77-1.67l-1.01-1.11
						C148.96,154.4,148.37,154.98,147.77,155.55z"/>
				</g>
			</g>
			<g>
				<g>
					<g>
						<path class="st5" d="M161.84,154.44c3.27-2.19,6.76-4.06,10.39-5.56l-5.75-13.85c-4.55,1.88-8.91,4.22-12.99,6.95
							L161.84,154.44z"/>
					</g>
					<polygon class="st6" points="165.98,142.87 166.63,144.23 168.84,143.22 168.25,141.85 					"/>
					<path class="st6" d="M162.03,144.92l0.73,1.31c0.69-0.42,1.43-0.77,2.14-1.14l-0.68-1.34
						C163.48,144.14,162.74,144.5,162.03,144.92z"/>
					<path class="st6" d="M158.23,147.22l0.82,1.26c0.69-0.43,1.35-0.9,2.06-1.29l-0.77-1.29
						C159.61,146.31,158.93,146.78,158.23,147.22z"/>
				</g>
			</g>
			<g>
				<g>
					<g>
						<path class="st5" d="M172.23,148.88c3.63-1.51,7.42-2.65,11.28-3.42l-2.91-14.71c-4.83,0.96-9.56,2.39-14.11,4.28
							L172.23,148.88z"/>
					</g>
					<polygon class="st6" points="178.56,138.34 178.93,139.8 181.3,139.25 180.98,137.79 					"/>
					<path class="st6" d="M174.28,139.58l0.46,1.43c0.76-0.28,1.55-0.47,2.33-0.7l-0.41-1.44
						C175.86,139.1,175.06,139.3,174.28,139.58z"/>
					<path class="st6" d="M170.1,141.09l0.55,1.39c0.76-0.29,1.5-0.62,2.27-0.86l-0.5-1.41C171.63,140.45,170.88,140.8,170.1,141.09
						z"/>
				</g>
			</g>
			<g>
				<g>
					<g>
						<path class="st5" d="M183.51,145.46c3.86-0.77,7.8-1.15,11.75-1.15v-15c-4.91,0.01-9.83,0.48-14.66,1.44L183.51,145.46z"/>
					</g>
					<polygon class="st6" points="191.78,136.37 191.86,137.86 194.29,137.8 194.27,136.3 					"/>
					<path class="st6" d="M187.34,136.75l0.17,1.49c0.8-0.12,1.61-0.17,2.42-0.23l-0.12-1.5
						C188.99,136.58,188.16,136.63,187.34,136.75z"/>
					<path class="st6" d="M182.95,137.41l0.27,1.48c0.8-0.13,1.59-0.31,2.4-0.4L185.4,137
						C184.58,137.09,183.77,137.27,182.95,137.41z"/>
				</g>
			</g>
			<g>
				<g>
					<g>
						<path class="st5" d="M195.26,144.31c3.95,0.01,7.89,0.39,11.75,1.15l2.91-14.71c-4.83-0.96-9.75-1.43-14.66-1.44V144.31z"/>
					</g>
					<path class="st6" d="M205.14,137l-0.22,1.48c0.81,0.09,1.6,0.27,2.4,0.4l0.27-1.48C206.77,137.28,205.96,137.09,205.14,137z"/>
					<path class="st6" d="M200.71,136.51l-0.12,1.5c0.81,0.06,1.62,0.11,2.42,0.23l0.17-1.49
						C202.36,136.63,201.53,136.58,200.71,136.51z"/>
					<polygon class="st6" points="196.27,136.3 196.25,137.8 198.68,137.86 198.75,136.37 					"/>
				</g>
			</g>
			<g>
				<g>
					<g>
						<path class="st5" d="M207,145.46c3.86,0.76,7.64,1.91,11.28,3.42l5.75-13.85c-4.55-1.89-9.28-3.32-14.11-4.28L207,145.46z"/>
					</g>
					<path class="st6" d="M218.11,140.22l-0.5,1.41c0.77,0.24,1.51,0.58,2.27,0.86l0.55-1.39
						C219.66,140.81,218.9,140.46,218.11,140.22z"/>
					<path class="st6" d="M213.86,138.87l-0.41,1.44c0.78,0.23,1.57,0.42,2.33,0.7l0.46-1.43
						C215.46,139.3,214.66,139.1,213.86,138.87z"/>
					<polygon class="st6" points="209.55,137.79 209.24,139.26 211.61,139.8 211.97,138.35 					"/>
				</g>
			</g>
			<g>
				<g>
					<g>
						<path class="st5" d="M218.28,148.88c3.63,1.51,7.12,3.37,10.39,5.56l8.34-12.46c-4.09-2.74-8.45-5.07-12.99-6.95
							L218.28,148.88z"/>
					</g>
					<path class="st6" d="M230.2,145.91l-0.77,1.29c0.71,0.4,1.37,0.86,2.06,1.29l0.82-1.26C231.6,146.8,230.92,146.32,230.2,145.91
						z"/>
					<path class="st6" d="M226.3,143.76l-0.68,1.33c0.72,0.37,1.45,0.72,2.14,1.14l0.73-1.31
						C227.78,144.5,227.04,144.14,226.3,143.76z"/>
					<polygon class="st6" points="222.29,141.86 221.69,143.23 223.91,144.24 224.55,142.88 					"/>
				</g>
			</g>
			<g>
				<g>
					<g>
						<path class="st5" d="M228.67,154.44c3.27,2.19,6.33,4.7,9.12,7.49l10.61-10.61c-3.48-3.48-7.3-6.61-11.38-9.34L228.67,154.44z
							"/>
					</g>
					<path class="st6" d="M240.95,153.86l-1.01,1.11c0.6,0.55,1.18,1.11,1.77,1.67l1.05-1.08
						C242.15,155,241.56,154.42,240.95,153.86z"/>
					<path class="st6" d="M237.54,150.99l-0.93,1.18c0.64,0.5,1.28,1,1.88,1.54l0.97-1.14C238.84,152.01,238.2,151.5,237.54,150.99z
						"/>
					<polygon class="st6" points="233.97,148.35 233.12,149.58 235.1,150.99 236,149.79 					"/>
				</g>
			</g>
			<g>
				<g>
					<g>
						<path class="st5" d="M237.8,161.93c2.79,2.79,5.3,5.85,7.49,9.12l12.46-8.34c-2.73-4.09-5.87-7.91-9.34-11.38L237.8,161.93z"
							/>
					</g>
					<polygon class="st6" points="249.95,163.74 248.75,164.64 250.16,166.62 251.39,165.77 					"/>
					<path class="st6" d="M247.16,160.27l-1.14,0.97c0.54,0.6,1.05,1.24,1.54,1.88l1.18-0.93
						C248.23,161.54,247.72,160.89,247.16,160.27z"/>
					<path class="st6" d="M244.17,156.98l-1.08,1.04c0.56,0.59,1.13,1.17,1.67,1.77l1.11-1.01
						C245.32,158.18,244.74,157.59,244.17,156.98z"/>
				</g>
			</g>
			<g>
				<g>
					<g>
						<path class="st5" d="M245.28,171.05c2.19,3.27,4.06,6.76,5.56,10.39l13.85-5.75c-1.88-4.55-4.22-8.91-6.95-12.99
							L245.28,171.05z"/>
					</g>
					<polygon class="st6" points="256.85,175.19 255.5,175.84 256.5,178.05 257.88,177.46 					"/>
					<path class="st6" d="M254.8,171.24l-1.31,0.73c0.42,0.69,0.77,1.43,1.14,2.14l1.34-0.68
						C255.59,172.7,255.23,171.95,254.8,171.24z"/>
					<path class="st6" d="M252.5,167.44l-1.26,0.82c0.43,0.69,0.9,1.35,1.29,2.06l1.29-0.77
						C253.42,168.82,252.94,168.14,252.5,167.44z"/>
				</g>
			</g>
			<g>
				<g>
					<g>
						<path class="st5" d="M250.84,181.45c1.51,3.63,2.65,7.42,3.42,11.28l14.71-2.91c-0.96-4.83-2.39-9.56-4.28-14.11
							L250.84,181.45z"/>
					</g>
					<polygon class="st6" points="261.38,187.77 259.92,188.14 260.47,190.51 261.94,190.2 					"/>
					<path class="st6" d="M260.14,183.49l-1.43,0.46c0.28,0.76,0.47,1.55,0.7,2.33l1.44-0.41
						C260.62,185.08,260.43,184.27,260.14,183.49z"/>
					<path class="st6" d="M258.63,179.31l-1.39,0.55c0.29,0.76,0.62,1.5,0.86,2.27l1.41-0.5
						C259.27,180.85,258.93,180.09,258.63,179.31z"/>
				</g>
			</g>
			<g>
				<g>
					<g>
						<path class="st5" d="M254.26,192.72c0.77,3.86,1.15,7.8,1.15,11.75h15c-0.01-4.91-0.48-9.83-1.44-14.66L254.26,192.72z"/>
					</g>
					<polygon class="st6" points="263.36,201 261.86,201.07 261.92,203.5 263.42,203.48 					"/>
					<path class="st6" d="M262.97,196.56l-1.49,0.17c0.12,0.8,0.17,1.61,0.23,2.42l1.5-0.12
						C263.15,198.2,263.1,197.38,262.97,196.56z"/>
					<path class="st6" d="M262.32,192.16l-1.48,0.27c0.13,0.8,0.31,1.59,0.4,2.4l1.48-0.21
						C262.63,193.79,262.45,192.98,262.32,192.16z"/>
				</g>
			</g>
		</g>
	</g>
</g>
<g>
	<g>
		<g>
			<g>
				<g>
					<g>
						<path class="st5" d="M420.61,132.98c-0.01,4.07-0.4,8.12-1.19,12.09l14.71,2.91c0.98-4.94,1.47-9.98,1.47-15.01H420.61z"/>
					</g>
					<path class="st6" d="M427.9,143.12l-1.48-0.22c-0.1,0.83-0.28,1.64-0.41,2.46l1.48,0.27
						C427.61,144.79,427.8,143.96,427.9,143.12z"/>
					<path class="st6" d="M428.39,138.57l-1.5-0.12c-0.06,0.83-0.12,1.66-0.24,2.48l1.49,0.17
						C428.28,140.27,428.33,139.42,428.39,138.57z"/>
					<polygon class="st6" points="428.61,134.02 427.11,134 427.05,136.49 428.55,136.57 					"/>
				</g>
			</g>
			<g>
				<g>
					<g>
						<path class="st5" d="M419.42,145.07c-0.79,3.97-1.97,7.87-3.52,11.61l13.85,5.75c1.93-4.65,3.4-9.5,4.38-14.45L419.42,145.07z
							"/>
					</g>
					<path class="st6" d="M424.6,156.43l-1.41-0.5c-0.25,0.8-0.59,1.55-0.89,2.33l1.39,0.55
						C423.99,158.02,424.34,157.24,424.6,156.43z"/>
					<path class="st6" d="M425.98,152.07l-1.44-0.41c-0.24,0.8-0.43,1.61-0.72,2.39l1.43,0.46
						C425.54,153.72,425.74,152.89,425.98,152.07z"/>
					<polygon class="st6" points="427.08,147.65 425.62,147.34 425.06,149.77 426.51,150.14 					"/>
				</g>
			</g>
			<g>
				<g>
					<g>
						<path class="st5" d="M415.9,156.68c-1.55,3.74-3.47,7.33-5.73,10.7l12.46,8.34c2.8-4.19,5.19-8.65,7.12-13.3L415.9,156.68z"/>
					</g>
					<path class="st6" d="M418.75,168.84l-1.29-0.77c-0.41,0.72-0.89,1.41-1.33,2.11l1.26,0.82
						C417.84,170.28,418.33,169.58,418.75,168.84z"/>
					<path class="st6" d="M420.96,164.84l-1.33-0.68c-0.38,0.74-0.74,1.49-1.17,2.2l1.31,0.73
						C420.2,166.36,420.57,165.59,420.96,164.84z"/>
					<polygon class="st6" points="422.91,160.72 421.53,160.12 420.51,162.4 421.86,163.04 					"/>
				</g>
			</g>
			<g>
				<g>
					<g>
						<path class="st5" d="M410.17,167.39c-2.25,3.37-4.84,6.52-7.71,9.39l10.61,10.61c3.56-3.56,6.77-7.47,9.57-11.66
							L410.17,167.39z"/>
					</g>
					<path class="st6" d="M410.59,179.87l-1.11-1.01c-0.56,0.62-1.14,1.21-1.72,1.81l1.08,1.05
						C409.43,181.11,410.02,180.5,410.59,179.87z"/>
					<path class="st6" d="M413.54,176.37l-1.18-0.93c-0.51,0.66-1.03,1.31-1.58,1.93l1.14,0.97
						C412.49,177.71,413.02,177.05,413.54,176.37z"/>
					<polygon class="st6" points="416.25,172.71 415.02,171.86 413.57,173.89 414.78,174.79 					"/>
				</g>
			</g>
			<g>
				<g>
					<g>
						<path class="st5" d="M402.46,176.78c-2.87,2.87-6.02,5.45-9.39,7.71l8.34,12.46c4.19-2.8,8.09-6.01,11.66-9.57L402.46,176.78z
							"/>
					</g>
					<polygon class="st6" points="400.45,189.11 399.55,187.91 397.52,189.35 398.37,190.59 					"/>
					<path class="st6" d="M404.02,186.25l-0.97-1.14c-0.62,0.56-1.27,1.07-1.93,1.58l0.93,1.18
						C402.72,187.34,403.38,186.81,404.02,186.25z"/>
					<path class="st6" d="M407.39,183.18l-1.04-1.08c-0.61,0.57-1.2,1.16-1.81,1.71l1.01,1.11
						C406.16,184.36,406.77,183.76,407.39,183.18z"/>
				</g>
			</g>
			<g>
				<g>
					<g>
						<path class="st5" d="M393.07,184.49c-3.37,2.25-6.96,4.18-10.7,5.73l5.75,13.85c4.66-1.93,9.12-4.32,13.3-7.12L393.07,184.49z
							"/>
					</g>
					<polygon class="st6" points="388.7,196.19 388.06,194.84 385.78,195.86 386.38,197.24 					"/>
					<path class="st6" d="M392.76,194.08l-0.73-1.31c-0.71,0.43-1.46,0.79-2.2,1.17l0.68,1.34
						C391.26,194.89,392.03,194.52,392.76,194.08z"/>
					<path class="st6" d="M396.66,191.73l-0.82-1.26c-0.71,0.44-1.39,0.92-2.11,1.33l0.77,1.29
						C395.24,192.66,395.94,192.18,396.66,191.73z"/>
				</g>
			</g>
			<g>
				<g>
					<g>
						<path class="st5" d="M382.37,190.22c-3.74,1.55-7.64,2.73-11.61,3.52l2.91,14.71c4.94-0.98,9.79-2.45,14.45-4.38
							L382.37,190.22z"/>
					</g>
					<polygon class="st6" points="375.79,200.84 375.43,199.38 372.99,199.94 373.31,201.41 					"/>
					<path class="st6" d="M380.19,199.57l-0.46-1.43c-0.78,0.29-1.59,0.48-2.39,0.72l0.41,1.44
						C378.56,200.06,379.39,199.86,380.19,199.57z"/>
					<path class="st6" d="M384.47,198.02l-0.55-1.39c-0.78,0.29-1.54,0.64-2.33,0.89l0.5,1.41
						C382.9,198.67,383.68,198.32,384.47,198.02z"/>
				</g>
			</g>
			<g>
				<g>
					<g>
						<path class="st5" d="M370.75,193.74c-3.97,0.79-8.03,1.18-12.09,1.19v15c5.03-0.01,10.06-0.49,15.01-1.47L370.75,193.74z"/>
					</g>
					<polygon class="st6" points="362.22,202.87 362.15,201.37 359.65,201.43 359.67,202.93 					"/>
					<path class="st6" d="M366.78,202.47l-0.17-1.49c-0.82,0.12-1.65,0.17-2.48,0.24l0.12,1.5
						C365.09,202.65,365.94,202.6,366.78,202.47z"/>
					<path class="st6" d="M371.29,201.8l-0.27-1.48c-0.82,0.13-1.63,0.32-2.46,0.41l0.21,1.48
						C369.62,202.12,370.45,201.94,371.29,201.8z"/>
				</g>
			</g>
			<g>
				<g>
					<g>
						<path class="st5" d="M358.66,194.93c-4.07-0.01-8.12-0.4-12.09-1.19l-2.91,14.71c4.94,0.98,9.98,1.47,15.01,1.47V194.93z"/>
					</g>
					<path class="st6" d="M348.52,202.22l0.22-1.48c-0.83-0.1-1.64-0.28-2.46-0.41l-0.27,1.48
						C346.84,201.93,347.68,202.12,348.52,202.22z"/>
					<path class="st6" d="M353.07,202.71l0.12-1.5c-0.83-0.06-1.66-0.12-2.48-0.24l-0.17,1.49
						C351.37,202.6,352.22,202.65,353.07,202.71z"/>
					<polygon class="st6" points="357.62,202.93 357.64,201.43 355.15,201.37 355.07,202.87 					"/>
				</g>
			</g>
			<g>
				<g>
					<g>
						<path class="st5" d="M346.56,193.74c-3.97-0.79-7.87-1.97-11.61-3.52l-5.74,13.85c4.65,1.93,9.5,3.4,14.45,4.38L346.56,193.74
							z"/>
					</g>
					<path class="st6" d="M335.21,198.92l0.5-1.41c-0.8-0.25-1.55-0.59-2.33-0.89l-0.55,1.39
						C333.62,198.31,334.39,198.66,335.21,198.92z"/>
					<path class="st6" d="M339.57,200.3l0.41-1.44c-0.8-0.24-1.61-0.43-2.39-0.72l-0.46,1.43
						C337.92,199.85,338.75,200.06,339.57,200.3z"/>
					<polygon class="st6" points="343.99,201.4 344.3,199.94 341.87,199.37 341.5,200.83 					"/>
				</g>
			</g>
			<g>
				<g>
					<g>
						<path class="st5" d="M334.95,190.22c-3.74-1.55-7.33-3.47-10.7-5.73l-8.34,12.46c4.19,2.8,8.65,5.19,13.3,7.12L334.95,190.22z
							"/>
					</g>
					<path class="st6" d="M322.8,193.07l0.77-1.29c-0.72-0.41-1.41-0.89-2.11-1.33l-0.82,1.26
						C321.36,192.16,322.06,192.65,322.8,193.07z"/>
					<path class="st6" d="M326.8,195.28l0.68-1.33c-0.74-0.38-1.49-0.74-2.2-1.17l-0.73,1.31
						C325.28,194.52,326.05,194.89,326.8,195.28z"/>
					<polygon class="st6" points="330.92,197.23 331.51,195.85 329.24,194.83 328.6,196.18 					"/>
				</g>
			</g>
			<g>
				<g>
					<g>
						<path class="st5" d="M324.25,184.49c-3.37-2.25-6.52-4.84-9.39-7.71l-10.61,10.61c3.56,3.56,7.47,6.77,11.66,9.57
							L324.25,184.49z"/>
					</g>
					<path class="st6" d="M311.77,184.91l1.01-1.11c-0.62-0.56-1.21-1.14-1.81-1.72l-1.05,1.08
						C310.53,183.74,311.14,184.34,311.77,184.91z"/>
					<path class="st6" d="M315.27,187.86l0.93-1.18c-0.66-0.51-1.31-1.03-1.93-1.58l-0.97,1.14
						C313.93,186.81,314.59,187.34,315.27,187.86z"/>
					<polygon class="st6" points="318.93,190.57 319.78,189.34 317.74,187.89 316.85,189.09 					"/>
				</g>
			</g>
			<g>
				<g>
					<g>
						<path class="st5" d="M314.86,176.78c-2.87-2.87-5.45-6.02-7.71-9.39l-12.46,8.34c2.8,4.19,6.01,8.09,9.57,11.66L314.86,176.78
							z"/>
					</g>
					<polygon class="st6" points="302.53,174.77 303.73,173.87 302.29,171.84 301.05,172.69 					"/>
					<path class="st6" d="M305.39,178.34l1.14-0.97c-0.56-0.62-1.07-1.27-1.58-1.93l-1.18,0.93
						C304.3,177.04,304.82,177.7,305.39,178.34z"/>
					<path class="st6" d="M308.46,181.71l1.08-1.04c-0.57-0.61-1.16-1.2-1.71-1.81l-1.11,1.01
						C307.28,180.48,307.88,181.09,308.46,181.71z"/>
				</g>
			</g>
			<g>
				<g>
					<g>
						<path class="st5" d="M307.15,167.39c-2.25-3.37-4.18-6.96-5.73-10.7l-13.85,5.75c1.93,4.66,4.32,9.12,7.12,13.3L307.15,167.39
							z"/>
					</g>
					<polygon class="st6" points="295.45,163.02 296.8,162.37 295.77,160.1 294.4,160.7 					"/>
					<path class="st6" d="M297.56,167.08l1.31-0.73c-0.43-0.71-0.79-1.46-1.17-2.2l-1.34,0.68
						C296.75,165.58,297.12,166.35,297.56,167.08z"/>
					<path class="st6" d="M299.91,170.98l1.26-0.82c-0.44-0.71-0.92-1.39-1.33-2.11l-1.29,0.77
						C298.97,169.56,299.46,170.26,299.91,170.98z"/>
				</g>
			</g>
			<g>
				<g>
					<g>
						<path class="st5" d="M301.42,156.68c-1.55-3.74-2.73-7.64-3.52-11.61l-14.71,2.91c0.98,4.94,2.45,9.79,4.38,14.45
							L301.42,156.68z"/>
					</g>
					<polygon class="st6" points="290.8,150.11 292.26,149.74 291.7,147.31 290.23,147.63 					"/>
					<path class="st6" d="M292.07,154.5l1.43-0.46c-0.29-0.78-0.48-1.59-0.72-2.39l-1.44,0.41
						C291.58,152.88,291.78,153.71,292.07,154.5z"/>
					<path class="st6" d="M293.62,158.79l1.39-0.55c-0.29-0.78-0.64-1.54-0.89-2.33l-1.41,0.5
						C292.97,157.22,293.32,158,293.62,158.79z"/>
				</g>
			</g>
			<g>
				<g>
					<g>
						<path class="st5" d="M297.9,145.07c-0.79-3.97-1.18-8.03-1.19-12.09h-15c0.01,5.03,0.49,10.06,1.47,15.01L297.9,145.07z"/>
					</g>
					<polygon class="st6" points="288.77,136.54 290.27,136.47 290.21,133.97 288.71,133.99 					"/>
					<path class="st6" d="M289.17,141.1l1.49-0.17c-0.12-0.82-0.17-1.65-0.24-2.48l-1.5,0.12
						C288.99,139.41,289.04,140.26,289.17,141.1z"/>
					<path class="st6" d="M289.84,145.61l1.48-0.27c-0.13-0.82-0.32-1.63-0.41-2.46l-1.48,0.21
						C289.51,143.94,289.7,144.77,289.84,145.61z"/>
				</g>
			</g>
			<g>
				<g>
					<g>
						<path class="st5" d="M296.71,132.98c0.01-4.07,0.4-8.12,1.19-12.09l-14.71-2.91c-0.98,4.94-1.47,9.98-1.47,15.01H296.71z"/>
					</g>
					<path class="st6" d="M289.42,122.84l1.48,0.22c0.1-0.83,0.28-1.64,0.41-2.46l-1.48-0.27
						C289.71,121.16,289.52,122,289.42,122.84z"/>
					<path class="st6" d="M288.92,127.39l1.5,0.12c0.06-0.83,0.12-1.66,0.24-2.48l-1.49-0.17
						C289.04,125.69,288.99,126.54,288.92,127.39z"/>
					<polygon class="st6" points="288.71,131.94 290.21,131.96 290.27,129.46 288.77,129.39 					"/>
				</g>
			</g>
			<g>
				<g>
					<g>
						<path class="st5" d="M297.9,120.88c0.79-3.97,1.97-7.87,3.52-11.61l-13.85-5.75c-1.93,4.65-3.4,9.5-4.38,14.45L297.9,120.88z"
							/>
					</g>
					<path class="st6" d="M292.72,109.52l1.41,0.5c0.25-0.8,0.59-1.55,0.89-2.33l-1.39-0.55
						C293.33,107.94,292.98,108.71,292.72,109.52z"/>
					<path class="st6" d="M291.34,113.88l1.44,0.41c0.24-0.8,0.43-1.61,0.72-2.39l-1.43-0.46
						C291.78,112.24,291.58,113.07,291.34,113.88z"/>
					<polygon class="st6" points="290.24,118.31 291.7,118.62 292.26,116.19 290.81,115.82 					"/>
				</g>
			</g>
			<g>
				<g>
					<g>
						<path class="st5" d="M301.42,109.27c1.55-3.74,3.47-7.33,5.73-10.7l-12.46-8.34c-2.8,4.19-5.19,8.65-7.12,13.3L301.42,109.27z
							"/>
					</g>
					<path class="st6" d="M298.57,97.12l1.29,0.77c0.41-0.72,0.89-1.41,1.33-2.11l-1.26-0.82
						C299.48,95.68,298.99,96.38,298.57,97.12z"/>
					<path class="st6" d="M296.36,101.12l1.33,0.68c0.38-0.74,0.74-1.49,1.17-2.2l-1.31-0.73
						C297.12,99.6,296.75,100.37,296.36,101.12z"/>
					<polygon class="st6" points="294.41,105.24 295.79,105.83 296.81,103.56 295.46,102.91 					"/>
				</g>
			</g>
			<g>
				<g>
					<g>
						<path class="st5" d="M307.15,98.57c2.25-3.37,4.84-6.52,7.71-9.39l-10.61-10.61c-3.56,3.56-6.77,7.47-9.57,11.66L307.15,98.57
							z"/>
					</g>
					<path class="st6" d="M306.73,86.08l1.11,1.01c0.56-0.62,1.14-1.21,1.72-1.81l-1.08-1.05C307.89,84.85,307.3,85.46,306.73,86.08
						z"/>
					<path class="st6" d="M303.78,89.59l1.18,0.93c0.51-0.66,1.03-1.31,1.58-1.93l-1.14-0.97C304.83,88.25,304.3,88.91,303.78,89.59
						z"/>
					<polygon class="st6" points="301.07,93.25 302.3,94.1 303.75,92.06 302.54,91.17 					"/>
				</g>
			</g>
			<g>
				<g>
					<g>
						<path class="st5" d="M314.86,89.18c2.87-2.87,6.02-5.45,9.39-7.71L315.91,69c-4.19,2.8-8.09,6.01-11.66,9.57L314.86,89.18z"/>
					</g>
					<polygon class="st6" points="316.87,76.85 317.77,78.05 319.8,76.6 318.95,75.37 					"/>
					<path class="st6" d="M313.3,79.71l0.97,1.14c0.62-0.56,1.27-1.07,1.93-1.58l-0.93-1.18C314.6,78.61,313.94,79.14,313.3,79.71z"
						/>
					<path class="st6" d="M309.93,82.78l1.04,1.08c0.61-0.57,1.2-1.16,1.81-1.71l-1.01-1.11C311.15,81.6,310.55,82.2,309.93,82.78z"
						/>
				</g>
			</g>
			<g>
				<g>
					<g>
						<path class="st5" d="M324.25,81.47c3.37-2.25,6.96-4.18,10.7-5.73l-5.74-13.85c-4.66,1.93-9.12,4.32-13.3,7.12L324.25,81.47z"
							/>
					</g>
					<polygon class="st6" points="328.62,69.77 329.26,71.12 331.54,70.09 330.94,68.72 					"/>
					<path class="st6" d="M324.56,71.87l0.73,1.31c0.71-0.43,1.46-0.79,2.2-1.17l-0.68-1.34C326.06,71.07,325.29,71.44,324.56,71.87
						z"/>
					<path class="st6" d="M320.66,74.23l0.82,1.26c0.71-0.44,1.39-0.92,2.11-1.33l-0.77-1.29
						C322.08,73.29,321.38,73.78,320.66,74.23z"/>
				</g>
			</g>
			<g>
				<g>
					<g>
						<path class="st5" d="M334.95,75.74c3.74-1.55,7.64-2.73,11.61-3.52l-2.91-14.71c-4.94,0.98-9.79,2.45-14.45,4.38L334.95,75.74
							z"/>
					</g>
					<polygon class="st6" points="341.53,65.12 341.89,66.58 344.33,66.02 344.01,64.55 					"/>
					<path class="st6" d="M337.13,66.39l0.46,1.43c0.78-0.29,1.59-0.48,2.39-0.72l-0.41-1.44C338.76,65.9,337.93,66.1,337.13,66.39z
						"/>
					<path class="st6" d="M332.85,67.94l0.55,1.39c0.78-0.29,1.54-0.64,2.33-0.89l-0.5-1.41C334.42,67.29,333.64,67.64,332.85,67.94
						z"/>
				</g>
			</g>
			<g>
				<g>
					<g>
						<path class="st5" d="M346.56,72.22c3.97-0.79,8.03-1.18,12.09-1.19v-15c-5.03,0.01-10.06,0.49-15.01,1.47L346.56,72.22z"/>
					</g>
					<polygon class="st6" points="355.1,63.09 355.17,64.59 357.67,64.53 357.64,63.03 					"/>
					<path class="st6" d="M350.54,63.49l0.17,1.49c0.82-0.12,1.65-0.17,2.48-0.24l-0.12-1.5C352.23,63.31,351.38,63.36,350.54,63.49
						z"/>
					<path class="st6" d="M346.03,64.16l0.27,1.48c0.82-0.13,1.63-0.32,2.46-0.41l-0.21-1.48C347.7,63.83,346.87,64.02,346.03,64.16
						z"/>
				</g>
			</g>
			<g>
				<g>
					<g>
						<path class="st5" d="M358.66,71.03c4.07,0.01,8.12,0.4,12.09,1.19l2.91-14.71c-4.94-0.98-9.98-1.47-15.01-1.47V71.03z"/>
					</g>
					<path class="st6" d="M368.8,63.74l-0.22,1.48c0.83,0.1,1.64,0.28,2.46,0.41l0.27-1.48C370.47,64.03,369.64,63.84,368.8,63.74z"
						/>
					<path class="st6" d="M364.25,63.24l-0.12,1.5c0.83,0.06,1.66,0.12,2.48,0.24l0.17-1.49C365.95,63.36,365.1,63.31,364.25,63.24z
						"/>
					<polygon class="st6" points="359.7,63.03 359.68,64.53 362.17,64.59 362.25,63.09 					"/>
				</g>
			</g>
			<g>
				<g>
					<g>
						<path class="st5" d="M370.75,72.22c3.97,0.79,7.87,1.97,11.61,3.52l5.75-13.85c-4.65-1.93-9.5-3.4-14.45-4.38L370.75,72.22z"
							/>
					</g>
					<path class="st6" d="M382.11,67.04l-0.5,1.41c0.8,0.25,1.55,0.59,2.33,0.89l0.55-1.39C383.7,67.65,382.93,67.3,382.11,67.04z"
						/>
					<path class="st6" d="M377.75,65.66l-0.41,1.44c0.8,0.24,1.61,0.43,2.39,0.72l0.46-1.43C379.4,66.1,378.57,65.9,377.75,65.66z"
						/>
					<polygon class="st6" points="373.33,64.55 373.02,66.02 375.45,66.58 375.82,65.13 					"/>
				</g>
			</g>
			<g>
				<g>
					<g>
						<path class="st5" d="M382.37,75.74c3.74,1.55,7.33,3.47,10.7,5.73L401.41,69c-4.19-2.8-8.65-5.19-13.3-7.12L382.37,75.74z"/>
					</g>
					<path class="st6" d="M394.52,72.89l-0.77,1.29c0.72,0.41,1.41,0.89,2.11,1.33l0.82-1.26C395.96,73.8,395.26,73.31,394.52,72.89
						z"/>
					<path class="st6" d="M390.52,70.68l-0.68,1.33c0.74,0.38,1.49,0.74,2.2,1.17l0.73-1.31C392.04,71.44,391.27,71.07,390.52,70.68
						z"/>
					<polygon class="st6" points="386.4,68.73 385.8,70.1 388.08,71.13 388.72,69.78 					"/>
				</g>
			</g>
			<g>
				<g>
					<g>
						<path class="st5" d="M393.07,81.47c3.37,2.25,6.52,4.84,9.39,7.71l10.61-10.61c-3.56-3.56-7.47-6.77-11.66-9.57L393.07,81.47z
							"/>
					</g>
					<path class="st6" d="M405.55,81.04l-1.01,1.11c0.62,0.56,1.21,1.14,1.81,1.72l1.05-1.08
						C406.79,82.21,406.18,81.62,405.55,81.04z"/>
					<path class="st6" d="M402.05,78.1l-0.93,1.18c0.66,0.51,1.31,1.03,1.93,1.58l0.97-1.14C403.39,79.15,402.73,78.62,402.05,78.1z
						"/>
					<polygon class="st6" points="398.39,75.39 397.54,76.62 399.57,78.07 400.47,76.86 					"/>
				</g>
			</g>
			<g>
				<g>
					<g>
						<path class="st5" d="M402.46,89.18c2.87,2.87,5.45,6.02,7.71,9.39l12.46-8.34c-2.8-4.19-6.01-8.09-9.57-11.66L402.46,89.18z"
							/>
					</g>
					<polygon class="st6" points="414.79,91.19 413.59,92.08 415.03,94.12 416.27,93.27 					"/>
					<path class="st6" d="M411.93,87.62l-1.14,0.97c0.56,0.62,1.07,1.27,1.58,1.93l1.18-0.93
						C413.02,88.92,412.49,88.26,411.93,87.62z"/>
					<path class="st6" d="M408.86,84.25l-1.08,1.04c0.57,0.61,1.16,1.2,1.71,1.81l1.11-1.01C410.04,85.47,409.44,84.87,408.86,84.25
						z"/>
				</g>
			</g>
			<g>
				<g>
					<g>
						<path class="st5" d="M410.17,98.57c2.25,3.37,4.18,6.96,5.73,10.7l13.85-5.75c-1.93-4.66-4.32-9.12-7.12-13.3L410.17,98.57z"
							/>
					</g>
					<polygon class="st6" points="421.87,102.94 420.52,103.58 421.54,105.86 422.92,105.26 					"/>
					<path class="st6" d="M419.76,98.88l-1.31,0.73c0.43,0.71,0.79,1.46,1.17,2.2l1.34-0.68C420.57,100.38,420.2,99.61,419.76,98.88
						z"/>
					<path class="st6" d="M417.41,94.98l-1.26,0.82c0.44,0.71,0.92,1.39,1.33,2.11l1.29-0.77C418.35,96.4,417.86,95.7,417.41,94.98z
						"/>
				</g>
			</g>
			<g>
				<g>
					<g>
						<path class="st5" d="M415.9,109.27c1.55,3.74,2.73,7.64,3.52,11.61l14.71-2.91c-0.98-4.94-2.45-9.79-4.38-14.45L415.9,109.27z
							"/>
					</g>
					<polygon class="st6" points="426.52,115.85 425.06,116.21 425.62,118.64 427.09,118.33 					"/>
					<path class="st6" d="M425.25,111.45l-1.43,0.46c0.29,0.78,0.48,1.59,0.72,2.39l1.44-0.41
						C425.74,113.08,425.54,112.25,425.25,111.45z"/>
					<path class="st6" d="M423.7,107.17l-1.39,0.55c0.29,0.78,0.64,1.54,0.89,2.33l1.41-0.5C424.35,108.74,424,107.96,423.7,107.17z
						"/>
				</g>
			</g>
			<g>
				<g>
					<g>
						<path class="st5" d="M419.42,120.88c0.79,3.97,1.18,8.03,1.19,12.09h15c-0.01-5.03-0.49-10.06-1.47-15.01L419.42,120.88z"/>
					</g>
					<polygon class="st6" points="428.55,129.41 427.05,129.49 427.11,131.99 428.61,131.96 					"/>
					<path class="st6" d="M428.15,124.86l-1.49,0.17c0.12,0.82,0.17,1.65,0.24,2.48l1.5-0.12
						C428.33,126.55,428.28,125.7,428.15,124.86z"/>
					<path class="st6" d="M427.48,120.35l-1.48,0.27c0.13,0.82,0.32,1.63,0.41,2.46l1.48-0.21
						C427.8,122.02,427.62,121.19,427.48,120.35z"/>
				</g>
			</g>
		</g>
	</g>
</g>
<g>
	<g>
		<g>
			<g>
				<g>
					<g>
						<path class="st5" d="M58.82,262.68c-0.01,3.25-0.76,6.45-2.16,9.36l13.51,6.52c2.39-4.93,3.64-10.42,3.65-15.87H58.82z"/>
					</g>
					<path class="st6" d="M65.21,272.34l-1.42-0.49c-0.29,0.73-0.49,1.48-0.85,2.18l1.37,0.61
						C64.68,273.91,64.91,273.11,65.21,272.34z"/>
					<path class="st6" d="M66.34,268.07l-1.48-0.27c-0.08,0.78-0.36,1.52-0.53,2.28l1.45,0.39
						C65.96,269.67,66.25,268.89,66.34,268.07z"/>
					<path class="st6" d="M66.8,263.69l-1.5-0.05c-0.06,0.78-0.04,1.57-0.16,2.34l1.49,0.17C66.76,265.33,66.74,264.51,66.8,263.69z
						"/>
				</g>
			</g>
			<g>
				<g>
					<g>
						<path class="st5" d="M56.66,272.04c-1.41,2.89-3.42,5.54-5.99,7.52l9.36,11.72c4.31-3.38,7.75-7.81,10.14-12.73L56.66,272.04z
							"/>
					</g>
					<path class="st6" d="M58.25,283.54l-1.07-1.06c-0.56,0.54-1.15,1.05-1.73,1.58l0.97,1.14
						C57.04,284.66,57.66,284.11,58.25,283.54z"/>
					<path class="st6" d="M61.11,280.16l-1.21-0.89c-0.48,0.62-0.9,1.28-1.46,1.83l1.13,0.98C60.15,281.51,60.6,280.81,61.11,280.16
						z"/>
					<path class="st6" d="M63.45,276.44l-1.33-0.7c-0.34,0.7-0.79,1.34-1.18,2.02l1.27,0.81C62.62,277.85,63.09,277.18,63.45,276.44
						z"/>
				</g>
			</g>
			<g>
				<g>
					<g>
						<path class="st5" d="M50.67,279.56c-2.54,2.01-5.51,3.44-8.65,4.16l3.32,14.63c5.35-1.22,10.4-3.67,14.68-7.07L50.67,279.56z"
							/>
					</g>
					<path class="st6" d="M47.11,290.59l-0.5-1.41c-0.37,0.13-0.73,0.28-1.1,0.4l-1.13,0.29l0.38,1.45l1.2-0.31
						C46.34,290.88,46.72,290.73,47.11,290.59z"/>
					<polygon class="st6" points="51.17,288.82 50.46,287.5 48.35,288.52 48.94,289.9 					"/>
					<path class="st6" d="M54.87,286.44l-0.9-1.2l-0.94,0.7c-0.32,0.22-0.66,0.41-1,0.62l0.79,1.27c0.35-0.22,0.71-0.42,1.05-0.65
						L54.87,286.44z"/>
				</g>
			</g>
			<g>
				<g>
					<g>
						<path class="st5" d="M42.02,283.73c-3.13,0.74-6.49,0.74-9.62,0l-3.32,14.63c5.35,1.24,10.92,1.24,16.27,0L42.02,283.73z"/>
					</g>
					<polygon class="st6" points="34.02,292.14 34.18,290.65 31.86,290.29 31.58,291.77 					"/>
					<polygon class="st6" points="38.44,292.26 38.38,290.76 37.21,290.82 36.04,290.76 35.98,292.26 37.21,292.32 					"/>
					<polygon class="st6" points="42.82,291.77 42.54,290.3 40.22,290.65 40.38,292.14 					"/>
				</g>
			</g>
			<g>
				<g>
					<g>
						<path class="st5" d="M32.4,283.73c-3.14-0.72-6.11-2.16-8.65-4.16l-9.36,11.72c4.28,3.4,9.34,5.85,14.68,7.07L32.4,283.73z"/>
					</g>
					<path class="st6" d="M21.57,287.82l0.79-1.27c-0.33-0.21-0.68-0.39-0.99-0.62l-0.94-0.7l-0.9,1.2l0.99,0.74
						C20.86,287.4,21.22,287.6,21.57,287.82z"/>
					<polygon class="st6" points="25.47,289.89 26.07,288.51 23.96,287.5 23.25,288.82 					"/>
					<polygon class="st6" points="29.65,291.31 30.03,289.86 28.89,289.57 27.79,289.17 27.29,290.58 28.45,291 					"/>
				</g>
			</g>
			<g>
				<g>
					<g>
						<path class="st5" d="M23.76,279.56c-2.57-1.98-4.58-4.64-5.99-7.52l-13.51,6.52c2.39,4.92,5.83,9.35,10.14,12.73L23.76,279.56
							z"/>
					</g>
					<path class="st6" d="M12.21,278.54l1.27-0.8c-0.39-0.68-0.85-1.32-1.18-2.02l-1.33,0.7C11.32,277.16,11.8,277.83,12.21,278.54z
						"/>
					<path class="st6" d="M14.85,282.09l1.13-0.98c-0.55-0.55-0.98-1.22-1.46-1.83l-1.21,0.89
						C13.82,280.81,14.27,281.5,14.85,282.09z"/>
					<path class="st6" d="M17.97,285.2l0.98-1.14c-0.57-0.53-1.17-1.04-1.73-1.59l-1.07,1.06C16.74,284.1,17.37,284.64,17.97,285.2z
						"/>
				</g>
			</g>
			<g>
				<g>
					<g>
						<path class="st5" d="M17.77,272.04c-1.4-2.9-2.15-6.1-2.16-9.36h-15c0.01,5.46,1.27,10.95,3.65,15.87L17.77,272.04z"/>
					</g>
					<path class="st6" d="M7.79,266.12l1.49-0.17c-0.12-0.77-0.1-1.56-0.16-2.34l-1.5,0.05C7.68,264.48,7.67,265.31,7.79,266.12z"/>
					<path class="st6" d="M8.64,270.46l1.45-0.39c-0.17-0.76-0.45-1.5-0.53-2.28l-1.48,0.27C8.17,268.88,8.46,269.66,8.64,270.46z"
						/>
					<path class="st6" d="M10.1,274.62l1.37-0.61c-0.35-0.7-0.56-1.46-0.84-2.18l-1.42,0.49C9.51,273.08,9.74,273.88,10.1,274.62z"
						/>
				</g>
			</g>
			<g>
				<g>
					<g>
						<path class="st5" d="M15.61,262.68c0.01-3.25,0.76-6.45,2.16-9.36l-13.51-6.52c-2.39,4.93-3.64,10.42-3.65,15.87H15.61z"/>
					</g>
					<path class="st6" d="M9.22,253.02l1.42,0.49c0.29-0.73,0.49-1.48,0.85-2.18l-1.37-0.61C9.74,251.46,9.52,252.25,9.22,253.02z"
						/>
					<path class="st6" d="M8.09,257.29l1.48,0.27c0.08-0.78,0.36-1.52,0.53-2.28l-1.45-0.39C8.47,255.69,8.18,256.47,8.09,257.29z"
						/>
					<path class="st6" d="M7.63,261.67l1.5,0.05c0.06-0.78,0.04-1.57,0.16-2.34l-1.49-0.17C7.67,260.03,7.69,260.86,7.63,261.67z"/>
				</g>
			</g>
			<g>
				<g>
					<g>
						<path class="st5" d="M17.77,253.32c1.41-2.89,3.42-5.54,5.99-7.52l-9.36-11.72c-4.31,3.38-7.75,7.81-10.14,12.73L17.77,253.32
							z"/>
					</g>
					<path class="st6" d="M16.17,241.82l1.07,1.06c0.56-0.54,1.15-1.05,1.73-1.58l-0.97-1.14
						C17.38,240.71,16.76,241.25,16.17,241.82z"/>
					<path class="st6" d="M13.32,245.2l1.21,0.89c0.48-0.62,0.9-1.28,1.46-1.83l-1.13-0.98C14.27,243.85,13.82,244.55,13.32,245.2z"
						/>
					<path class="st6" d="M10.97,248.93l1.33,0.7c0.34-0.7,0.79-1.34,1.18-2.02l-1.27-0.81C11.81,247.51,11.33,248.19,10.97,248.93z
						"/>
				</g>
			</g>
			<g>
				<g>
					<g>
						<path class="st5" d="M23.76,245.8c2.54-2.01,5.51-3.44,8.65-4.16l-3.32-14.63c-5.35,1.22-10.4,3.67-14.68,7.07L23.76,245.8z"
							/>
					</g>
					<path class="st6" d="M27.31,234.77l0.5,1.41c0.37-0.13,0.73-0.28,1.1-0.4l1.13-0.29l-0.38-1.45l-1.2,0.31
						C28.08,234.48,27.7,234.64,27.31,234.77z"/>
					<polygon class="st6" points="23.26,236.54 23.97,237.86 26.08,236.84 25.48,235.47 					"/>
					<path class="st6" d="M19.55,238.92l0.9,1.2l0.94-0.7c0.32-0.22,0.66-0.41,1-0.62l-0.79-1.27c-0.35,0.22-0.71,0.42-1.05,0.65
						L19.55,238.92z"/>
				</g>
			</g>
			<g>
				<g>
					<g>
						<path class="st5" d="M32.4,241.63c3.13-0.74,6.49-0.74,9.62,0l3.32-14.63c-5.35-1.24-10.92-1.24-16.27,0L32.4,241.63z"/>
					</g>
					<polygon class="st6" points="40.4,233.22 40.24,234.71 42.56,235.07 42.84,233.59 					"/>
					<polygon class="st6" points="35.99,233.11 36.05,234.6 37.22,234.54 38.39,234.6 38.45,233.11 37.22,233.04 					"/>
					<polygon class="st6" points="31.61,233.59 31.89,235.06 34.2,234.71 34.05,233.22 					"/>
				</g>
			</g>
			<g>
				<g>
					<g>
						<path class="st5" d="M42.02,241.63c3.14,0.72,6.11,2.16,8.65,4.16l9.36-11.72c-4.28-3.4-9.34-5.85-14.68-7.07L42.02,241.63z"
							/>
					</g>
					<path class="st6" d="M52.86,237.54l-0.79,1.27c0.33,0.21,0.68,0.39,0.99,0.62l0.94,0.7l0.9-1.2l-0.99-0.74
						C53.57,237.96,53.21,237.76,52.86,237.54z"/>
					<polygon class="st6" points="48.95,235.47 48.36,236.85 50.47,237.86 51.18,236.54 					"/>
					<polygon class="st6" points="44.78,234.06 44.4,235.51 45.53,235.8 46.63,236.2 47.14,234.78 45.97,234.36 					"/>
				</g>
			</g>
			<g>
				<g>
					<g>
						<path class="st5" d="M50.67,245.8c2.57,1.98,4.58,4.64,5.99,7.52l13.51-6.52c-2.39-4.92-5.83-9.35-10.14-12.73L50.67,245.8z"
							/>
					</g>
					<path class="st6" d="M62.22,246.82l-1.27,0.8c0.39,0.68,0.85,1.32,1.18,2.02l1.33-0.7C63.11,248.21,62.63,247.53,62.22,246.82z
						"/>
					<path class="st6" d="M59.58,243.27l-1.13,0.98c0.55,0.55,0.98,1.22,1.46,1.83l1.21-0.89
						C60.61,244.56,60.16,243.86,59.58,243.27z"/>
					<path class="st6" d="M56.46,240.17l-0.98,1.14c0.57,0.53,1.17,1.04,1.73,1.59l1.07-1.06
						C57.68,241.26,57.06,240.72,56.46,240.17z"/>
				</g>
			</g>
			<g>
				<g>
					<g>
						<path class="st5" d="M56.66,253.32c1.4,2.9,2.15,6.1,2.16,9.36h15c-0.01-5.46-1.27-10.95-3.65-15.87L56.66,253.32z"/>
					</g>
					<path class="st6" d="M66.63,259.24l-1.49,0.17c0.12,0.77,0.1,1.56,0.16,2.34l1.5-0.05C66.74,260.88,66.76,260.05,66.63,259.24z
						"/>
					<path class="st6" d="M65.78,254.9l-1.45,0.39c0.17,0.76,0.45,1.5,0.53,2.28l1.48-0.27C66.25,256.48,65.96,255.7,65.78,254.9z"
						/>
					<path class="st6" d="M64.33,250.74l-1.37,0.61c0.35,0.7,0.56,1.46,0.84,2.18l1.42-0.49C64.92,252.28,64.69,251.48,64.33,250.74
						z"/>
				</g>
			</g>
		</g>
	</g>
</g>
<circle class="st1" cx="191.6" cy="187.98" r="7.66"/>
<g>
	<circle class="st1" cx="195.26" cy="204.47" r="9.66"/>
	<path d="M195.26,196.81c4.23,0,7.66,3.43,7.66,7.66c0,4.23-3.43,7.66-7.66,7.66c-4.23,0-7.66-3.43-7.66-7.66
		C187.6,200.24,191.03,196.81,195.26,196.81 M195.26,192.81c-6.43,0-11.66,5.23-11.66,11.66s5.23,11.66,11.66,11.66
		s11.66-5.23,11.66-11.66S201.68,192.81,195.26,192.81L195.26,192.81z"/>
</g>
<g>
	<path class="st2" d="M358.66,142.64c-5.33,0-9.66-4.33-9.66-9.66s4.33-9.66,9.66-9.66s9.66,4.33,9.66,9.66
		S363.99,142.64,358.66,142.64z"/>
	<path d="M358.66,125.32c4.23,0,7.66,3.43,7.66,7.66c0,4.23-3.43,7.66-7.66,7.66s-7.66-3.43-7.66-7.66
		C351,128.75,354.43,125.32,358.66,125.32 M358.66,121.32c-6.43,0-11.66,5.23-11.66,11.66c0,6.43,5.23,11.66,11.66,11.66
		s11.66-5.23,11.66-11.66C370.32,126.55,365.09,121.32,358.66,121.32L358.66,121.32z"/>
</g>
<g>
	<circle class="st0" cx="137.3" cy="85.49" r="9.66"/>
	<path d="M137.3,77.83c4.23,0,7.66,3.43,7.66,7.66c0,4.23-3.43,7.66-7.66,7.66c-4.23,0-7.66-3.43-7.66-7.66
		C129.64,81.26,133.07,77.83,137.3,77.83 M137.3,73.83c-6.43,0-11.66,5.23-11.66,11.66c0,6.43,5.23,11.66,11.66,11.66
		s11.66-5.23,11.66-11.66C148.96,79.06,143.73,73.83,137.3,73.83L137.3,73.83z"/>
</g>
<g>
	<path class="st4" d="M37.21,272.34c-5.33,0-9.66-4.33-9.66-9.66s4.33-9.66,9.66-9.66s9.66,4.33,9.66,9.66
		S42.54,272.34,37.21,272.34z"/>
	<path d="M37.21,255.02c4.23,0,7.66,3.43,7.66,7.66s-3.43,7.66-7.66,7.66s-7.66-3.43-7.66-7.66S32.98,255.02,37.21,255.02
		 M37.21,251.02c-6.43,0-11.66,5.23-11.66,11.66s5.23,11.66,11.66,11.66s11.66-5.23,11.66-11.66S43.64,251.02,37.21,251.02
		L37.21,251.02z"/>
</g>
<circle class="st1" cx="143.27" cy="227.45" r="7.66"/>
<circle class="st0" cx="62.09" cy="110" r="7.66"/>
</svg>
