<?xml version="1.0" encoding="utf-8"?>
<!-- Generator: Adobe Illustrator 26.5.0, SVG Export Plug-In . SVG Version: 6.00 Build 0)  -->
<svg version="1.0" id="Layer_1" xmlns="http://www.w3.org/2000/svg" xmlns:xlink="http://www.w3.org/1999/xlink" x="0px" y="0px"
	 viewBox="0 0 500 330" style="enable-background:new 0 0 500 330;" xml:space="preserve">
<style type="text/css">
	.st0{fill:none;stroke:#000000;stroke-width:2;stroke-miterlimit:10;}
	.st1{fill:#00A651;}
	.st2{fill:#2E3192;}
	.st3{fill:#F15A29;}
	.st4{fill:#FFFFFF;}
	.st5{fill:#6D6E71;}
	.st6{fill:none;}
	.st7{fill-rule:evenodd;clip-rule:evenodd;}
	.st8{fill:none;stroke:#000000;stroke-miterlimit:10;}
</style>
<line class="st0" x1="160.64" y1="130.62" x2="202.49" y2="118.87"/>
<line class="st0" x1="160.64" y1="130.62" x2="125.21" y2="156.34"/>
<line class="st0" x1="160.64" y1="130.62" x2="125.21" y2="93.68"/>
<circle class="st1" cx="50.23" cy="180.32" r="7.66"/>
<circle class="st1" cx="62.09" cy="253.15" r="7.66"/>
<circle class="st1" cx="62.09" cy="37.45" r="7.66"/>
<circle class="st2" cx="298.12" cy="102.34" r="7.66"/>
<g>
	<path class="st3" d="M125.21,103.34c-5.33,0-9.66-4.33-9.66-9.66s4.33-9.66,9.66-9.66s9.66,4.33,9.66,9.66
		S130.54,103.34,125.21,103.34z"/>
	<path class="st4" d="M125.21,86.02c4.23,0,7.66,3.43,7.66,7.66c0,4.23-3.43,7.66-7.66,7.66s-7.66-3.43-7.66-7.66
		C117.55,89.45,120.98,86.02,125.21,86.02 M125.21,82.02c-6.43,0-11.66,5.23-11.66,11.66c0,6.43,5.23,11.66,11.66,11.66
		s11.66-5.23,11.66-11.66C136.87,87.25,131.64,82.02,125.21,82.02L125.21,82.02z"/>
</g>
<circle class="st1" cx="131.34" cy="207.38" r="7.66"/>
<g>
	<circle class="st3" cx="125.21" cy="156.34" r="9.66"/>
	<path class="st4" d="M125.21,148.68c4.23,0,7.66,3.43,7.66,7.66s-3.43,7.66-7.66,7.66s-7.66-3.43-7.66-7.66
		S120.98,148.68,125.21,148.68 M125.21,144.68c-6.43,0-11.66,5.23-11.66,11.66S118.78,168,125.21,168s11.66-5.23,11.66-11.66
		S131.64,144.68,125.21,144.68L125.21,144.68z"/>
</g>
<g>
	<circle class="st3" cx="25.47" cy="86.02" r="9.66"/>
	<path class="st4" d="M25.47,78.36c4.23,0,7.66,3.43,7.66,7.66s-3.43,7.66-7.66,7.66s-7.66-3.43-7.66-7.66S21.24,78.36,25.47,78.36
		 M25.47,74.36c-6.43,0-11.66,5.23-11.66,11.66s5.23,11.66,11.66,11.66s11.66-5.23,11.66-11.66S31.9,74.36,25.47,74.36L25.47,74.36z
		"/>
</g>
<g>
	<path class="st1" d="M202.49,128.53c-5.33,0-9.66-4.33-9.66-9.66s4.33-9.66,9.66-9.66s9.66,4.33,9.66,9.66
		S207.82,128.53,202.49,128.53z"/>
	<path class="st4" d="M202.49,111.21c4.23,0,7.66,3.43,7.66,7.66c0,4.23-3.43,7.66-7.66,7.66c-4.23,0-7.66-3.43-7.66-7.66
		C194.83,114.64,198.26,111.21,202.49,111.21 M202.49,107.21c-6.43,0-11.66,5.23-11.66,11.66c0,6.43,5.23,11.66,11.66,11.66
		s11.66-5.23,11.66-11.66C214.15,112.44,208.92,107.21,202.49,107.21L202.49,107.21z"/>
</g>
<g>
	<path class="st1" d="M308.19,247.49c-5.33,0-9.66-4.33-9.66-9.66s4.33-9.66,9.66-9.66s9.66,4.33,9.66,9.66
		S313.52,247.49,308.19,247.49z"/>
	<path class="st4" d="M308.19,230.17c4.23,0,7.66,3.43,7.66,7.66c0,4.23-3.43,7.66-7.66,7.66c-4.23,0-7.66-3.43-7.66-7.66
		C300.53,233.6,303.96,230.17,308.19,230.17 M308.19,226.17c-6.43,0-11.66,5.23-11.66,11.66c0,6.43,5.23,11.66,11.66,11.66
		s11.66-5.23,11.66-11.66C319.85,231.4,314.62,226.17,308.19,226.17L308.19,226.17z"/>
</g>
<g>
	<path class="st5" d="M160.64,140.28c-5.33,0-9.66-4.33-9.66-9.66s4.33-9.66,9.66-9.66s9.66,4.33,9.66,9.66
		S165.96,140.28,160.64,140.28z"/>
	<path class="st4" d="M160.64,122.96c4.23,0,7.66,3.43,7.66,7.66c0,4.23-3.43,7.66-7.66,7.66c-4.23,0-7.66-3.43-7.66-7.66
		C152.98,126.39,156.41,122.96,160.64,122.96 M160.64,118.96c-6.43,0-11.66,5.23-11.66,11.66c0,6.43,5.23,11.66,11.66,11.66
		c6.43,0,11.66-5.23,11.66-11.66C172.3,124.19,167.07,118.96,160.64,118.96L160.64,118.96z"/>
</g>
<circle class="st2" cx="173.9" cy="52.76" r="7.66"/>
<circle class="st3" cx="331.19" cy="61.42" r="7.66"/>
<circle class="st3" cx="25.47" cy="212.13" r="7.66"/>
<circle class="st3" cx="37.21" cy="297.72" r="7.66"/>
<circle class="st3" cx="369.83" cy="184" r="7.66"/>
<circle class="st2" cx="312.3" cy="170.09" r="7.66"/>
<circle class="st2" cx="170.85" cy="255.36" r="7.66"/>
<circle class="st2" cx="369.83" cy="106.02" r="7.66"/>
<circle class="st2" cx="415.28" cy="237.83" r="7.66"/>
<circle class="st1" cx="430.6" cy="58.68" r="7.66"/>
<circle class="st1" cx="426.62" cy="160.04" r="7.66"/>
<g>
	<g>
		<g>
			<g>
				<g>
					<g>
						<polygon class="st6" points="251.69,130.62 251.61,133.73 251.57,135.29 251.46,136.84 251.22,139.94 250.83,143.02 
							265.69,145.05 266.14,141.46 266.42,137.85 266.55,136.04 266.6,134.23 266.69,130.62 						"/>
					</g>
					<polygon class="st7" points="259.22,140.62 257.73,140.47 257.42,142.93 258.91,143.12 					"/>
					<polygon class="st7" points="259.56,136.13 258.06,136.05 257.88,138.52 259.37,138.64 					"/>
					<polygon class="st7" points="259.7,131.64 258.2,131.63 258.13,134.1 259.63,134.15 					"/>
				</g>
			</g>
			<g>
				<g>
					<g>
						<path class="st6" d="M250.83,143.02l-0.2,1.54l-0.28,1.53l-0.55,3.06c-0.49,2.01-0.87,4.05-1.49,6.03l14.44,4.04
							c0.71-2.31,1.17-4.69,1.73-7.03c0.23-1.18,0.43-2.38,0.65-3.56l0.32-1.78l0.23-1.8L250.83,143.02z"/>
					</g>
					<path class="st7" d="M256.93,153.95l-1.46-0.35c-0.18,0.8-0.37,1.61-0.61,2.4l1.45,0.39
						C256.56,155.59,256.75,154.77,256.93,153.95z"/>
					<path class="st7" d="M257.89,149.55l-1.47-0.29c-0.13,0.82-0.32,1.62-0.51,2.42l1.46,0.32
						C257.57,151.19,257.76,150.38,257.89,149.55z"/>
					<path class="st7" d="M258.65,145.12l-1.48-0.22c-0.09,0.82-0.27,1.63-0.41,2.44l1.48,0.26
						C258.38,146.78,258.57,145.96,258.65,145.12z"/>
				</g>
			</g>
			<g>
				<g>
					<g>
						<path class="st6" d="M248.31,155.19c-1.07,4.01-2.53,7.89-4.15,11.7l13.75,5.98c1.89-4.44,3.59-8.98,4.84-13.65L248.31,155.19
							z"/>
					</g>
					<polygon class="st7" points="252.86,166.85 251.46,166.3 250.55,168.6 251.94,169.18 					"/>
					<path class="st7" d="M254.41,162.62l-1.42-0.48c-0.27,0.78-0.51,1.57-0.81,2.34l1.41,0.52
						C253.89,164.21,254.13,163.41,254.41,162.62z"/>
					<path class="st7" d="M255.76,158.34l-1.44-0.42c-0.24,0.79-0.42,1.59-0.71,2.37l1.43,0.46
						C255.33,159.95,255.52,159.14,255.76,158.34z"/>
				</g>
			</g>
			<g>
				<g>
					<g>
						<path class="st6" d="M244.16,166.89c-1.63,3.81-3.61,7.46-5.71,11.03l12.81,7.8c2.46-4.15,4.76-8.41,6.66-12.86L244.16,166.89
							z"/>
					</g>
					<polygon class="st7" points="247.06,179.06 245.76,178.33 244.52,180.47 245.81,181.24 					"/>
					<polygon class="st7" points="249.18,175.08 247.84,174.41 246.71,176.61 248.03,177.32 					"/>
					<polygon class="st7" points="251.1,171.03 249.73,170.42 248.71,172.67 250.07,173.32 					"/>
				</g>
			</g>
			<g>
				<g>
					<g>
						<path class="st6" d="M238.45,177.93c-2.2,3.51-4.56,6.93-7.19,10.14l11.63,9.47c3.05-3.74,5.81-7.71,8.36-11.81L238.45,177.93
							z"/>
					</g>
					<polygon class="st7" points="239.66,190.38 238.47,189.47 236.94,191.42 238.11,192.35 					"/>
					<polygon class="st7" points="242.3,186.72 241.06,185.87 239.63,187.89 240.84,188.77 					"/>
					<polygon class="st7" points="244.75,182.97 243.48,182.17 242.15,184.26 243.4,185.08 					"/>
				</g>
			</g>
			<g>
				<g>
					<g>
						<path class="st6" d="M231.27,188.07c-0.63,0.82-1.35,1.58-2.02,2.37c-0.68,0.79-1.35,1.58-2.08,2.31l-2.15,2.25l-2.25,2.15
							l10.24,10.96l2.62-2.5l2.5-2.62c0.85-0.86,1.64-1.77,2.42-2.69c0.78-0.92,1.6-1.81,2.34-2.76L231.27,188.07z"/>
					</g>
					<polygon class="st7" points="230.79,200.59 229.73,199.53 227.94,201.24 228.98,202.32 					"/>
					<polygon class="st7" points="233.9,197.33 232.79,196.32 231.08,198.11 232.17,199.14 					"/>
					<polygon class="st7" points="236.84,193.94 235.69,192.98 234.07,194.85 235.2,195.83 					"/>
				</g>
			</g>
			<g>
				<g>
					<g>
						<path class="st6" d="M222.77,197.15c-3.04,2.82-6.23,5.49-9.64,7.85l8.66,12.25c3.97-2.75,7.69-5.85,11.22-9.13L222.77,197.15
							z"/>
					</g>
					<path class="st7" d="M220.6,209.48l-0.91-1.19c-0.64,0.52-1.32,0.99-1.99,1.47l0.88,1.22
						C219.26,210.48,219.95,210.01,220.6,209.48z"/>
					<path class="st7" d="M224.13,206.67l-0.96-1.15c-0.61,0.55-1.29,1.03-1.93,1.55l0.93,1.17
						C222.82,207.72,223.51,207.24,224.13,206.67z"/>
					<path class="st7" d="M227.51,203.72l-1.01-1.11c-0.6,0.56-1.24,1.09-1.86,1.63l0.98,1.13
						C226.25,204.83,226.9,204.29,227.51,203.72z"/>
				</g>
			</g>
			<g>
				<g>
					<g>
						<path class="st6" d="M213.13,204.99c-1.66,1.24-3.45,2.3-5.18,3.44l-2.69,1.55c-0.89,0.53-1.81,1.01-2.73,1.48l6.91,13.31
							c1.08-0.54,2.15-1.1,3.19-1.72l3.14-1.81c2.02-1.31,4.1-2.56,6.04-4L213.13,204.99z"/>
					</g>
					<path class="st7" d="M209.31,216.91l-0.74-1.31c-0.72,0.41-1.42,0.84-2.16,1.2l0.7,1.32
						C207.86,217.76,208.58,217.33,209.31,216.91z"/>
					<path class="st7" d="M213.18,214.61l-0.8-1.27c-0.69,0.45-1.39,0.89-2.11,1.29l0.76,1.29
						C211.77,215.52,212.48,215.07,213.18,214.61z"/>
					<path class="st7" d="M216.93,212.14l-0.85-1.23c-0.66,0.49-1.36,0.94-2.05,1.38l0.82,1.25
						C215.55,213.1,216.26,212.64,216.93,212.14z"/>
				</g>
			</g>
			<g>
				<g>
					<g>
						<path class="st6" d="M202.52,211.46c-3.66,1.96-7.5,3.54-11.39,4.96l5.02,14.13c4.54-1.65,9.01-3.51,13.27-5.78L202.52,211.46
							z"/>
					</g>
					<polygon class="st7" points="197.11,222.74 196.55,221.35 194.25,222.26 194.77,223.66 					"/>
					<path class="st7" d="M201.25,220.99l-0.62-1.37c-0.75,0.33-1.5,0.69-2.26,1.01l0.58,1.38
						C199.73,221.69,200.49,221.33,201.25,220.99z"/>
					<path class="st7" d="M205.31,219.05l-0.68-1.34c-0.74,0.36-1.46,0.78-2.21,1.1l0.64,1.36
						C203.83,219.84,204.56,219.42,205.31,219.05z"/>
				</g>
			</g>
			<g>
				<g>
					<g>
						<path class="st6" d="M191.13,216.42c-3.9,1.41-7.91,2.46-11.96,3.36l3.04,14.69c4.72-1.03,9.4-2.27,13.94-3.91L191.13,216.42z
							"/>
					</g>
					<polygon class="st7" points="184.22,226.85 183.87,225.4 181.46,225.95 181.78,227.42 					"/>
					<polygon class="st7" points="188.57,225.68 188.15,224.24 185.77,224.92 186.16,226.37 					"/>
					<polygon class="st7" points="192.85,224.32 192.36,222.9 190.02,223.69 190.47,225.12 					"/>
				</g>
			</g>
			<g>
				<g>
					<g>
						<path class="st6" d="M179.18,219.78l-3.06,0.55l-1.53,0.28l-1.54,0.2l-3.08,0.39l-3.1,0.23l1.01,14.96l3.61-0.28l3.59-0.45
							l1.8-0.23l1.78-0.32c1.19-0.22,2.38-0.42,3.56-0.65L179.18,219.78z"/>
					</g>
					<polygon class="st7" points="170.9,229.17 170.75,227.68 168.28,227.87 168.4,229.37 					"/>
					<polygon class="st7" points="175.37,228.6 175.15,227.12 172.69,227.43 172.88,228.92 					"/>
					<polygon class="st7" points="179.79,227.83 179.51,226.36 177.07,226.8 177.32,228.27 					"/>
				</g>
			</g>
			<g>
				<g>
					<g>
						<polygon class="st6" points="166.86,221.43 165.31,221.55 163.75,221.59 160.64,221.67 157.53,221.59 155.97,221.55 
							154.42,221.43 153.41,236.4 155.21,236.53 157.02,236.58 160.64,236.67 164.25,236.58 166.06,236.53 167.87,236.4 						"/>
					</g>
					<path class="st7" d="M157.38,229.62l0.05-1.5c-0.82-0.03-1.65-0.01-2.47-0.1l-0.09,1.5
						C155.71,229.61,156.55,229.59,157.38,229.62z"/>
					<polygon class="st7" points="161.89,229.67 161.87,228.17 160.63,228.2 159.4,228.17 159.38,229.67 160.63,229.7 					"/>
					<path class="st7" d="M166.38,229.52l-0.09-1.5c-0.82,0.08-1.65,0.06-2.47,0.09l0.05,1.5
						C164.7,229.58,165.54,229.61,166.38,229.52z"/>
				</g>
			</g>
			<g>
				<g>
					<g>
						<path class="st6" d="M154.42,221.43l-3.1-0.23l-3.08-0.39l-1.54-0.2l-1.53-0.28l-3.06-0.55l-3.04,14.69
							c1.18,0.23,2.38,0.43,3.56,0.65l1.78,0.32l1.8,0.23l3.59,0.45l3.61,0.28L154.42,221.43z"/>
					</g>
					<polygon class="st7" points="143.93,228.27 144.18,226.79 141.75,226.36 141.46,227.83 					"/>
					<polygon class="st7" points="148.39,228.92 148.57,227.43 146.12,227.12 145.9,228.6 					"/>
					<polygon class="st7" points="152.86,229.37 152.97,227.87 150.51,227.68 150.35,229.17 					"/>
				</g>
			</g>
			<g>
				<g>
					<g>
						<path class="st6" d="M142.1,219.78c-4.05-0.89-8.06-1.95-11.96-3.36l-5.02,14.13c4.55,1.64,9.23,2.88,13.94,3.91L142.1,219.78
							z"/>
					</g>
					<polygon class="st7" points="130.78,225.11 131.23,223.68 128.89,222.89 128.4,224.31 					"/>
					<polygon class="st7" points="135.11,226.36 135.5,224.91 133.12,224.24 132.69,225.68 					"/>
					<polygon class="st7" points="139.48,227.41 139.8,225.95 137.38,225.39 137.03,226.85 					"/>
				</g>
			</g>
			<g>
				<g>
					<g>
						<path class="st6" d="M130.14,216.42c-3.89-1.42-7.73-3-11.39-4.96l-6.91,13.31c4.26,2.27,8.74,4.13,13.27,5.78L130.14,216.42z
							"/>
					</g>
					<path class="st7" d="M118.2,220.16l0.64-1.36c-0.76-0.33-1.47-0.74-2.21-1.1l-0.68,1.34
						C116.7,219.41,117.43,219.83,118.2,220.16z"/>
					<path class="st7" d="M122.31,222.01l0.58-1.38c-0.76-0.32-1.51-0.67-2.26-1.01l-0.62,1.37
						C120.78,221.32,121.53,221.69,122.31,222.01z"/>
					<polygon class="st7" points="126.48,223.65 127,222.25 124.7,221.34 124.15,222.73 					"/>
				</g>
			</g>
			<g>
				<g>
					<g>
						<path class="st6" d="M118.76,211.46c-0.93-0.46-1.85-0.94-2.73-1.48l-2.69-1.55c-1.73-1.14-3.52-2.19-5.18-3.44l-8.66,12.25
							c1.94,1.44,4.01,2.68,6.04,4l3.14,1.81c1.04,0.62,2.11,1.18,3.19,1.72L118.76,211.46z"/>
					</g>
					<path class="st7" d="M106.41,213.53l0.82-1.25c-0.7-0.44-1.39-0.89-2.05-1.38l-0.85,1.23
						C105,212.63,105.7,213.08,106.41,213.53z"/>
					<path class="st7" d="M110.23,215.92l0.76-1.29c-0.72-0.4-1.42-0.84-2.11-1.29l-0.8,1.27
						C108.79,215.06,109.5,215.51,110.23,215.92z"/>
					<path class="st7" d="M114.14,218.12l0.7-1.32c-0.74-0.36-1.45-0.79-2.16-1.2l-0.74,1.31
						C112.68,217.31,113.39,217.75,114.14,218.12z"/>
				</g>
			</g>
			<g>
				<g>
					<g>
						<path class="st6" d="M108.15,204.99c-3.41-2.36-6.6-5.03-9.64-7.85l-10.24,10.96c3.54,3.28,7.25,6.38,11.22,9.13
							L108.15,204.99z"/>
					</g>
					<path class="st7" d="M95.63,205.36l0.98-1.13c-0.62-0.55-1.26-1.07-1.86-1.63l-1.01,1.11
						C94.36,204.28,95.01,204.81,95.63,205.36z"/>
					<path class="st7" d="M99.1,208.24l0.93-1.17c-0.64-0.52-1.32-1-1.93-1.55l-0.96,1.15C97.76,207.23,98.45,207.72,99.1,208.24z"
						/>
					<path class="st7" d="M102.68,210.96l0.88-1.22c-0.67-0.48-1.35-0.94-1.99-1.47l-0.91,1.19
						C101.3,210,101.99,210.47,102.68,210.96z"/>
				</g>
			</g>
			<g>
				<g>
					<g>
						<path class="st6" d="M98.51,197.15L96.25,195l-2.15-2.25c-0.73-0.74-1.41-1.52-2.08-2.31c-0.67-0.79-1.38-1.55-2.02-2.37
							l-11.63,9.47c0.74,0.95,1.56,1.84,2.34,2.76c0.79,0.91,1.57,1.83,2.42,2.69l2.5,2.62l2.62,2.5L98.51,197.15z"/>
					</g>
					<polygon class="st7" points="86.06,195.81 87.19,194.83 85.57,192.96 84.42,193.92 					"/>
					<polygon class="st7" points="89.1,199.14 90.19,198.1 88.48,196.31 87.37,197.32 					"/>
					<polygon class="st7" points="92.28,202.31 93.32,201.22 91.53,199.51 90.47,200.57 					"/>
				</g>
			</g>
			<g>
				<g>
					<g>
						<path class="st6" d="M90.01,188.07c-2.62-3.22-4.99-6.63-7.19-10.14l-12.81,7.8c2.55,4.1,5.31,8.07,8.36,11.81L90.01,188.07z"
							/>
					</g>
					<polygon class="st7" points="77.86,185.06 79.12,184.24 77.78,182.15 76.51,182.95 					"/>
					<polygon class="st7" points="80.43,188.76 81.64,187.88 80.21,185.87 78.97,186.72 					"/>
					<polygon class="st7" points="83.15,192.33 84.32,191.4 82.8,189.45 81.6,190.36 					"/>
				</g>
			</g>
			<g>
				<g>
					<g>
						<path class="st6" d="M82.83,177.93c-2.1-3.57-4.08-7.22-5.71-11.03l-13.75,5.98c1.9,4.44,4.2,8.7,6.66,12.86L82.83,177.93z"/>
					</g>
					<polygon class="st7" points="71.2,173.29 72.55,172.65 71.53,170.39 70.16,171 					"/>
					<polygon class="st7" points="73.24,177.31 74.56,176.6 73.43,174.4 72.09,175.07 					"/>
					<polygon class="st7" points="75.45,181.22 76.74,180.45 75.51,178.31 74.2,179.04 					"/>
				</g>
			</g>
			<g>
				<g>
					<g>
						<path class="st6" d="M77.12,166.89c-1.62-3.81-3.08-7.7-4.15-11.7l-14.44,4.04c1.25,4.67,2.95,9.21,4.84,13.65L77.12,166.89z"
							/>
					</g>
					<path class="st7" d="M66.22,160.72l1.43-0.46c-0.28-0.78-0.47-1.58-0.71-2.37l-1.44,0.42
						C65.75,159.11,65.94,159.93,66.22,160.72z"/>
					<path class="st7" d="M67.68,164.98l1.41-0.52c-0.29-0.77-0.54-1.56-0.81-2.34l-1.42,0.48C67.14,163.4,67.39,164.2,67.68,164.98
						z"/>
					<polygon class="st7" points="69.33,169.16 70.71,168.57 69.81,166.27 68.41,166.82 					"/>
				</g>
			</g>
			<g>
				<g>
					<g>
						<path class="st6" d="M72.97,155.19c-0.62-1.98-1-4.02-1.49-6.03l-0.55-3.06l-0.28-1.53l-0.2-1.54l-14.86,2.02l0.23,1.8
							l0.32,1.78c0.22,1.19,0.42,2.38,0.65,3.56c0.56,2.35,1.02,4.72,1.73,7.03L72.97,155.19z"/>
					</g>
					<path class="st7" d="M63.03,147.58l1.48-0.26c-0.13-0.81-0.32-1.62-0.41-2.44l-1.48,0.22
						C62.71,145.93,62.9,146.75,63.03,147.58z"/>
					<path class="st7" d="M63.89,152l1.46-0.32c-0.19-0.8-0.38-1.61-0.51-2.42l-1.47,0.28C63.51,150.37,63.7,151.18,63.89,152z"/>
					<path class="st7" d="M64.95,156.36l1.45-0.39c-0.24-0.79-0.42-1.59-0.6-2.4l-1.46,0.35C64.52,154.74,64.71,155.56,64.95,156.36
						z"/>
				</g>
			</g>
			<g>
				<g>
					<g>
						<polygon class="st6" points="70.45,143.02 70.06,139.94 69.82,136.84 69.7,135.29 69.67,133.73 69.58,130.62 54.59,130.62 
							54.68,134.23 54.72,136.04 54.86,137.85 55.13,141.46 55.59,145.05 						"/>
					</g>
					<polygon class="st7" points="61.64,134.13 63.14,134.08 63.08,131.6 61.58,131.62 					"/>
					<polygon class="st7" points="61.9,138.62 63.4,138.5 63.21,136.04 61.71,136.12 					"/>
					<polygon class="st7" points="62.36,143.09 63.85,142.9 63.55,140.45 62.05,140.6 					"/>
				</g>
			</g>
			<g>
				<g>
					<g>
						<polygon class="st6" points="69.58,130.62 69.67,127.5 69.7,125.95 69.82,124.4 70.06,121.29 70.45,118.21 55.59,116.19 
							55.13,119.78 54.86,123.39 54.72,125.19 54.68,127 54.59,130.62 						"/>
					</g>
					<polygon class="st7" points="62.06,120.61 63.55,120.76 63.86,118.31 62.37,118.12 					"/>
					<polygon class="st7" points="61.71,125.1 63.21,125.19 63.4,122.72 61.91,122.6 					"/>
					<polygon class="st7" points="61.58,129.59 63.08,129.61 63.14,127.13 61.64,127.08 					"/>
				</g>
			</g>
			<g>
				<g>
					<g>
						<path class="st6" d="M70.45,118.21l0.2-1.54l0.28-1.53l0.55-3.06c0.49-2.01,0.87-4.05,1.49-6.03l-14.44-4.04
							c-0.71,2.31-1.17,4.69-1.73,7.03c-0.23,1.18-0.43,2.38-0.65,3.56l-0.32,1.78l-0.23,1.8L70.45,118.21z"/>
					</g>
					<path class="st7" d="M64.34,107.28l1.46,0.35c0.18-0.8,0.37-1.61,0.61-2.4l-1.45-0.39C64.72,105.65,64.53,106.47,64.34,107.28z
						"/>
					<path class="st7" d="M63.38,111.68l1.47,0.29c0.13-0.82,0.32-1.62,0.51-2.42l-1.46-0.32C63.7,110.04,63.51,110.86,63.38,111.68
						z"/>
					<path class="st7" d="M62.62,116.11l1.48,0.22c0.09-0.82,0.27-1.63,0.41-2.44l-1.48-0.26C62.9,114.46,62.71,115.28,62.62,116.11
						z"/>
				</g>
			</g>
			<g>
				<g>
					<g>
						<path class="st6" d="M72.97,106.05c1.07-4.01,2.53-7.89,4.15-11.7l-13.75-5.98c-1.89,4.44-3.59,8.98-4.84,13.65L72.97,106.05z
							"/>
					</g>
					<polygon class="st7" points="68.42,94.39 69.81,94.94 70.72,92.64 69.34,92.05 					"/>
					<path class="st7" d="M66.87,98.62l1.42,0.48c0.27-0.78,0.51-1.57,0.81-2.34l-1.41-0.52C67.39,97.03,67.14,97.83,66.87,98.62z"
						/>
					<path class="st7" d="M65.51,102.9l1.44,0.42c0.24-0.79,0.42-1.59,0.71-2.37l-1.43-0.46C65.95,101.28,65.75,102.1,65.51,102.9z"
						/>
				</g>
			</g>
			<g>
				<g>
					<g>
						<path class="st6" d="M77.12,94.34c1.63-3.81,3.61-7.46,5.71-11.03l-12.81-7.8c-2.46,4.15-4.76,8.41-6.66,12.86L77.12,94.34z"
							/>
					</g>
					<polygon class="st7" points="74.21,82.17 75.52,82.91 76.75,80.76 75.46,79.99 					"/>
					<polygon class="st7" points="72.1,86.15 73.44,86.82 74.57,84.62 73.24,83.91 					"/>
					<polygon class="st7" points="70.17,90.21 71.54,90.82 72.56,88.56 71.21,87.92 					"/>
				</g>
			</g>
			<g>
				<g>
					<g>
						<path class="st6" d="M82.83,83.31c2.2-3.51,4.56-6.93,7.19-10.14l-11.63-9.47c-3.05,3.74-5.81,7.71-8.36,11.81L82.83,83.31z"
							/>
					</g>
					<polygon class="st7" points="81.62,70.85 82.81,71.76 84.34,69.82 83.17,68.88 					"/>
					<polygon class="st7" points="78.98,74.51 80.22,75.36 81.65,73.34 80.44,72.46 					"/>
					<polygon class="st7" points="76.52,78.27 77.79,79.06 79.13,76.98 77.88,76.15 					"/>
				</g>
			</g>
			<g>
				<g>
					<g>
						<path class="st6" d="M90.01,73.16c0.63-0.82,1.35-1.58,2.02-2.37c0.68-0.79,1.35-1.58,2.08-2.31l2.15-2.25l2.25-2.15
							L88.27,53.13l-2.62,2.5l-2.5,2.62c-0.85,0.86-1.64,1.77-2.42,2.69c-0.78,0.92-1.6,1.81-2.34,2.76L90.01,73.16z"/>
					</g>
					<polygon class="st7" points="90.49,60.65 91.55,61.71 93.34,60 92.3,58.91 					"/>
					<polygon class="st7" points="87.38,63.91 88.49,64.92 90.19,63.13 89.11,62.09 					"/>
					<polygon class="st7" points="84.43,67.3 85.59,68.26 87.21,66.39 86.08,65.4 					"/>
				</g>
			</g>
			<g>
				<g>
					<g>
						<path class="st6" d="M98.51,64.09c3.04-2.82,6.23-5.49,9.64-7.85l-8.66-12.25c-3.97,2.75-7.69,5.85-11.22,9.13L98.51,64.09z"
							/>
					</g>
					<path class="st7" d="M100.67,51.75l0.91,1.19c0.64-0.52,1.32-0.99,1.99-1.47l-0.88-1.22
						C102.02,50.75,101.32,51.22,100.67,51.75z"/>
					<path class="st7" d="M97.15,54.56l0.96,1.15c0.61-0.55,1.29-1.03,1.93-1.55l-0.93-1.17C98.46,53.51,97.77,54,97.15,54.56z"/>
					<path class="st7" d="M93.77,57.51l1.01,1.11c0.6-0.56,1.24-1.09,1.86-1.63l-0.98-1.13C95.03,56.41,94.38,56.94,93.77,57.51z"/>
				</g>
			</g>
			<g>
				<g>
					<g>
						<path class="st6" d="M108.15,56.24c1.66-1.24,3.45-2.3,5.18-3.44l2.69-1.55c0.89-0.53,1.81-1.01,2.73-1.48l-6.91-13.31
							c-1.08,0.54-2.15,1.1-3.19,1.72L105.53,40c-2.02,1.31-4.1,2.56-6.04,4L108.15,56.24z"/>
					</g>
					<path class="st7" d="M111.97,44.32l0.74,1.31c0.72-0.41,1.42-0.84,2.16-1.2l-0.7-1.32C113.41,43.47,112.7,43.91,111.97,44.32z"
						/>
					<path class="st7" d="M108.1,46.62l0.8,1.27c0.69-0.45,1.39-0.89,2.11-1.29l-0.76-1.29C109.51,45.72,108.8,46.16,108.1,46.62z"
						/>
					<path class="st7" d="M104.35,49.09l0.85,1.23c0.66-0.49,1.36-0.94,2.05-1.38l-0.82-1.25
						C105.72,48.14,105.02,48.59,104.35,49.09z"/>
				</g>
			</g>
			<g>
				<g>
					<g>
						<path class="st6" d="M118.76,49.77c3.66-1.96,7.5-3.54,11.39-4.96l-5.02-14.13c-4.54,1.65-9.01,3.51-13.27,5.78L118.76,49.77z
							"/>
					</g>
					<polygon class="st7" points="124.17,38.49 124.72,39.89 127.02,38.98 126.51,37.57 					"/>
					<path class="st7" d="M120.02,40.25l0.62,1.37c0.75-0.33,1.5-0.69,2.26-1.01l-0.58-1.38C121.54,39.54,120.79,39.91,120.02,40.25
						z"/>
					<path class="st7" d="M115.97,42.18l0.68,1.34c0.74-0.36,1.46-0.78,2.21-1.1l-0.64-1.36C117.45,41.39,116.72,41.81,115.97,42.18
						z"/>
				</g>
			</g>
			<g>
				<g>
					<g>
						<path class="st6" d="M130.14,44.81c3.9-1.41,7.91-2.46,11.96-3.36l-3.04-14.69c-4.72,1.03-9.4,2.27-13.94,3.91L130.14,44.81z"
							/>
					</g>
					<polygon class="st7" points="137.05,34.38 137.41,35.84 139.82,35.28 139.5,33.82 					"/>
					<polygon class="st7" points="132.7,35.55 133.13,36.99 135.51,36.32 135.12,34.87 					"/>
					<polygon class="st7" points="128.43,36.92 128.91,38.34 131.26,37.54 130.81,36.11 					"/>
				</g>
			</g>
			<g>
				<g>
					<g>
						<path class="st6" d="M142.1,41.45l3.06-0.55l1.53-0.28l1.54-0.2l3.08-0.39l3.1-0.23l-1.01-14.96l-3.61,0.28l-3.59,0.45
							l-1.8,0.23l-1.78,0.32c-1.19,0.22-2.38,0.42-3.56,0.65L142.1,41.45z"/>
					</g>
					<polygon class="st7" points="150.38,32.06 150.53,33.55 153,33.36 152.88,31.86 					"/>
					<polygon class="st7" points="145.91,32.63 146.13,34.11 148.58,33.8 148.4,32.31 					"/>
					<polygon class="st7" points="141.48,33.4 141.77,34.87 144.21,34.44 143.96,32.96 					"/>
				</g>
			</g>
			<g>
				<g>
					<g>
						<polygon class="st6" points="154.42,39.8 155.97,39.68 157.53,39.64 160.64,39.56 163.75,39.64 165.31,39.68 166.86,39.8 
							167.87,24.84 166.06,24.7 164.25,24.65 160.64,24.56 157.02,24.65 155.21,24.7 153.41,24.84 						"/>
					</g>
					<path class="st7" d="M163.89,31.62l-0.05,1.5c0.82,0.03,1.65,0.01,2.47,0.1l0.09-1.5C165.57,31.63,164.73,31.65,163.89,31.62z"
						/>
					<polygon class="st7" points="159.39,31.56 159.41,33.06 160.64,33.03 161.88,33.06 161.9,31.57 160.64,31.53 					"/>
					<path class="st7" d="M154.9,31.71l0.09,1.5c0.82-0.08,1.65-0.06,2.47-0.09l-0.05-1.5C156.57,31.65,155.73,31.63,154.9,31.71z"
						/>
				</g>
			</g>
			<g>
				<g>
					<g>
						<path class="st6" d="M166.86,39.8l3.1,0.23l3.08,0.39l1.54,0.2l1.53,0.28l3.06,0.55l3.04-14.69
							c-1.18-0.23-2.38-0.43-3.56-0.65l-1.78-0.32l-1.8-0.23l-3.59-0.45l-3.61-0.28L166.86,39.8z"/>
					</g>
					<polygon class="st7" points="177.35,32.96 177.09,34.44 179.53,34.88 179.82,33.41 					"/>
					<polygon class="st7" points="172.89,32.31 172.7,33.8 175.16,34.11 175.38,32.63 					"/>
					<polygon class="st7" points="168.42,31.87 168.3,33.36 170.77,33.56 170.93,32.06 					"/>
				</g>
			</g>
			<g>
				<g>
					<g>
						<path class="st6" d="M179.18,41.45c4.05,0.89,8.06,1.95,11.96,3.36l5.02-14.13c-4.55-1.64-9.23-2.88-13.94-3.91L179.18,41.45z
							"/>
					</g>
					<polygon class="st7" points="190.5,36.12 190.04,37.55 192.39,38.34 192.87,36.93 					"/>
					<polygon class="st7" points="186.17,34.87 185.78,36.32 188.16,37 188.58,35.56 					"/>
					<polygon class="st7" points="181.8,33.82 181.48,35.29 183.89,35.84 184.25,34.39 					"/>
				</g>
			</g>
			<g>
				<g>
					<g>
						<path class="st6" d="M191.13,44.81c3.89,1.42,7.73,3,11.39,4.96l6.91-13.31c-4.26-2.27-8.74-4.13-13.27-5.78L191.13,44.81z"/>
					</g>
					<path class="st7" d="M203.08,41.07l-0.64,1.36c0.76,0.33,1.47,0.74,2.21,1.1l0.68-1.34C204.58,41.82,203.85,41.4,203.08,41.07z
						"/>
					<path class="st7" d="M198.97,39.23l-0.58,1.38c0.76,0.32,1.51,0.67,2.26,1.01l0.62-1.37C200.5,39.91,199.74,39.55,198.97,39.23
						z"/>
					<polygon class="st7" points="194.79,37.58 194.27,38.99 196.58,39.9 197.13,38.5 					"/>
				</g>
			</g>
			<g>
				<g>
					<g>
						<path class="st6" d="M202.52,49.77c0.93,0.46,1.85,0.94,2.73,1.48l2.69,1.55c1.73,1.14,3.52,2.19,5.18,3.44l8.66-12.25
							c-1.94-1.44-4.01-2.68-6.04-4l-3.14-1.81c-1.04-0.62-2.11-1.18-3.19-1.72L202.52,49.77z"/>
					</g>
					<path class="st7" d="M214.87,47.7l-0.82,1.25c0.7,0.44,1.39,0.89,2.05,1.38l0.85-1.23C216.28,48.61,215.57,48.15,214.87,47.7z"
						/>
					<path class="st7" d="M211.04,45.32l-0.76,1.29c0.72,0.4,1.42,0.84,2.11,1.29l0.8-1.27C212.49,46.17,211.78,45.72,211.04,45.32z
						"/>
					<path class="st7" d="M207.13,43.12l-0.7,1.32c0.74,0.36,1.45,0.79,2.16,1.2l0.74-1.31C208.6,43.92,207.89,43.48,207.13,43.12z"
						/>
				</g>
			</g>
			<g>
				<g>
					<g>
						<path class="st6" d="M213.13,56.24c3.41,2.36,6.6,5.03,9.64,7.85l10.24-10.96c-3.54-3.28-7.25-6.38-11.22-9.13L213.13,56.24z"
							/>
					</g>
					<path class="st7" d="M225.64,55.87L224.66,57c0.62,0.55,1.26,1.07,1.86,1.63l1.01-1.11C226.92,56.96,226.27,56.43,225.64,55.87
						z"/>
					<path class="st7" d="M222.18,52.99l-0.93,1.17c0.64,0.52,1.32,1,1.93,1.55l0.96-1.15C223.51,54,222.83,53.52,222.18,52.99z"/>
					<path class="st7" d="M218.6,50.28l-0.88,1.22c0.67,0.48,1.35,0.94,1.99,1.47l0.91-1.19C219.97,51.24,219.28,50.77,218.6,50.28z
						"/>
				</g>
			</g>
			<g>
				<g>
					<g>
						<path class="st6" d="M222.77,64.09l2.25,2.15l2.15,2.25c0.73,0.74,1.41,1.52,2.08,2.31c0.67,0.79,1.38,1.55,2.02,2.37
							l11.63-9.47c-0.74-0.95-1.56-1.84-2.34-2.76c-0.79-0.91-1.57-1.83-2.42-2.69l-2.5-2.62l-2.62-2.5L222.77,64.09z"/>
					</g>
					<polygon class="st7" points="235.22,65.42 234.09,66.41 235.71,68.28 236.86,67.32 					"/>
					<polygon class="st7" points="232.17,62.1 231.09,63.14 232.8,64.93 233.91,63.92 					"/>
					<polygon class="st7" points="228.99,58.93 227.96,60.01 229.75,61.72 230.81,60.67 					"/>
				</g>
			</g>
			<g>
				<g>
					<g>
						<path class="st6" d="M231.27,73.16c2.62,3.22,4.99,6.63,7.19,10.14l12.81-7.8c-2.55-4.1-5.31-8.07-8.36-11.81L231.27,73.16z"
							/>
					</g>
					<polygon class="st7" points="243.41,76.17 242.16,77 243.5,79.08 244.77,78.29 					"/>
					<polygon class="st7" points="240.85,72.47 239.63,73.35 241.07,75.37 242.3,74.52 					"/>
					<polygon class="st7" points="238.13,68.9 236.95,69.83 238.48,71.78 239.68,70.87 					"/>
				</g>
			</g>
			<g>
				<g>
					<g>
						<path class="st6" d="M238.45,83.31c2.1,3.57,4.08,7.22,5.71,11.03l13.75-5.98c-1.9-4.44-4.2-8.7-6.66-12.86L238.45,83.31z"/>
					</g>
					<polygon class="st7" points="250.08,87.94 248.72,88.59 249.74,90.84 251.11,90.23 					"/>
					<polygon class="st7" points="248.04,83.92 246.71,84.63 247.84,86.83 249.18,86.16 					"/>
					<polygon class="st7" points="245.82,80.02 244.54,80.78 245.77,82.93 247.08,82.19 					"/>
				</g>
			</g>
			<g>
				<g>
					<g>
						<path class="st6" d="M244.16,94.34c1.62,3.81,3.08,7.7,4.15,11.7l14.44-4.04c-1.25-4.67-2.95-9.21-4.84-13.65L244.16,94.34z"
							/>
					</g>
					<path class="st7" d="M255.05,100.52l-1.43,0.46c0.28,0.78,0.47,1.58,0.71,2.37l1.44-0.42
						C255.53,102.12,255.34,101.3,255.05,100.52z"/>
					<path class="st7" d="M253.59,96.25l-1.41,0.52c0.29,0.77,0.54,1.56,0.81,2.34l1.42-0.48
						C254.14,97.84,253.89,97.04,253.59,96.25z"/>
					<polygon class="st7" points="251.95,92.08 250.56,92.66 251.47,94.96 252.87,94.41 					"/>
				</g>
			</g>
			<g>
				<g>
					<g>
						<path class="st6" d="M248.31,106.05c0.62,1.98,1,4.02,1.49,6.03l0.55,3.06l0.28,1.53l0.2,1.54l14.86-2.02l-0.23-1.8
							l-0.32-1.78c-0.22-1.19-0.42-2.38-0.65-3.56c-0.56-2.35-1.02-4.72-1.73-7.03L248.31,106.05z"/>
					</g>
					<path class="st7" d="M258.25,113.66l-1.48,0.26c0.13,0.81,0.32,1.62,0.41,2.44l1.48-0.22
						C258.57,115.3,258.38,114.48,258.25,113.66z"/>
					<path class="st7" d="M257.38,109.24l-1.46,0.32c0.19,0.8,0.38,1.61,0.51,2.42l1.47-0.28
						C257.76,110.87,257.58,110.05,257.38,109.24z"/>
					<path class="st7" d="M256.32,104.87l-1.45,0.39c0.24,0.79,0.42,1.59,0.6,2.4l1.46-0.35
						C256.75,106.49,256.57,105.67,256.32,104.87z"/>
				</g>
			</g>
			<g>
				<g>
					<g>
						<polygon class="st6" points="250.83,118.21 251.22,121.29 251.46,124.4 251.57,125.95 251.61,127.5 251.69,130.62 
							266.69,130.62 266.6,127 266.55,125.19 266.42,123.39 266.14,119.78 265.69,116.19 						"/>
					</g>
					<polygon class="st7" points="259.63,127.11 258.13,127.16 258.2,129.63 259.7,129.62 					"/>
					<polygon class="st7" points="259.37,122.61 257.88,122.73 258.06,125.2 259.56,125.11 					"/>
					<polygon class="st7" points="258.91,118.14 257.42,118.33 257.73,120.79 259.22,120.64 					"/>
				</g>
			</g>
		</g>
	</g>
</g>
<circle class="st8" cx="160.64" cy="130.62" r="62.53"/>
<circle class="st2" cx="191.6" cy="187.98" r="7.66"/>
<circle class="st2" cx="123.68" cy="290.06" r="7.66"/>
<circle class="st2" cx="25.47" cy="126.53" r="7.66"/>
</svg>
