<?xml version="1.0" encoding="utf-8"?>
<!-- Generator: Adobe Illustrator 26.5.0, SVG Export Plug-In . SVG Version: 6.00 Build 0)  -->
<svg version="1.0" id="_x3C_Layer_x3E_" xmlns="http://www.w3.org/2000/svg" xmlns:xlink="http://www.w3.org/1999/xlink" x="0px"
	 y="0px" viewBox="0 0 1208.42 1062.88" style="enable-background:new 0 0 1208.42 1062.88;" xml:space="preserve">
<style type="text/css">
	.st0{fill:#6BB7BF;}
	.st1{fill:#86D1CD;}
	.st2{fill:#B0E2E2;}
	.st3{fill:#74ACBE;}
	.st4{fill:#FFB27D;}
	.st5{fill:#233862;}
	.st6{fill:#E8945B;}
	.st7{fill:#B64C41;}
	.st8{fill:#2B478B;}
	.st9{fill:#A03C37;}
	.st10{fill:#BFEFEE;}
	.st11{opacity:0.2;fill:#599DAD;}
	.st12{fill:#599DAD;}
	.st13{fill:#418A96;}
	.st14{fill:#5FABB7;}
	.st15{fill:#79C8CC;}
	.st16{fill:#5EA04E;}
	.st17{fill:#82B378;}
	.st18{fill:#E58435;}
	.st19{fill:#F1A34F;}
	.st20{fill:#FFB973;}
	.st21{fill:#D86713;}
	.st22{fill:#479199;}
</style>
<g>
	<rect x="-2399.95" y="80.48" class="st0" width="518.63" height="970.3"/>
	<rect x="-2375.85" y="107.18" class="st1" width="470.43" height="915.36"/>
	<g>
		<rect x="-2346.68" y="133.32" class="st2" width="405.46" height="230.79"/>
		<rect x="-2346.68" y="400.99" class="st2" width="405.46" height="230.79"/>
		<rect x="-2346.68" y="666.87" class="st2" width="405.46" height="310.56"/>
	</g>
	<g>
		<path class="st3" d="M-2325.48,502.65h5.76c6.34,0,11.52,5.18,11.52,11.52v73.45c0,6.34-5.18,11.52-11.52,11.52h-5.76
			c-6.34,0-11.52-5.18-11.52-11.52v-73.45C-2337,507.84-2331.82,502.65-2325.48,502.65z"/>
	</g>
	<g>
		<path class="st4" d="M-2230.7,429.76c0,0-8.32-27.84-15.52-27.2c-7.2,0.64-13.6,7.68-13.92,16.64
			c-0.32,8.96,18.56,24.64,18.56,24.64L-2230.7,429.76z"/>
		<path class="st5" d="M-2041.88,385.75c0,0,31.06,1.12,42.58,7.84c11.52,6.72,46.73,77.88,46.73,85.19
			c0,7.31-17.28,39.31-67.85,51.47l-10.01-21.76c0,0,27.01-34.56,21.89-39.04c-5.12-4.48-25.97-15.76-29.17-19.09
			C-2040.91,447.04-2041.88,385.75-2041.88,385.75z"/>
		<path class="st4" d="M-2089.23,568.79c0,0,43.57,200.27,48.52,230.34c0.81,4.91,2.53,12.77,4.83,22.66
			c11.77,50.75,38.38,154.77,31.15,184.47c-5.11,20.93-14,27.11-14,27.11c-2.09,3.84,32.37,11.46,35.15-3.22
			c3.53-18.65,4.27-44.81,9.46-89.18c8.91-76.39-8.77-119.86-13.06-151.79c-1.2-8.96-0.6-23.41,0.67-40.32
			c3.24-43.32,10.81-102.82,3.36-127.77c-8.11-27.12-20.66-47.08-36.3-57.91c-17.56-12.16-39.02-12.79-62.48,0.91
			C-2084.34,565.5-2086.77,567.07-2089.23,568.79z"/>
		<path class="st6" d="M-2089.23,568.79c0,0,43.57,200.27,48.52,230.34c0.81,4.91,2.53,12.77,4.83,22.66l49.37-72.92
			c3.24-43.32,10.81-102.82,3.36-127.77c-8.11-27.12-20.66-47.08-36.3-57.91c-19.52-1.99-41.82-1.61-62.48,0.91
			C-2084.34,565.5-2086.77,567.07-2089.23,568.79z"/>
		<path class="st4" d="M-2110.36,565.94c0,0,9.89,202.18,10.39,232.64c0.5,30.47,19.02,176.33,5.27,210.16
			c-8.11,19.96-17.81,24.78-17.81,24.78c-2.63,3.49,30.34,16.07,35.24,1.95c6.23-17.93,10.79-43.71,22.41-86.84
			c20-74.26,8.88-119.85,9.31-152.06c0.43-32.21,33.76-129.86,28.59-165.68C-2026.02,568.2-2058.46,539.98-2110.36,565.94z"/>
		<path class="st7" d="M-2114.25,729.96c0,0,14.45,2.56,17.65,1.29c3.21-1.29,3.84-30.73,3.84-30.73c1.92,16,9.6,30.08,9.6,30.08
			c28.84,4.08,50.74,4.43,66.84,3.25c26.77-1.94,37.5-8.06,37.5-8.06s-1.18-73.91-4.32-101.69c-0.73-6.47-2.98-13.27-5.99-19.89
			c-9.9-21.79-28.09-41.64-28.09-41.64l-93.13,5.89L-2114.25,729.96z"/>
		<path class="st4" d="M-2085.6,389.59h43.72c-0.74-2.67-1.6-7.09-2.41-14.39c-0.08-0.73-0.16-1.47-0.24-2.26
			c-0.61-5.99-1.19-13.71-1.66-23.67c-0.01-0.29-0.02-0.58-0.04-0.88l-36.83,11.22l-0.44,0.14c0,0,0.24,1.39,0.44,3.74v0.01
			C-2082.6,368.89-2082.32,379.37-2085.6,389.59z"/>
		<path class="st4" d="M-2099.55,355.3c0,0,40.01,21.7,53.15-3.42c13.13-25.13,27.14-39.25,2.15-54.17
			c-24.99-14.92-35.01-7.95-41.43-0.63C-2092.11,304.41-2109.62,349.01-2099.55,355.3z"/>
		<path class="st8" d="M-2229.61,426.02c0,0,38.28,36.29,46.92,37.66c8.64,1.37,46.41-64.33,58.89-70.09
			c12.48-5.76,25.6-5.14,25.6-5.14c54.96-7.9,98.9,5.14,98.9,5.14s-13.13,156.5-17.93,168.98c-2.19,5.68-18.55,8.31-37.15,9.07
			c-22.25,0.91-47.71-0.84-55.99-3.19c-10.27-2.92,2.1-45.8-21.43-86.12c-16.89,13.58-48.88,34.34-56.18,29.96
			c-9.6-5.76-58.25-68.77-58.25-68.77C-2241.9,424.32-2229.61,426.02-2229.61,426.02z"/>
		<path class="st5" d="M-2131.79,482.34c23.87,43.06,10.87,83.12,21.43,86.12c8.28,2.35,33.74,4.1,55.99,3.19
			c-13.62-2.92-20.18-2.96-27.54-7.56c-7.57-4.72-3-42.32-13.08-63.93C-2105.08,478.57-2131.79,482.34-2131.79,482.34z"/>
		<path class="st7" d="M-1980.57,1007.18c0,0,6.07,26.08,4.15,34.84l-1.88,7.58h-65.33c0,0,3.96-16.92,17.16-17.04
			c13.2-0.12,26.04-1.92,28.45-6.96C-1995.62,1020.56-1988.91,1006.41-1980.57,1007.18z"/>
		<path class="st7" d="M-2069.48,1007.18c0,0,6.07,26.08,4.14,34.84l-1.88,7.58h-65.33c0,0,3.96-16.92,17.16-17.04
			c13.2-0.12,26.04-1.92,28.44-6.96C-2084.53,1020.56-2077.82,1006.41-2069.48,1007.18z"/>
		<path class="st9" d="M-2090.44,411.36c-0.97-30.11,10.51-50.47,18.17-60.61c2.72-4.39,5.68-7.51,8.52-8.84
			c4.49-2.56,9.92-8,8.96-11.84c-0.96-3.84-7.68,2.88-20.8-9.6c-13.12-12.48-10.75-32.16-10.75-32.16
			c11.99-13.46,26.11-18.09,53.47-12.33c27.36,5.76,31.06,28.8,27.22,49.93c-3.47,19.05-1.51,32.5,9.93,51.08
			c1.58,1.82,2.92,3.93,4.06,6.24c0,0.01,0,0.02,0.01,0.02c0.43,0.64,0.68,1.21,0.79,1.74c6.01,14.04,15.43,33.32,10.89,48.47
			c-5.76,19.2,4.99,25.28,8.33,48.97c0.78,5.5-1.98,12.49-7.27,19.28c-1.85-25.8-16.72-32.28-17.19-32.47
			c10.21,14.09,8.01,33.88,6.12,43.41c-12.83,9.98-30.98,16.87-49.93,13.16c4.08-9.4,8.83-24.28,5.3-39.54
			c0,0-0.3,23.97-16.51,36.06c-8.94-3.82-17.86-10.31-26.29-20.22c-25.98-30.55,14.04-56.38,3.51-75.21
			c-3.85-6.88-6.25-14.2-7.55-21.53c-2.63,15.97-1.32,29.77-1.32,29.77C-2089,425.52-2090.44,411.36-2090.44,411.36z"/>
		<path class="st9" d="M-2016.32,733.86c26.77-1.94,37.5-8.06,37.5-8.06s-1.18-73.91-4.32-101.69c-0.73-6.47-2.98-13.27-5.99-19.89
			l-0.03-0.05C-1989.16,604.17-1996.54,688.83-2016.32,733.86z"/>
	</g>
</g>
<g>
	<rect x="667.88" y="101.83" class="st10" width="540.54" height="956.98"/>
	<rect x="676.67" y="101.83" class="st2" width="353.31" height="956.98"/>
	<polygon class="st11" points="409.69,0 24.81,1069.69 420.27,1069.69 	"/>
	<polygon class="st0" points="432.88,0 432.88,1063.65 667.88,1063.65 667.88,91.42 	"/>
	<rect x="409.69" class="st12" width="23.2" height="1063.65"/>
	<rect x="689.78" y="985" class="st12" width="496.73" height="81.67"/>
	<polygon class="st13" points="876.46,1066.67 689.78,1066.67 689.78,985 826.94,985 	"/>
	<rect x="796.42" y="903.33" class="st14" width="390.1" height="81.67"/>
	<rect x="896.75" y="821.66" class="st0" width="289.77" height="81.67"/>
	<rect x="997.17" y="739.99" class="st15" width="189.35" height="81.67"/>
	<path class="st12" d="M667.88,92.76v970.89h540.54V92.76H667.88z M1186.52,1040.69H689.79V115.71h496.73V1040.69z"/>
	<g>
		<g>
			<path class="st16" d="M213.44,919.84c0,0-22.88-26.68-1.41-43.64c0,0,15.68-9.49,28.46-8.72c0,0-18.11,30.37-12.25,33.4
				c5.86,3.02,17.74-35.3,17.74-35.3s35.68-3.46,47.15,2.06c0,0-30.5,24.96-24.08,26.45c6.42,1.49,39.37-23.01,39.37-23.01
				s33.21,5.65,31.43,25.91c-1.77,20.26-13.21,26.51-18.24,25.97c-5.03-0.54-34.45-11.77-35.09-7.65
				c-0.64,4.12,17.07,17.59,29.47,18.22c0,0-23.41,25.82-38.97,18.37c-15.56-7.45-16.89-19.26-26.59-23.69
				c-9.7-4.43-17.98-4.42-13.97,0.1c4,4.52,21.56,8.91,27.1,18.72c5.55,9.81,10.52,16.43-5.58,14c-16.1-2.42-42.26-14.2-43.41-27.69
				C213.44,919.84,213.44,919.84,213.44,919.84z"/>
			<g>
				<path class="st16" d="M323.55,897.53c0,0-90.19-3.48-110.11,22.32c0,0-4.41,13.19-17.96,25.21l-2.11,5.76
					c0,0,15.63-16.48,21.22-17.47C214.59,933.33,205.84,901.38,323.55,897.53z"/>
				<path class="st16" d="M195.48,945.05c0,0-19.36,14.32-20.7,39.9l3.51,0.31c0,0,6.18-26.45,17.36-36.79
					C206.82,938.12,195.48,945.05,195.48,945.05z"/>
			</g>
		</g>
		<g>
			<path class="st17" d="M133.47,886.28c0,0,36.39-20.38,19.41-48.03c0,0-13.58-16.98-28.14-21.35c0,0,7.76,41.24,0,42.21
				c-7.76,0.97-5.34-46.58-5.34-46.58s-38.33-18.44-53.37-16.98c0,0,23.77,40.27,16.01,39.3c-7.76-0.97-34.45-41.72-34.45-41.72
				s-39.3-7.28-45.6,16.01c-6.31,23.29,3.88,34.93,9.7,36.39c5.82,1.46,43.18,0.97,42.21,5.82c-0.97,4.85-26.2,12.61-40.27,8.25
				c0,0,15.52,38.33,35.9,36.39c20.38-1.94,26.68-14.55,39.3-15.53c12.61-0.97,21.83,2.43,15.52,5.82
				c-6.31,3.4-27.65,1.11-37.84,9.77c-10.19,8.66-18.44,14,0.49,17.88c18.92,3.88,52.88,1.46,59.67-13.1
				C133.47,886.28,133.47,886.28,133.47,886.28z"/>
			<g>
				<path class="st16" d="M19.94,816.42c0,0,101.88,32.99,113.53,69.86c0,0-0.49,16.5,9.7,35.42v7.28c0,0-10.67-24.74-16.49-28.14
					C126.67,900.84,149.48,868.82,19.94,816.42z"/>
				<path class="st16" d="M143.17,921.7c0,0,15.71,23.86,6.75,52.9l-4.04-1.08c0,0,3.92-31.99-4.3-48.08
					C133.37,909.35,143.17,921.7,143.17,921.7z"/>
			</g>
		</g>
		<g>
			<path class="st16" d="M191.35,858.18c0,0-47.96-26.86-25.58-63.31c0,0,17.91-22.38,37.09-28.14c0,0-10.23,54.36,0,55.64
				c10.23,1.28,7.04-61.39,7.04-61.39s50.52-24.3,70.35-22.38c0,0-31.34,53.08-21.1,51.8c10.23-1.28,45.41-55,45.41-55
				s51.8-9.59,60.12,21.1c8.31,30.7-5.12,46.05-12.79,47.96c-7.67,1.92-56.92,1.28-55.64,7.67c1.28,6.4,34.53,16.63,53.08,10.87
				c0,0-20.46,50.52-47.32,47.96c-26.86-2.56-35.17-19.19-51.8-20.46c-16.63-1.28-28.78,3.2-20.46,7.67
				c8.31,4.48,36.45,1.47,49.88,12.88c13.43,11.42,24.3,18.45-0.64,23.57c-24.94,5.12-69.71,1.92-78.66-17.27
				C191.35,858.18,191.35,858.18,191.35,858.18z"/>
			<g>
				<path class="st16" d="M341,766.09c0,0-134.3,43.49-149.65,92.09c0,0,0.64,21.74-12.79,46.69v9.59c0,0,14.07-32.62,21.75-37.09
					C200.31,877.37,170.25,835.16,341,766.09z"/>
				<path class="st16" d="M178.56,904.87c0,0-20.71,31.45-8.9,69.74l5.33-1.43c0,0-5.17-42.17,5.66-63.38
					C191.49,888.59,178.56,904.87,178.56,904.87z"/>
			</g>
		</g>
		<path class="st18" d="M283.7,963.67c0,51.89-42.07,93.96-93.96,93.96c-6.33,0-12.53-0.62-18.52-1.83
			c-43.02-8.59-75.43-46.58-75.43-92.13H283.7z"/>
		<path class="st19" d="M246.63,963.67c0,45.55-32.4,83.52-75.42,92.13c-43.02-8.59-75.43-46.58-75.43-92.13H246.63z"/>
		<path class="st18" d="M284.99,1062.41H94.48c0-3.21,1.3-6.1,3.4-8.2c2.1-2.09,5-3.4,8.2-3.4h167.32
			C279.8,1050.81,284.99,1056,284.99,1062.41z"/>
		<path class="st20" d="M166.02,1050.81h12.74c-34.47-13.92-48.18-47.69-48.18-87.14h-23.34
			C107.24,1003.12,131.55,1036.89,166.02,1050.81z"/>
		<path class="st19" d="M195.76,1062.41H94.48c0-3.21,1.3-6.1,3.4-8.2c2.1-2.09,5-3.4,8.2-3.4h81.78
			C194.25,1050.81,195.76,1056,195.76,1062.41z"/>
		<path class="st21" d="M284.39,966.55H94.14c-0.8,0-1.44-0.65-1.44-1.44l0,0c0-0.79,0.65-1.44,1.44-1.44h190.25
			c0.8,0,1.44,0.65,1.44,1.44l0,0C285.83,965.91,285.18,966.55,284.39,966.55z"/>
	</g>
	<polygon class="st0" points="1119.63,821.66 997.17,821.66 997.17,739.99 1028.94,739.99 	"/>
	<polygon class="st12" points="1052.75,903.33 896.75,903.33 896.75,821.66 973.28,821.66 	"/>
	<polygon class="st22" points="926.09,985 796.42,985 796.42,903.33 864.35,903.33 	"/>
	<g>
		<g id="man_3_">
			<g>
				<path class="st5" d="M658.61,1062.4h-33.75c-4.2-2.33-7.93-7.58-9.12-15.38c-1.64-10.83-13.79-16.75-16.42-25.62
					c-2.63-8.87,10.84-21.35,10.84-21.35l2.25-2.89l2.35-3.02l22.33,5.25c0,0,0.55,5.31,0.89,12.09c0.25,4.89,0.38,10.54,0.09,15.5
					c-0.66,11.83,3.31,24.56,13.82,26.86C659.61,1055.53,659.31,1060.1,658.61,1062.4z"/>
				<path class="st5" d="M853.88,1062.4h-76.97c-3.67-4.58-2.3-21.18-1.74-26.59c0.12-1.09,0.2-1.73,0.2-1.73
					s26.28-21.03,29.89-4.93c0.11,0.5,0.25,0.99,0.39,1.49c4.55,15.06,24.95,21.89,36.72,23.81
					C849.99,1055.69,852.83,1059.63,853.88,1062.4z"/>
				<path class="st8" d="M839.24,632.85c0,0-3.99,49.79-8.68,109.64c-6.38,81.3-14.04,181.16-14.8,200.08
					c-1.31,32.85-6.57,85.4-6.57,85.4s-12.47,12.49-37.44,7.22c0,0-22.25-75.01-28.6-154.38c-0.1-1.3-0.2-2.61-0.3-3.92
					c-5.91-80.8-15.11-250.94-15.11-250.94L839.24,632.85z"/>
				<path class="st5" d="M839.24,632.85c0,0-3.99,49.79-8.68,109.64l-87.42,138.32c-0.1-1.3-0.2-2.61-0.3-3.92
					c-5.91-80.8-15.11-250.94-15.11-250.94L839.24,632.85z"/>
				<path class="st8" d="M821.02,638.77c0,0-71.93,180.32-119.23,265.06s-62.08,108.39-62.08,108.39s-27.1-10.84-29.56-18.23
					c0,0,18.09-163.59,49.76-203.47c17.9-22.53,38.92-90.16,39.91-113.81c0.99-23.65,6.41-70.45,6.41-70.45L821.02,638.77z"/>
			</g>
			<path class="st4" d="M893.76,588.99l4.11,8.19c0,0,20.91,2.92,15.15,24.72c0,0-3.1,8.97-8.87,6.13
				c-5.77-2.84-2.92-2.6-11.19-6.42c-8.26-3.82-13.04-11.16-11.2-17.88l-1.32-7.13L893.76,588.99z"/>
			<path class="st4" d="M803.11,375.9c-28.11,8.86-76.74-15.07-76.74-15.07s25.91-19.45,24.56-59.89l21.44,17.27l15.06,12.14
				c0,0-0.07,8.29-2.13,22.63c-0.33,2.32-0.72,4.8-1.17,7.44C796.2,367.06,803.11,375.9,803.11,375.9z"/>
			<path class="st18" d="M888.89,600.38c6.21-6.37,10.82-14.66,10.82-14.66s-52.75-65.54-57.04-72.34
				c-4.29-6.8-36.32-115.81-36.32-115.81l-81.02-16.41c0,0,67.62,139.51,78.83,156.52c18.51,28.1,73.9,69.94,73.9,69.94
				S884.01,605.38,888.89,600.38z"/>
			<path class="st19" d="M842.34,637c-0.85,0.7-1.83,1.13-2.95,1.13c-10.56-0.14-41.34,5.72-67.38,3.04
				c-21.96-2.11-41.39-8.61-62.26-17.97c-2.77-1.24-9.15-4.65-9.01-7.74c0.09-3.39,0.43-8.31,0.85-14.51
				c1.48-21.54,4.05-58.59,1.54-101.34c-0.45-7.96-0.69-15.85-0.72-23.63c-0.21-57.93,11.27-108.89,34.35-126.13
				c1.97-1.41,14.08,4.5,25.2,9.99c10.28,5.07,20.55,5.63,30.26,3.66l9.71,8.58c11.82,10.98,24.77,25.9,30.4,48.56
				c4.79,19.28,7.6,54.05,9.15,90.08c0.7,16.33,1.27,32.8,1.41,48.42v0.56c0.14,1.55,0.14,3.24,0.14,4.79
				C843.61,604.63,843.05,636.44,842.34,637z"/>
			<path class="st18" d="M701.6,600.96c1.48-21.54,4.05-58.59,1.54-101.34c-0.45-7.96-0.69-15.85-0.72-23.63
				c9.62-23.33,17.48-40.24,17.48-40.24h24.24C744.13,435.75,761.9,557.12,701.6,600.96z"/>
			<g>
				<path class="st4" d="M654.45,608.5l-4.6,7.93c0,0,9.01,19.09-12.37,26.22c0,0-9.2,2.32-9.99-4.06
					c-0.79-6.38,0.57-3.87-0.76-12.87c-1.34-9.01,2.18-17.02,8.82-19.17l5.24-5.02L654.45,608.5z"/>
				<path class="st19" d="M642.25,610.67c8.73,1.7,18.19,1.01,18.19,1.01s25.91-80.04,29.25-87.35
					c3.34-7.31,76.96-93.85,76.96-93.85l-30.67-76.76c0,0-79.64,133.02-87.72,151.72c-13.36,30.89-18,100.14-18,100.14
					S635.39,609.33,642.25,610.67z"/>
			</g>
			<path class="st6" d="M787.43,330.36c0,0-0.07,8.29-2.13,22.63c-21.89-5.13-34.4-32.53-34.4-32.53l21.48-2.25L787.43,330.36z"/>
			<path class="st4" d="M796.02,329.69c0,0-46.43,7.71-50.79-21.27c-4.36-28.99-13.29-47.51,16.17-53.66
				c29.46-6.15,36.89,4.04,40.7,13.36C805.92,277.44,807.99,326.94,796.02,329.69z"/>
			<path class="st5" d="M802.11,268.11c0,0-19.61,5.3-30.1,5.56c-10.49,0.26-7.74,16.12-10.34,16.9c-2.6,0.78-8.09-7.79-12.91-2.19
				c-2.23,2.6,1.3,12.11,5.73,14.97c4.43,2.86-6.23,21.86-6.23,21.86s-22.68-20.04-17.73-55.71c4.95-35.67,39.58-34.37,53.64-30.47
				c14.06,3.91,32.79,0.66,31.25,12.24C814.38,259.09,811.23,266.29,802.11,268.11z"/>
		</g>
	</g>
	<path class="st12" d="M480.07,515.51h-5.76c-6.34,0-11.52,5.18-11.52,11.52v73.45c0,6.34,5.18,11.52,11.52,11.52h5.76
		c6.34,0,11.52-5.18,11.52-11.52v-73.45C491.59,520.7,486.41,515.51,480.07,515.51z"/>
</g>
<polygon class="st11" points="-2399.95,80.48 -2795.41,1049.6 -2399.95,1050.79 "/>
<g>
	<g>
		<path class="st16" d="M-2691.52,906.37c0,0,22.88-26.68,1.41-43.64c0,0-15.68-9.49-28.46-8.72c0,0,18.11,30.37,12.25,33.4
			c-5.86,3.02-17.74-35.3-17.74-35.3s-35.68-3.46-47.15,2.06c0,0,30.5,24.96,24.08,26.45c-6.42,1.49-39.37-23.01-39.37-23.01
			s-33.21,5.65-31.43,25.91c1.77,20.26,13.21,26.51,18.24,25.97c5.03-0.54,34.45-11.77,35.09-7.65
			c0.64,4.12-17.07,17.59-29.47,18.22c0,0,23.41,25.82,38.97,18.37c15.56-7.45,16.89-19.26,26.59-23.69
			c9.7-4.43,17.98-4.42,13.97,0.1c-4,4.52-21.56,8.91-27.1,18.72c-5.55,9.81-10.52,16.43,5.58,14c16.1-2.42,42.26-14.2,43.41-27.69
			C-2691.52,906.37-2691.52,906.37-2691.52,906.37z"/>
		<g>
			<path class="st16" d="M-2801.63,884.05c0,0,90.19-3.48,110.11,22.32c0,0,4.41,13.19,17.96,25.21l2.11,5.76
				c0,0-15.63-16.48-21.22-17.47C-2692.67,919.86-2683.93,887.9-2801.63,884.05z"/>
			<path class="st16" d="M-2673.56,931.58c0,0,19.36,14.32,20.7,39.9l-3.51,0.31c0,0-6.18-26.45-17.36-36.79
				C-2684.91,924.65-2673.56,931.58-2673.56,931.58z"/>
		</g>
	</g>
	<g>
		<path class="st17" d="M-2611.55,872.81c0,0-36.39-20.38-19.41-48.03c0,0,13.58-16.98,28.14-21.35c0,0-7.76,41.24,0,42.21
			c7.76,0.97,5.34-46.58,5.34-46.58s38.33-18.44,53.37-16.98c0,0-23.77,40.27-16.01,39.3c7.76-0.97,34.45-41.72,34.45-41.72
			s39.3-7.28,45.6,16.01c6.31,23.29-3.88,34.93-9.7,36.39c-5.82,1.46-43.18,0.97-42.21,5.82c0.97,4.85,26.2,12.61,40.27,8.25
			c0,0-15.52,38.33-35.9,36.39c-20.38-1.94-26.68-14.55-39.3-15.53c-12.61-0.97-21.83,2.43-15.52,5.82
			c6.31,3.4,27.65,1.11,37.84,9.77c10.19,8.66,18.44,14-0.49,17.88c-18.92,3.88-52.88,1.46-59.67-13.1
			C-2611.55,872.81-2611.55,872.81-2611.55,872.81z"/>
		<g>
			<path class="st16" d="M-2498.02,802.95c0,0-101.88,32.99-113.53,69.86c0,0,0.49,16.5-9.7,35.42v7.28c0,0,10.67-24.74,16.49-28.14
				C-2604.76,887.37-2627.56,855.35-2498.02,802.95z"/>
			<path class="st16" d="M-2621.25,908.23c0,0-15.71,23.86-6.75,52.9l4.04-1.08c0,0-3.92-31.99,4.3-48.08
				C-2611.45,895.88-2621.25,908.23-2621.25,908.23z"/>
		</g>
	</g>
	<g>
		<path class="st16" d="M-2669.44,844.71c0,0,47.96-26.86,25.58-63.31c0,0-17.91-22.38-37.09-28.14c0,0,10.23,54.36,0,55.64
			c-10.23,1.28-7.04-61.39-7.04-61.39s-50.52-24.3-70.35-22.38c0,0,31.34,53.08,21.1,51.8c-10.23-1.28-45.41-55-45.41-55
			s-51.8-9.59-60.12,21.1c-8.31,30.7,5.12,46.05,12.79,47.96c7.67,1.92,56.92,1.28,55.64,7.67c-1.28,6.4-34.53,16.63-53.08,10.87
			c0,0,20.46,50.52,47.32,47.96c26.86-2.56,35.17-19.19,51.8-20.46c16.63-1.28,28.78,3.2,20.46,7.67
			c-8.31,4.48-36.45,1.47-49.88,12.88c-13.43,11.42-24.3,18.45,0.64,23.57c24.94,5.12,69.71,1.92,78.66-17.27
			C-2669.44,844.71-2669.44,844.71-2669.44,844.71z"/>
		<g>
			<path class="st16" d="M-2819.08,752.62c0,0,134.3,43.49,149.65,92.09c0,0-0.64,21.74,12.79,46.69v9.59
				c0,0-14.07-32.62-21.75-37.09C-2678.39,863.9-2648.33,821.69-2819.08,752.62z"/>
			<path class="st16" d="M-2656.64,891.39c0,0,20.71,31.45,8.9,69.74l-5.33-1.43c0,0,5.17-42.17-5.66-63.38
				C-2669.57,875.11-2656.64,891.39-2656.64,891.39z"/>
		</g>
	</g>
	<path class="st18" d="M-2761.78,950.19c0,51.89,42.07,93.96,93.96,93.96c6.33,0,12.53-0.62,18.52-1.83
		c43.02-8.59,75.43-46.58,75.43-92.13H-2761.78z"/>
	<path class="st19" d="M-2724.72,950.19c0,45.55,32.4,83.52,75.42,92.13c43.02-8.59,75.43-46.58,75.43-92.13H-2724.72z"/>
	<path class="st18" d="M-2763.07,1048.93h190.5c0-3.21-1.3-6.1-3.4-8.2c-2.1-2.09-5-3.4-8.2-3.4h-167.32
		C-2757.88,1037.34-2763.07,1042.53-2763.07,1048.93z"/>
	<path class="st20" d="M-2644.1,1037.34h-12.74c34.47-13.92,48.18-47.69,48.18-87.14h23.34
		C-2585.32,989.65-2609.64,1023.42-2644.1,1037.34z"/>
	<path class="st19" d="M-2673.85,1048.93h101.28c0-3.21-1.3-6.1-3.4-8.2c-2.1-2.09-5-3.4-8.2-3.4h-81.78
		C-2672.33,1037.34-2673.85,1042.53-2673.85,1048.93z"/>
	<path class="st21" d="M-2762.47,953.08h190.25c0.8,0,1.44-0.65,1.44-1.44l0,0c0-0.79-0.65-1.44-1.44-1.44h-190.25
		c-0.8,0-1.44,0.65-1.44,1.44l0,0C-2763.91,952.43-2763.27,953.08-2762.47,953.08z"/>
</g>
</svg>
