<?xml version="1.0" encoding="utf-8"?>
<!-- Generator: Adobe Illustrator 26.5.0, SVG Export Plug-In . SVG Version: 6.00 Build 0)  -->
<svg version="1.0" id="_x3C_Layer_x3E_" xmlns="http://www.w3.org/2000/svg" xmlns:xlink="http://www.w3.org/1999/xlink" x="0px"
	 y="0px" viewBox="0 0 1208.42 1062.88" style="enable-background:new 0 0 1208.42 1062.88;" xml:space="preserve">
<style type="text/css">
	.st0{fill:#6BB7BF;}
	.st1{fill:#86D1CD;}
	.st2{fill:#B0E2E2;}
	.st3{fill:#74ACBE;}
	.st4{fill:#FFB27D;}
	.st5{fill:#233862;}
	.st6{fill:#E8945B;}
	.st7{fill:#B64C41;}
	.st8{fill:#2B478B;}
	.st9{fill:#A03C37;}
	.st10{fill:#BFEFEE;}
	.st11{opacity:0.2;fill:#599DAD;}
	.st12{fill:#599DAD;}
	.st13{fill:#418A96;}
	.st14{fill:#5FABB7;}
	.st15{fill:#79C8CC;}
	.st16{fill:#5EA04E;}
	.st17{fill:#82B378;}
	.st18{fill:#E58435;}
	.st19{fill:#F1A34F;}
	.st20{fill:#FFB973;}
	.st21{fill:#D86713;}
	.st22{fill:#479199;}
</style>
<g>
	<rect x="519.64" y="9.78" class="st0" width="564.38" height="1055.89"/>
	<rect x="545.86" y="38.83" class="st1" width="511.93" height="996.1"/>
	<g>
		<rect x="577.61" y="67.28" class="st2" width="441.23" height="251.15"/>
		<rect x="577.61" y="358.57" class="st2" width="441.23" height="251.15"/>
		<rect x="577.61" y="647.9" class="st2" width="441.23" height="337.95"/>
	</g>
	<g>
		<path class="st3" d="M600.68,469.19h6.27c6.9,0,12.54,5.64,12.54,12.54v79.93c0,6.9-5.64,12.54-12.54,12.54h-6.27
			c-6.9,0-12.54-5.64-12.54-12.54v-79.93C588.14,474.83,593.78,469.19,600.68,469.19z"/>
	</g>
	<g>
		<path class="st4" d="M703.82,389.87c0,0-9.06-30.3-16.89-29.6c-7.84,0.7-14.8,8.36-15.15,18.11c-0.35,9.75,20.2,26.82,20.2,26.82
			L703.82,389.87z"/>
		<path class="st5" d="M909.3,341.98c0,0,33.8,1.22,46.33,8.54c12.54,7.31,50.85,84.75,50.85,92.7c0,7.95-18.81,42.78-73.83,56.01
			l-10.89-23.68c0,0,29.4-37.6,23.82-42.48c-5.57-4.88-28.26-17.15-31.74-20.77C910.35,408.68,909.3,341.98,909.3,341.98z"/>
		<path class="st4" d="M857.77,541.16c0,0,47.41,217.94,52.81,250.66c0.88,5.34,2.76,13.9,5.25,24.66
			c12.81,55.23,41.76,168.43,33.9,200.74c-5.56,22.78-15.23,29.5-15.23,29.5c-2.28,4.18,35.22,12.48,38.25-3.51
			c3.85-20.29,4.65-48.76,10.29-97.04c9.7-83.13-9.54-130.44-14.21-165.18c-1.31-9.75-0.65-25.47,0.73-43.87
			c3.53-47.14,11.76-111.89,3.66-139.04c-8.83-29.52-22.48-51.24-39.51-63.02c-19.11-13.23-42.46-13.92-67.99,0.99
			C863.09,537.59,860.45,539.29,857.77,541.16z"/>
		<path class="st6" d="M857.77,541.16c0,0,47.41,217.94,52.81,250.66c0.88,5.34,2.76,13.9,5.25,24.66l53.73-79.35
			c3.53-47.14,11.76-111.89,3.66-139.04c-8.83-29.52-22.48-51.24-39.51-63.02c-21.24-2.16-45.51-1.75-67.99,0.99
			C863.09,537.59,860.45,539.29,857.77,541.16z"/>
		<path class="st4" d="M834.77,538.06c0,0,10.77,220.01,11.31,253.17c0.54,33.16,20.7,191.89,5.73,228.7
			c-8.83,21.72-19.39,26.96-19.39,26.96c-2.87,3.8,33.02,17.49,38.35,2.13c6.77-19.51,11.74-47.56,24.38-94.5
			c21.76-80.81,9.66-130.43,10.13-165.48c0.47-35.05,36.74-141.32,31.11-180.3C926.55,540.52,891.26,509.82,834.77,538.06z"/>
		<path class="st7" d="M830.54,716.55c0,0,15.72,2.79,19.2,1.4c3.49-1.4,4.18-33.44,4.18-33.44c2.09,17.41,10.45,32.74,10.45,32.74
			c31.39,4.44,55.22,4.82,72.73,3.54c29.13-2.11,40.81-8.77,40.81-8.77s-1.28-80.43-4.7-110.66c-0.79-7.04-3.24-14.44-6.52-21.65
			c-10.77-23.71-30.57-45.31-30.57-45.31l-101.35,6.4L830.54,716.55z"/>
		<path class="st4" d="M861.72,346.16h47.58c-0.8-2.91-1.74-7.72-2.63-15.66c-0.09-0.79-0.17-1.6-0.26-2.46
			c-0.67-6.52-1.29-14.92-1.81-25.76c-0.01-0.31-0.03-0.63-0.04-0.95l-40.08,12.21l-0.48,0.15c0,0,0.26,1.51,0.48,4.06v0.01
			C864.99,323.63,865.29,335.03,861.72,346.16z"/>
		<path class="st4" d="M846.54,308.85c0,0,43.54,23.62,57.83-3.72c14.29-27.34,29.53-42.71,2.34-58.94
			c-27.2-16.24-38.1-8.65-45.08-0.68C854.63,253.46,835.58,302,846.54,308.85z"/>
		<path class="st8" d="M705,385.81c0,0,41.66,39.49,51.06,40.98c9.4,1.49,50.5-70,64.08-76.27c13.58-6.27,27.86-5.59,27.86-5.59
			c59.81-8.59,107.62,5.59,107.62,5.59s-14.28,170.31-19.51,183.89c-2.38,6.18-20.19,9.05-40.42,9.87
			c-24.21,0.99-51.92-0.91-60.92-3.47c-11.17-3.18,2.29-49.84-23.32-93.72c-18.38,14.78-53.2,37.36-61.14,32.6
			c-10.45-6.27-63.39-74.84-63.39-74.84C691.63,383.95,705,385.81,705,385.81z"/>
		<path class="st5" d="M811.45,447.09c25.98,46.86,11.83,90.45,23.32,93.72c9.01,2.56,36.72,4.46,60.92,3.47
			c-14.83-3.18-21.96-3.22-29.97-8.22c-8.23-5.14-3.26-46.06-14.23-69.57C840.52,442.98,811.45,447.09,811.45,447.09z"/>
		<path class="st7" d="M976.02,1018.23c0,0,6.6,28.38,4.51,37.91l-2.05,8.25h-71.09c0,0,4.31-18.41,18.67-18.54
			c14.37-0.13,28.34-2.09,30.95-7.58C959.63,1032.79,966.94,1017.39,976.02,1018.23z"/>
		<path class="st7" d="M879.27,1018.23c0,0,6.6,28.38,4.51,37.91l-2.05,8.25h-71.09c0,0,4.31-18.41,18.68-18.54
			c14.37-0.13,28.34-2.09,30.95-7.58C862.88,1032.79,870.18,1017.39,879.27,1018.23z"/>
		<path class="st9" d="M856.46,369.84c-1.05-32.77,11.44-54.92,19.77-65.96c2.96-4.78,6.18-8.17,9.27-9.62
			c4.89-2.79,10.79-8.7,9.75-12.88c-1.04-4.18-8.36,3.13-22.63-10.45c-14.28-13.58-11.7-35-11.7-35
			c13.05-14.65,28.41-19.69,58.19-13.42c29.78,6.27,33.8,31.35,29.62,54.33c-3.77,20.73-1.64,35.37,10.8,55.59
			c1.71,1.99,3.18,4.27,4.42,6.79c0,0.01,0,0.02,0.01,0.02c0.47,0.7,0.74,1.32,0.86,1.89c6.54,15.28,16.79,36.26,11.85,52.74
			c-6.27,20.9,5.43,27.51,9.06,53.29c0.85,5.99-2.15,13.59-7.91,20.98c-2.02-28.07-18.19-35.13-18.7-35.34
			c11.11,15.34,8.71,36.87,6.67,47.24c-13.96,10.86-33.72,18.36-54.33,14.33c4.44-10.23,9.61-26.42,5.77-43.03
			c0,0-0.32,26.09-17.97,39.24c-9.73-4.16-19.43-11.22-28.61-22c-28.27-33.25,15.28-61.35,3.82-81.84
			c-4.19-7.49-6.8-15.45-8.22-23.43c-2.87,17.38-1.43,32.4-1.43,32.4C858.02,385.26,856.46,369.84,856.46,369.84z"/>
		<path class="st9" d="M937.11,720.79c29.13-2.11,40.81-8.77,40.81-8.77s-1.28-80.43-4.7-110.66c-0.79-7.04-3.24-14.44-6.52-21.65
			l-0.03-0.05C966.66,579.67,958.64,671.79,937.11,720.79z"/>
	</g>
</g>
<g>
	<rect x="-980.44" y="-180.13" class="st10" width="540.54" height="956.98"/>
	<rect x="-971.65" y="-180.13" class="st2" width="353.31" height="956.98"/>
	<polygon class="st11" points="-1238.63,-281.97 -1623.51,787.72 -1228.05,787.72 	"/>
	<polygon class="st0" points="-1215.44,-281.97 -1215.44,781.68 -980.44,781.68 -980.44,-190.54 	"/>
	<rect x="-1238.63" y="-281.97" class="st12" width="23.2" height="1063.65"/>
	<rect x="-958.54" y="703.03" class="st12" width="496.73" height="81.67"/>
	<polygon class="st13" points="-771.85,784.7 -958.54,784.7 -958.54,703.03 -821.38,703.03 	"/>
	<rect x="-851.9" y="621.36" class="st14" width="390.1" height="81.67"/>
	<rect x="-751.56" y="539.69" class="st0" width="289.77" height="81.67"/>
	<rect x="-651.14" y="458.02" class="st15" width="189.35" height="81.67"/>
	<path class="st12" d="M-980.44-189.21v970.89h540.54v-970.89H-980.44z M-461.8,758.73h-496.73v-924.98h496.73V758.73z"/>
	<g>
		<g>
			<path class="st16" d="M-1434.88,637.88c0,0-22.88-26.68-1.41-43.64c0,0,15.68-9.49,28.46-8.72c0,0-18.11,30.37-12.25,33.4
				c5.86,3.02,17.74-35.3,17.74-35.3s35.68-3.46,47.15,2.06c0,0-30.5,24.96-24.08,26.45c6.42,1.49,39.37-23.01,39.37-23.01
				s33.21,5.65,31.43,25.91c-1.77,20.26-13.21,26.51-18.24,25.97c-5.03-0.54-34.45-11.77-35.09-7.65
				c-0.64,4.12,17.07,17.59,29.47,18.22c0,0-23.41,25.82-38.97,18.37c-15.56-7.45-16.89-19.26-26.59-23.69
				c-9.7-4.43-17.98-4.42-13.97,0.1c4,4.52,21.56,8.91,27.1,18.72c5.55,9.81,10.52,16.43-5.58,14c-16.1-2.42-42.26-14.2-43.41-27.69
				C-1434.88,637.88-1434.88,637.88-1434.88,637.88z"/>
			<g>
				<path class="st16" d="M-1324.77,615.56c0,0-90.19-3.48-110.11,22.32c0,0-4.41,13.19-17.96,25.21l-2.11,5.76
					c0,0,15.63-16.48,21.22-17.47C-1433.73,651.37-1442.47,619.41-1324.77,615.56z"/>
				<path class="st16" d="M-1452.84,663.08c0,0-19.36,14.32-20.7,39.9l3.51,0.31c0,0,6.18-26.45,17.36-36.79
					C-1441.49,656.16-1452.84,663.08-1452.84,663.08z"/>
			</g>
		</g>
		<g>
			<path class="st17" d="M-1514.85,604.32c0,0,36.39-20.38,19.41-48.03c0,0-13.59-16.98-28.14-21.35c0,0,7.76,41.24,0,42.21
				c-7.76,0.97-5.34-46.58-5.34-46.58s-38.33-18.44-53.37-16.98c0,0,23.77,40.27,16.01,39.3c-7.76-0.97-34.45-41.72-34.45-41.72
				s-39.3-7.28-45.6,16.01c-6.31,23.29,3.88,34.93,9.7,36.39c5.82,1.46,43.18,0.97,42.21,5.82c-0.97,4.85-26.2,12.61-40.27,8.25
				c0,0,15.52,38.33,35.9,36.39c20.38-1.94,26.68-14.55,39.3-15.53c12.61-0.97,21.83,2.43,15.52,5.82
				c-6.31,3.4-27.65,1.11-37.84,9.77c-10.19,8.66-18.44,14,0.49,17.88c18.92,3.88,52.88,1.46,59.67-13.1
				C-1514.85,604.32-1514.85,604.32-1514.85,604.32z"/>
			<g>
				<path class="st16" d="M-1628.38,534.46c0,0,101.88,32.99,113.53,69.86c0,0-0.49,16.5,9.7,35.42v7.28
					c0,0-10.67-24.74-16.49-28.14C-1521.64,618.87-1498.84,586.85-1628.38,534.46z"/>
				<path class="st16" d="M-1505.15,639.73c0,0,15.71,23.86,6.75,52.9l-4.04-1.08c0,0,3.92-31.99-4.3-48.08
					C-1514.95,627.38-1505.15,639.73-1505.15,639.73z"/>
			</g>
		</g>
		<g>
			<path class="st16" d="M-1456.97,576.22c0,0-47.96-26.86-25.58-63.31c0,0,17.91-22.38,37.09-28.14c0,0-10.23,54.36,0,55.64
				c10.23,1.28,7.04-61.39,7.04-61.39s50.52-24.3,70.35-22.38c0,0-31.34,53.08-21.1,51.8c10.23-1.28,45.41-55,45.41-55
				s51.8-9.59,60.12,21.1c8.31,30.7-5.12,46.05-12.79,47.96c-7.67,1.92-56.92,1.28-55.64,7.67c1.28,6.4,34.53,16.63,53.08,10.87
				c0,0-20.46,50.52-47.32,47.96c-26.86-2.56-35.17-19.19-51.8-20.46c-16.63-1.28-28.78,3.2-20.46,7.67
				c8.31,4.48,36.45,1.47,49.88,12.88c13.43,11.42,24.3,18.45-0.64,23.57c-24.94,5.12-69.71,1.92-78.66-17.27
				C-1456.97,576.22-1456.97,576.22-1456.97,576.22z"/>
			<g>
				<path class="st16" d="M-1307.32,484.12c0,0-134.3,43.49-149.65,92.09c0,0,0.64,21.74-12.79,46.69v9.59
					c0,0,14.07-32.62,21.75-37.09C-1448.01,595.4-1478.07,553.19-1307.32,484.12z"/>
				<path class="st16" d="M-1469.76,622.9c0,0-20.71,31.45-8.9,69.74l5.33-1.43c0,0-5.17-42.17,5.66-63.38
					C-1456.83,606.62-1469.76,622.9-1469.76,622.9z"/>
			</g>
		</g>
		<path class="st18" d="M-1364.62,681.7c0,51.89-42.07,93.96-93.96,93.96c-6.33,0-12.53-0.62-18.52-1.83
			c-43.02-8.59-75.43-46.58-75.43-92.13H-1364.62z"/>
		<path class="st19" d="M-1401.68,681.7c0,45.55-32.4,83.52-75.42,92.13c-43.02-8.59-75.43-46.58-75.43-92.13H-1401.68z"/>
		<path class="st18" d="M-1363.33,780.44h-190.5c0-3.21,1.3-6.1,3.4-8.2c2.1-2.09,5-3.4,8.2-3.4h167.32
			C-1368.52,768.85-1363.33,774.04-1363.33,780.44z"/>
		<path class="st20" d="M-1482.3,768.85h12.74c-34.47-13.92-48.18-47.69-48.18-87.14h-23.34
			C-1541.08,721.16-1516.76,754.93-1482.3,768.85z"/>
		<path class="st19" d="M-1452.55,780.44h-101.28c0-3.21,1.3-6.1,3.4-8.2c2.1-2.09,5-3.4,8.2-3.4h81.78
			C-1454.07,768.85-1452.55,774.04-1452.55,780.44z"/>
		<path class="st21" d="M-1363.93,684.59h-190.25c-0.8,0-1.44-0.65-1.44-1.44l0,0c0-0.79,0.65-1.44,1.44-1.44h190.25
			c0.8,0,1.44,0.65,1.44,1.44l0,0C-1362.49,683.94-1363.14,684.59-1363.93,684.59z"/>
	</g>
	<polygon class="st0" points="-528.69,539.69 -651.14,539.69 -651.14,458.02 -619.38,458.02 	"/>
	<polygon class="st12" points="-595.57,621.36 -751.56,621.36 -751.56,539.69 -675.04,539.69 	"/>
	<polygon class="st22" points="-722.23,703.03 -851.9,703.03 -851.9,621.36 -783.97,621.36 	"/>
	<g>
		<g id="man_3_">
			<g>
				<path class="st5" d="M-989.7,780.44h-33.75c-4.2-2.33-7.93-7.58-9.12-15.38c-1.64-10.83-13.79-16.75-16.42-25.62
					c-2.63-8.87,10.84-21.35,10.84-21.35l2.25-2.89l2.35-3.02l22.33,5.25c0,0,0.55,5.31,0.89,12.09c0.25,4.89,0.38,10.54,0.09,15.5
					c-0.66,11.83,3.31,24.56,13.82,26.86C-988.71,773.57-989.01,778.13-989.7,780.44z"/>
				<path class="st5" d="M-794.44,780.44h-76.97c-3.67-4.58-2.3-21.18-1.74-26.59c0.12-1.09,0.2-1.73,0.2-1.73
					s26.28-21.03,29.89-4.93c0.11,0.5,0.25,0.99,0.39,1.49c4.55,15.06,24.95,21.89,36.72,23.81
					C-798.33,773.72-795.49,777.67-794.44,780.44z"/>
				<path class="st8" d="M-809.08,350.89c0,0-3.99,49.79-8.68,109.64c-6.38,81.3-14.04,181.16-14.8,200.08
					c-1.31,32.85-6.57,85.4-6.57,85.4s-12.47,12.49-37.44,7.22c0,0-22.25-75.01-28.6-154.38c-0.1-1.3-0.2-2.61-0.3-3.92
					c-5.91-80.8-15.11-250.94-15.11-250.94L-809.08,350.89z"/>
				<path class="st5" d="M-809.08,350.89c0,0-3.99,49.79-8.68,109.64l-87.42,138.32c-0.1-1.3-0.2-2.61-0.3-3.92
					c-5.91-80.8-15.11-250.94-15.11-250.94L-809.08,350.89z"/>
				<path class="st8" d="M-827.3,356.8c0,0-71.93,180.32-119.23,265.06c-47.3,84.74-62.08,108.39-62.08,108.39
					s-27.1-10.84-29.56-18.23c0,0,18.09-163.59,49.76-203.47c17.9-22.53,38.92-90.16,39.91-113.81c0.99-23.65,6.41-70.45,6.41-70.45
					L-827.3,356.8z"/>
			</g>
			<path class="st4" d="M-754.56,307.02l4.11,8.19c0,0,20.91,2.92,15.15,24.72c0,0-3.1,8.97-8.87,6.13
				c-5.77-2.84-2.92-2.6-11.19-6.42c-8.26-3.82-13.04-11.16-11.2-17.88l-1.32-7.13L-754.56,307.02z"/>
			<path class="st4" d="M-845.21,93.94c-28.11,8.86-76.74-15.07-76.74-15.07s25.91-19.45,24.56-59.89l21.44,17.27l15.06,12.15
				c0,0-0.07,8.29-2.13,22.63c-0.33,2.32-0.72,4.8-1.17,7.44C-852.12,85.1-845.21,93.94-845.21,93.94z"/>
			<path class="st18" d="M-759.43,318.41c6.21-6.37,10.82-14.66,10.82-14.66s-52.75-65.54-57.04-72.34
				c-4.29-6.8-36.32-115.81-36.32-115.81L-923,99.2c0,0,67.62,139.51,78.83,156.52c18.51,28.1,73.9,69.94,73.9,69.94
				S-764.3,323.42-759.43,318.41z"/>
			<path class="st19" d="M-805.97,355.04c-0.85,0.7-1.83,1.13-2.95,1.13c-10.56-0.14-41.33,5.72-67.38,3.04
				c-21.96-2.11-41.39-8.61-62.26-17.97c-2.77-1.24-9.15-4.65-9.01-7.74c0.09-3.39,0.43-8.31,0.85-14.51
				c1.48-21.54,4.05-58.59,1.54-101.34c-0.45-7.96-0.69-15.85-0.72-23.63c-0.21-57.93,11.27-108.89,34.35-126.13
				c1.97-1.41,14.08,4.5,25.2,9.99c10.28,5.07,20.55,5.63,30.26,3.66l9.71,8.58c11.82,10.98,24.77,25.9,30.4,48.56
				c4.79,19.28,7.6,54.05,9.15,90.08c0.7,16.33,1.27,32.8,1.41,48.42v0.56c0.14,1.55,0.14,3.24,0.14,4.79
				C-804.7,322.66-805.27,354.47-805.97,355.04z"/>
			<path class="st18" d="M-946.72,318.99c1.48-21.54,4.05-58.59,1.54-101.34c-0.45-7.96-0.69-15.85-0.72-23.63
				c9.62-23.33,17.48-40.24,17.48-40.24h24.24C-904.18,153.79-886.41,275.16-946.72,318.99z"/>
			<g>
				<path class="st4" d="M-993.87,326.54l-4.6,7.93c0,0,9.01,19.09-12.37,26.22c0,0-9.2,2.32-9.99-4.06
					c-0.79-6.38,0.57-3.87-0.76-12.87c-1.33-9.01,2.18-17.02,8.82-19.17l5.24-5.02L-993.87,326.54z"/>
				<path class="st19" d="M-1006.07,328.7c8.73,1.7,18.19,1.01,18.19,1.01s25.91-80.04,29.25-87.35
					c3.34-7.31,76.96-93.85,76.96-93.85l-30.67-76.76c0,0-79.64,133.02-87.72,151.72c-13.36,30.89-18,100.14-18,100.14
					S-1012.92,327.37-1006.07,328.7z"/>
			</g>
			<path class="st6" d="M-860.89,48.39c0,0-0.07,8.29-2.13,22.63c-21.89-5.13-34.4-32.53-34.4-32.53l21.48-2.25L-860.89,48.39z"/>
			<path class="st4" d="M-852.3,47.72c0,0-46.43,7.71-50.79-21.27c-4.36-28.99-13.29-47.51,16.17-53.66
				c29.46-6.15,36.89,4.04,40.7,13.36C-842.4-4.53-840.33,44.97-852.3,47.72z"/>
			<path class="st5" d="M-846.21-13.85c0,0-19.61,5.3-30.1,5.56c-10.49,0.26-7.74,16.12-10.34,16.9c-2.6,0.78-8.09-7.79-12.91-2.19
				c-2.23,2.6,1.3,12.11,5.73,14.97c4.43,2.86-6.23,21.86-6.23,21.86s-22.68-20.04-17.73-55.71c4.95-35.67,39.58-34.37,53.64-30.47
				c14.06,3.91,32.79,0.66,31.25,12.24C-833.94-22.87-837.09-15.68-846.21-13.85z"/>
		</g>
	</g>
	<path class="st12" d="M-1168.25,233.55h-5.76c-6.34,0-11.52,5.18-11.52,11.52v73.45c0,6.34,5.18,11.52,11.52,11.52h5.76
		c6.34,0,11.52-5.18,11.52-11.52v-73.45C-1156.72,238.73-1161.91,233.55-1168.25,233.55z"/>
</g>
<polygon class="st11" points="519.64,9.78 89.3,1064.39 519.64,1065.68 "/>
<g>
	<g>
		<path class="st16" d="M202.35,908.53c0,0,24.89-29.04,1.54-47.49c0,0-17.06-10.33-30.97-9.49c0,0,19.71,33.05,13.33,36.34
			c-6.38,3.29-19.31-38.41-19.31-38.41s-38.82-3.77-51.31,2.24c0,0,33.19,27.16,26.2,28.78c-6.99,1.62-42.84-25.04-42.84-25.04
			s-36.14,6.15-34.21,28.19c1.93,22.04,14.38,28.85,19.85,28.26c5.47-0.59,37.48-12.81,38.18-8.32c0.7,4.48-18.57,19.14-32.07,19.82
			c0,0,25.48,28.1,42.41,19.99c16.93-8.11,18.38-20.96,28.93-25.78c10.55-4.82,19.56-4.81,15.21,0.11
			c-4.36,4.92-23.46,9.7-29.49,20.37c-6.04,10.68-11.45,17.88,6.07,15.24c17.52-2.64,45.99-15.45,47.24-30.13
			C202.35,908.53,202.35,908.53,202.35,908.53z"/>
		<g>
			<path class="st16" d="M82.53,884.24c0,0,98.15-3.78,119.82,24.29c0,0,4.79,14.36,19.54,27.43l2.3,6.26
				c0,0-17.01-17.93-23.09-19.02C201.1,923.2,210.61,888.43,82.53,884.24z"/>
			<path class="st16" d="M221.89,935.95c0,0,21.07,15.58,22.53,43.42l-3.82,0.34c0,0-6.73-28.78-18.89-40.04
				C209.55,928.42,221.89,935.95,221.89,935.95z"/>
		</g>
	</g>
	<g>
		<path class="st17" d="M289.38,872.01c0,0-39.6-22.17-21.12-52.27c0,0,14.78-18.48,30.62-23.23c0,0-8.45,44.87,0,45.93
			c8.45,1.06,5.81-50.68,5.81-50.68s41.71-20.06,58.07-18.48c0,0-25.87,43.82-17.42,42.76c8.45-1.05,37.49-45.4,37.49-45.4
			s42.76-7.92,49.63,17.42c6.86,25.34-4.22,38.01-10.56,39.6c-6.34,1.58-46.99,1.06-45.93,6.33c1.06,5.28,28.51,13.73,43.82,8.98
			c0,0-16.89,41.71-39.07,39.6c-22.17-2.11-29.04-15.84-42.76-16.89c-13.73-1.06-23.76,2.64-16.89,6.34
			c6.86,3.7,30.09,1.21,41.18,10.64c11.09,9.43,20.06,15.23-0.53,19.46c-20.59,4.22-57.55,1.58-64.94-14.25
			C289.38,872.01,289.38,872.01,289.38,872.01z"/>
		<g>
			<path class="st16" d="M412.92,795.98c0,0-110.87,35.9-123.54,76.02c0,0,0.53,17.95-10.56,38.54v7.92c0,0,11.62-26.93,17.95-30.62
				C296.77,887.84,271.96,853,412.92,795.98z"/>
			<path class="st16" d="M278.82,910.55c0,0-17.1,25.96-7.35,57.57l4.4-1.18c0,0-4.27-34.81,4.68-52.32
				C289.49,897.11,278.82,910.55,278.82,910.55z"/>
		</g>
	</g>
	<g>
		<path class="st16" d="M226.38,841.42c0,0,52.19-29.23,27.84-68.9c0,0-19.48-24.36-40.36-30.62c0,0,11.14,59.15,0,60.55
			c-11.14,1.39-7.66-66.81-7.66-66.81s-54.98-26.45-76.55-24.36c0,0,34.1,57.76,22.97,56.37c-11.14-1.39-49.41-59.85-49.41-59.85
			s-56.37-10.44-65.42,22.97c-9.05,33.41,5.57,50.11,13.92,52.19c8.35,2.09,61.94,1.39,60.55,8.35
			c-1.39,6.96-37.58,18.09-57.76,11.83c0,0,22.27,54.98,51.5,52.19c29.23-2.78,38.28-20.88,56.37-22.27
			c18.09-1.39,31.32,3.48,22.27,8.35c-9.05,4.87-39.67,1.6-54.28,14.02c-14.61,12.43-26.45,20.08,0.7,25.65
			c27.14,5.57,75.86,2.09,85.6-18.79C226.38,841.42,226.38,841.42,226.38,841.42z"/>
		<g>
			<path class="st16" d="M63.53,741.21c0,0,146.15,47.32,162.85,100.21c0,0-0.7,23.66,13.92,50.8v10.44c0,0-15.31-35.49-23.66-40.36
				C216.64,862.3,249.35,816.37,63.53,741.21z"/>
			<path class="st16" d="M240.3,892.23c0,0,22.54,34.23,9.69,75.89l-5.8-1.56c0,0,5.63-45.89-6.16-68.97
				C226.24,874.51,240.3,892.23,240.3,892.23z"/>
		</g>
	</g>
	<path class="st18" d="M125.9,956.21c0,56.47,45.78,102.25,102.25,102.25c6.89,0,13.64-0.68,20.15-1.99
		c46.81-9.35,82.08-50.69,82.08-100.25H125.9z"/>
	<path class="st19" d="M166.23,956.21c0,49.57,35.26,90.89,82.07,100.25c46.81-9.35,82.08-50.69,82.08-100.25H166.23z"/>
	<path class="st18" d="M124.49,1063.66H331.8c0-3.49-1.42-6.64-3.7-8.92c-2.29-2.28-5.44-3.7-8.92-3.7H137.11
		C130.14,1051.05,124.49,1056.7,124.49,1063.66z"/>
	<path class="st20" d="M253.95,1051.05h-13.86c37.51-15.15,52.43-51.9,52.43-94.83h25.4C317.92,999.15,291.46,1035.9,253.95,1051.05
		z"/>
	<path class="st19" d="M221.58,1063.66H331.8c0-3.49-1.42-6.64-3.7-8.92c-2.29-2.28-5.44-3.7-8.92-3.7h-88.99
		C223.23,1051.05,221.58,1056.7,221.58,1063.66z"/>
	<path class="st21" d="M125.14,959.35h207.03c0.87,0,1.57-0.7,1.57-1.57l0,0c0-0.86-0.7-1.57-1.57-1.57H125.14
		c-0.87,0-1.57,0.7-1.57,1.57l0,0C123.57,958.65,124.28,959.35,125.14,959.35z"/>
</g>
</svg>
